<svg width="31" height="12" viewBox="0 0 31 12" fill="none" xmlns="http://www.w3.org/2000/svg">
<path id="Vector 17" d="M30 6.8C30.4418 6.8 30.8 6.44183 30.8 6C30.8 5.55817 30.4418 5.2 30 5.2L30 6.8ZM0.434315 5.43431C0.121895 5.74673 0.121895 6.25327 0.434314 6.56569L5.52548 11.6569C5.8379 11.9693 6.34443 11.9693 6.65685 11.6569C6.96927 11.3444 6.96927 10.8379 6.65685 10.5255L2.13137 6L6.65685 1.47452C6.96927 1.1621 6.96927 0.655566 6.65685 0.343146C6.34444 0.0307269 5.8379 0.0307269 5.52548 0.343146L0.434315 5.43431ZM30 5.2L1 5.2L1 6.8L30 6.8L30 5.2Z" fill="#D3B096"/>
</svg>
