<svg width="22" height="22" viewBox="0 0 22 22" fill="none" xmlns="http://www.w3.org/2000/svg">
<g id="Group 192">
<path id="Vector 11" d="M1.5 1H2.39872C3.66024 1 4.78698 1.7892 5.2181 2.97477L6.5 6.5" stroke="#183250" stroke-width="1.6" stroke-linecap="round" stroke-linejoin="round"/>
<path id="Vector 12" d="M18.3687 4.5H8.63128C7.30864 4.5 6.35025 5.7609 6.70425 7.03529L8.09314 12.0353C8.33359 12.9009 9.12176 13.5 10.0202 13.5H16.9798C17.8782 13.5 18.6664 12.9009 18.9069 12.0353L20.2958 7.03529C20.6498 5.7609 19.6914 4.5 18.3687 4.5Z" stroke="#183250" stroke-width="1.6" stroke-linecap="round" stroke-linejoin="round"/>
<path id="Vector 13" d="M10 13.5H8.5C7.67157 13.5 7 14.1716 7 15V15C7 15.8284 7.67157 16.5 8.5 16.5H18" stroke="#183250" stroke-width="1.6" stroke-linecap="round" stroke-linejoin="round"/>
<circle id="Ellipse 38" cx="10" cy="19" r="2" stroke="#183250" stroke-width="1.6"/>
<circle id="Ellipse 39" cx="18" cy="19" r="2" stroke="#183250" stroke-width="1.6"/>
</g>
</svg>
