<svg width="70" height="42" viewBox="0 0 70 42" fill="none" xmlns="http://www.w3.org/2000/svg">
<g id="Group">
<path id="Vector" d="M34.8324 40.4197C28.4383 40.4197 22.4277 40.3193 17.9046 40.1325C10.6514 39.8349 10.6514 39.5096 10.6514 39.1913C10.6514 38.8764 10.6514 38.5477 17.9046 38.2501C22.4277 38.0667 28.4383 37.9629 34.8324 37.9629C41.2265 37.9629 47.2371 38.0632 51.7602 38.2501C59.0135 38.5477 59.0135 38.8729 59.0135 39.1913C59.0135 39.5062 59.0135 39.8349 51.7602 40.1325C47.2371 40.3193 41.2265 40.4197 34.8324 40.4197Z" fill="#D3B096"/>
<path id="Vector_2" d="M54.4514 37.5202C54.4514 37.5202 52.1224 37.4821 48.6253 37.4232C47.752 37.4059 46.804 37.3886 45.8029 37.3713C44.8017 37.3609 43.7472 37.3505 42.6538 37.3297C42.107 37.3193 41.5532 37.3089 40.9922 37.2985C40.4313 37.2951 39.8632 37.2882 39.2881 37.2847C38.1413 37.2708 36.9768 37.2604 35.8123 37.2466L34.939 37.2327C34.6478 37.2327 34.3567 37.2327 34.0691 37.2327C33.4904 37.2327 32.9117 37.2327 32.3402 37.2327C31.1934 37.2293 30.0644 37.2258 28.9745 37.2223C26.791 37.2501 24.7532 37.2778 23.0064 37.2985C22.5697 37.2951 22.1544 37.3366 21.7532 37.347C21.3555 37.3609 20.9792 37.3782 20.6242 37.392C19.9141 37.4198 19.2964 37.444 18.7887 37.4648C17.7697 37.4994 17.1875 37.5167 17.1875 37.5167C17.1875 37.5167 17.7662 37.4613 18.7816 37.3643C19.2893 37.3193 19.907 37.2639 20.6135 37.2016C21.32 37.1427 22.1189 37.0561 22.9922 37.0111C23.8656 36.973 24.8135 36.9349 25.8147 36.8933C26.8159 36.8552 27.8739 36.7998 28.9674 36.7756C30.0609 36.7652 31.1899 36.7548 32.3366 36.7409C32.9117 36.7375 33.4904 36.734 34.0691 36.7306C34.3603 36.7306 34.6514 36.7271 34.9425 36.7236L35.8159 36.734C36.9804 36.7513 38.1484 36.7721 39.2952 36.7894C39.8703 36.7998 40.4384 36.8102 40.9993 36.8206C41.5603 36.8379 42.1177 36.8587 42.6644 36.876C43.7579 36.9106 44.8123 36.9557 45.8135 36.9938C46.8147 37.0423 47.7591 37.0873 48.6325 37.1288C50.3792 37.2085 51.8313 37.3228 52.8502 37.3886C53.3579 37.4198 53.7591 37.4579 54.0289 37.4786C54.3058 37.5098 54.4514 37.5202 54.4514 37.5202Z" fill="#D3B096"/>
<g id="Group_2">
<path id="Vector_3" d="M34.8331 28.5438C36.3668 28.5438 37.613 29.9867 37.613 31.7653C37.613 33.5438 36.3704 34.9868 34.8331 34.9868C33.2994 34.9868 32.0568 33.5438 32.0568 31.7653C32.0532 29.9867 33.2994 28.5438 34.8331 28.5438ZM34.8331 28.0801C33.0402 28.0801 31.5811 29.7341 31.5811 31.7653C31.5811 33.7964 33.0402 35.4505 34.8331 35.4505C36.626 35.4505 38.0852 33.7964 38.0852 31.7653C38.0852 29.7341 36.626 28.0801 34.8331 28.0801Z" fill="#D3B096"/>
<path id="Vector_4" d="M34.8327 29.0352C33.4942 29.0352 32.4043 30.2601 32.4043 31.7653C32.4043 33.2705 33.4942 34.4955 34.8327 34.4955C36.1712 34.4955 37.2611 33.2705 37.2611 31.7653C37.2611 30.2601 36.1712 29.0352 34.8327 29.0352ZM33.5972 30.0006C33.5901 30.0075 33.5794 30.0179 33.5723 30.0248C33.5794 30.0179 33.5901 30.011 33.5972 30.0006ZM34.7404 29.4954C34.7333 29.4954 34.7297 29.4954 34.7226 29.4954C34.7297 29.4954 34.7368 29.4954 34.7404 29.4954ZM34.6374 29.5058C34.6303 29.5058 34.6268 29.5058 34.6197 29.5092C34.6268 29.5058 34.6339 29.5058 34.6374 29.5058ZM34.4493 29.5369C34.4422 29.5369 34.4386 29.5404 34.4315 29.5404C34.4351 29.5404 34.4422 29.5404 34.4493 29.5369ZM34.3499 29.5646C34.3428 29.568 34.3392 29.568 34.3321 29.5715C34.3392 29.568 34.3428 29.5646 34.3499 29.5646ZM34.2504 29.5957C34.2469 29.5957 34.2469 29.5957 34.2433 29.5992C34.2469 29.5957 34.2504 29.5957 34.2504 29.5957ZM34.1688 29.6269C34.1617 29.6303 34.1581 29.6303 34.151 29.6338C34.1581 29.6303 34.1652 29.6303 34.1688 29.6269ZM34.08 29.6684C34.0729 29.6718 34.0658 29.6753 34.0587 29.6788C34.0658 29.6753 34.0729 29.6718 34.08 29.6684ZM33.9877 29.7134C33.9842 29.7168 33.9771 29.7203 33.9735 29.7203C33.9771 29.7203 33.9842 29.7168 33.9877 29.7134ZM33.9132 29.7584C33.9061 29.7618 33.899 29.7687 33.8919 29.7722C33.899 29.7687 33.9061 29.7653 33.9132 29.7584ZM33.828 29.8172C33.8209 29.8241 33.8138 29.8276 33.8031 29.8345C33.8102 29.8276 33.8173 29.8206 33.828 29.8172ZM33.7463 29.8725C33.7392 29.8795 33.7286 29.8864 33.7215 29.8933C33.7321 29.8864 33.7392 29.8795 33.7463 29.8725ZM33.6753 29.9314C33.6682 29.9383 33.6575 29.9452 33.6504 29.9521C33.6611 29.9452 33.6682 29.9383 33.6753 29.9314ZM34.8327 34.0387C33.7499 34.0387 32.8729 33.0214 32.8729 31.7653C32.8729 31.2428 33.0256 30.7618 33.2812 30.3777C33.2741 30.3916 33.2635 30.4054 33.2564 30.4158C33.1215 30.7238 33.0433 31.0733 33.0433 31.4435C33.0433 32.6996 33.9203 33.7169 35.0031 33.7169C35.6493 33.7169 36.2244 33.3536 36.5794 32.793C36.6469 32.6408 36.7001 32.4781 36.7357 32.3086C36.5262 33.3017 35.7522 34.0387 34.8327 34.0387ZM33.5333 30.0663C33.5226 30.0767 33.5084 30.0905 33.4978 30.1044C33.5084 30.0905 33.5191 30.0802 33.5333 30.0663ZM33.4658 30.139C33.4552 30.1494 33.4481 30.1597 33.4374 30.1701C33.4481 30.1597 33.4552 30.1494 33.4658 30.139ZM33.3948 30.222C33.3842 30.2324 33.3771 30.2463 33.3664 30.2566C33.3771 30.2463 33.3842 30.2359 33.3948 30.222ZM33.3416 30.2912C33.3274 30.3085 33.3132 30.3293 33.3025 30.3466C33.3132 30.3293 33.3274 30.312 33.3416 30.2912ZM36.7925 31.7653C36.7925 31.8103 36.7925 31.8518 36.7889 31.8933C36.7889 31.8518 36.7925 31.8103 36.7925 31.7653ZM36.7854 31.9314C36.7818 31.9625 36.7818 31.9937 36.7783 32.0214C36.7818 31.9937 36.7818 31.9625 36.7854 31.9314ZM36.7747 32.0629C36.7712 32.094 36.7676 32.1217 36.7641 32.1529C36.7676 32.1217 36.7712 32.094 36.7747 32.0629ZM36.757 32.1875C36.7499 32.2221 36.7463 32.2567 36.7392 32.2878C36.7463 32.2567 36.7499 32.2221 36.757 32.1875Z" fill="#D3B096"/>
<path id="Vector_5" d="M49.2328 28.9976C50.4861 28.9976 51.5015 30.3402 51.5015 31.9942C51.5015 33.6482 50.4861 34.9908 49.2328 34.9908C47.9796 34.9908 46.9642 33.6482 46.9642 31.9942C46.9642 30.3367 47.9796 28.9976 49.2328 28.9976ZM49.2328 28.5928C47.7524 28.5928 46.5488 30.1188 46.5488 31.9908C46.5488 33.8662 47.7524 35.3887 49.2328 35.3887C50.7133 35.3887 51.9169 33.8628 51.9169 31.9908C51.9169 30.1188 50.7133 28.5928 49.2328 28.5928Z" fill="#D3B096"/>
<path id="Vector_6" d="M20.433 28.9312C21.6863 28.9312 22.7017 30.2738 22.7017 31.9278C22.7017 33.5818 21.6863 34.9244 20.433 34.9244C19.1798 34.9244 18.1644 33.5818 18.1644 31.9278C18.1644 30.2738 19.1798 28.9312 20.433 28.9312ZM20.433 28.5264C18.9526 28.5264 17.749 30.0523 17.749 31.9243C17.749 33.7998 18.9526 35.3223 20.433 35.3223C21.9135 35.3223 23.1171 33.7964 23.1171 31.9243C23.1135 30.0523 21.91 28.5264 20.433 28.5264Z" fill="#D3B096"/>
<path id="Vector_7" d="M20.4323 29.416C19.3246 29.416 18.4229 30.5406 18.4229 31.9282C18.4229 33.3123 19.3246 34.4403 20.4323 34.4403C21.54 34.4403 22.4418 33.3157 22.4418 31.9282C22.4382 30.5406 21.54 29.416 20.4323 29.416ZM20.4323 29.8139C21.3163 29.8139 22.0335 30.7586 22.0335 31.9282C22.0335 32.2396 21.9802 32.5372 21.8879 32.8071C21.611 33.1185 21.2489 33.3054 20.8548 33.3054C20.5211 33.3054 20.2086 33.1704 19.953 32.9351C20.4962 33.0666 21.3092 33.1116 21.6856 32.3745C21.6856 32.3745 19.3814 32.8036 19.2749 30.8832C19.2962 30.6825 19.3388 30.4922 19.4027 30.3157C19.3601 30.3607 19.3211 30.4091 19.2856 30.461C19.2856 30.4645 19.282 30.4645 19.2785 30.4679C19.566 30.0631 19.9779 29.8139 20.4323 29.8139ZM21.8844 32.8071C21.8773 32.8278 21.8702 32.8521 21.8595 32.8728C21.8702 32.8486 21.8773 32.8278 21.8844 32.8071ZM21.8631 32.8694C21.8382 32.9351 21.8098 32.9974 21.7814 33.0597C21.8098 33.0009 21.8382 32.9351 21.8631 32.8694ZM19.2749 30.4679C19.2572 30.4956 19.2394 30.5198 19.2217 30.5475C19.2359 30.5198 19.2536 30.4922 19.2749 30.4679ZM18.9518 31.1219C19.0051 30.9489 19.0797 30.7863 19.1649 30.6375C19.0761 30.7828 19.0051 30.9455 18.9518 31.1219ZM19.1649 30.634C19.1826 30.6063 19.2004 30.5787 19.2181 30.551C19.2004 30.5787 19.1826 30.6063 19.1649 30.634ZM18.8347 31.8105C18.8347 31.8486 18.8311 31.8866 18.8311 31.9247C18.8311 31.8866 18.8311 31.8486 18.8347 31.8105ZM18.9447 31.1392C18.9376 31.1669 18.927 31.1946 18.9199 31.2223C18.9305 31.1946 18.9376 31.1669 18.9447 31.1392ZM18.9128 31.25C18.9057 31.2742 18.9021 31.2984 18.895 31.3261C18.9021 31.3019 18.9092 31.2776 18.9128 31.25ZM18.8879 31.3607C18.8844 31.3849 18.8773 31.4091 18.8737 31.4334C18.8773 31.4091 18.8844 31.3849 18.8879 31.3607ZM18.8666 31.4714C18.8631 31.4956 18.8595 31.5199 18.856 31.5406C18.8595 31.5199 18.8631 31.4956 18.8666 31.4714ZM18.8524 31.5856C18.8489 31.6098 18.8453 31.634 18.8453 31.6583C18.8453 31.6306 18.8489 31.6064 18.8524 31.5856ZM18.8418 31.6963C18.8382 31.7206 18.8382 31.7482 18.8382 31.7759C18.8347 31.7482 18.8382 31.724 18.8418 31.6963ZM20.8335 33.9697C20.8264 33.9732 20.8228 33.9732 20.8157 33.9767C20.8228 33.9732 20.8299 33.9732 20.8335 33.9697ZM20.766 33.9905C20.7589 33.994 20.7518 33.994 20.7447 33.9974C20.7483 33.9974 20.7589 33.994 20.766 33.9905ZM20.6844 34.0113C20.6808 34.0113 20.6773 34.0147 20.6702 34.0147C20.6773 34.0147 20.6808 34.0113 20.6844 34.0113ZM20.5992 34.0251C20.5921 34.0251 20.585 34.0251 20.5814 34.0286C20.5885 34.0286 20.5956 34.0286 20.5992 34.0251ZM20.5246 34.0355C20.5175 34.0355 20.5104 34.0355 20.5033 34.0355C20.5104 34.0355 20.5175 34.0355 20.5246 34.0355ZM21.366 33.6375C21.3767 33.6272 21.3873 33.6168 21.3944 33.6099C21.3873 33.6202 21.3767 33.6272 21.366 33.6375ZM20.901 33.9455C20.9081 33.942 20.9152 33.9386 20.9223 33.9386C20.9152 33.9386 20.9081 33.942 20.901 33.9455ZM20.9684 33.9144C20.9755 33.9109 20.9826 33.9074 20.9933 33.904C20.9826 33.9074 20.9755 33.9109 20.9684 33.9144ZM21.0394 33.8798C21.0465 33.8763 21.0501 33.8728 21.0572 33.8694C21.0501 33.8728 21.0465 33.8763 21.0394 33.8798ZM21.114 33.8348C21.1211 33.8279 21.1317 33.8244 21.1388 33.8175C21.1317 33.8244 21.1246 33.8313 21.114 33.8348ZM21.1779 33.7933C21.185 33.7863 21.1956 33.7794 21.2027 33.776C21.1956 33.7829 21.185 33.7898 21.1779 33.7933ZM21.2418 33.7448C21.256 33.7344 21.2666 33.7241 21.2808 33.7137C21.2702 33.7241 21.256 33.7344 21.2418 33.7448ZM21.3128 33.6894C21.3234 33.6825 21.3341 33.6721 21.3412 33.6618C21.3341 33.6721 21.3234 33.6791 21.3128 33.6894ZM21.5365 33.4507C21.572 33.4057 21.6075 33.3607 21.6394 33.3088C21.6039 33.3607 21.572 33.4057 21.5365 33.4507ZM21.4157 33.5891C21.4335 33.5683 21.4548 33.5476 21.4726 33.5268C21.4548 33.5476 21.437 33.5683 21.4157 33.5891ZM21.4903 33.5061C21.501 33.4922 21.5116 33.4818 21.5223 33.468C21.5116 33.4818 21.501 33.4957 21.4903 33.5061ZM21.7743 33.0701C21.7459 33.1289 21.714 33.1877 21.6785 33.2431C21.714 33.1877 21.7459 33.1289 21.7743 33.0701ZM21.6785 33.2465C21.6678 33.2638 21.6572 33.2811 21.6465 33.2984C21.6572 33.2811 21.6678 33.2638 21.6785 33.2465Z" fill="#D3B096"/>
<path id="Vector_8" d="M49.2321 29.4814C48.1244 29.4814 47.2227 30.606 47.2227 31.9936C47.2227 33.3777 48.1244 34.5058 49.2321 34.5058C50.3398 34.5058 51.2416 33.3812 51.2416 31.9936C51.2416 30.6095 50.3398 29.4814 49.2321 29.4814ZM49.2321 29.8794C49.8179 29.8794 50.3292 30.2946 50.6096 30.914C50.528 30.7514 50.425 30.6026 50.3114 30.4745C50.3718 30.651 50.4144 30.8413 50.4392 31.0386C50.3327 32.9625 48.0286 32.5334 48.0286 32.5334C48.4049 33.2704 49.2215 33.2255 49.7611 33.094C49.5055 33.3258 49.1931 33.4642 48.8558 33.4642C48.4617 33.4642 48.1031 33.2774 47.8227 32.9659C47.8475 33.0421 47.8795 33.1113 47.9114 33.1839C47.7339 32.8448 47.6309 32.4331 47.6309 31.9936C47.6345 30.824 48.3481 29.8794 49.2321 29.8794Z" fill="#D3B096"/>
<path id="Vector_9" d="M20.433 28.1701C20.433 28.1701 23.5359 28.1632 23.5359 32.1737C23.5359 32.1737 23.4117 35.4402 20.3584 35.6062C20.3584 35.6062 28.0696 35.2741 28.3679 35.2741C28.3679 35.2741 25.7229 34.717 24.6152 33.5785C24.6152 33.5785 26.0779 34.2014 27.2673 34.0353C27.2673 34.0353 25.1797 33.1183 24.4874 31.9245C24.4874 31.9245 25.4034 32.3847 25.9537 32.4228C25.9537 32.4228 24.7679 31.3501 24.0045 30.1079C23.2377 28.8726 22.1193 27.8795 20.433 28.1701Z" fill="#D3B096"/>
<path id="Vector_10" d="M28.5023 30.25C27.6467 30.25 26.9473 30.9282 26.9473 31.7656C26.9473 32.5995 27.6431 33.2812 28.5023 33.2812C29.3579 33.2812 30.0573 32.603 30.0573 31.7656C30.0573 30.9317 29.3579 30.25 28.5023 30.25ZM28.5023 33.0424C27.778 33.0424 27.1922 32.4715 27.1922 31.7656C27.1922 31.468 27.2987 31.1947 27.4727 30.9767C27.4088 31.0562 27.352 31.1462 27.3094 31.2396C27.3165 31.2915 27.3271 31.34 27.3413 31.3884C27.3342 31.4403 27.3307 31.4922 27.3307 31.5441C27.3307 32.2154 27.8881 32.7587 28.5769 32.7587C29.1094 32.7587 29.5603 32.4334 29.7413 31.9767C29.5177 32.1843 29.2159 32.3123 28.8822 32.3123C28.8005 32.3123 28.7224 32.3054 28.6479 32.2916C29.1342 32.2535 29.5425 31.9421 29.7094 31.513C29.4857 31.7206 29.1839 31.8486 28.8502 31.8486C28.2715 31.8486 27.7851 31.4646 27.6467 30.9455C27.6538 30.8867 27.6644 30.8313 27.6822 30.776C27.9058 30.5995 28.1934 30.4922 28.5058 30.4922C29.2301 30.4922 29.8159 31.0632 29.8159 31.7691C29.8124 32.4715 29.2266 33.0424 28.5023 33.0424Z" fill="#D3B096"/>
<path id="Vector_11" d="M11.5463 35.7031L16.0623 34.6511C16.0623 34.6511 12.7818 34.5889 11.3439 34.9418C12.0859 34.7411 14.951 33.9937 15.9984 34.0387C15.9984 34.0387 13.3285 33.8103 11.3581 34.1044L14.0457 33.6165C14.2694 33.7376 14.525 33.8068 14.7984 33.8068C15.654 33.8068 16.3534 33.1286 16.3534 32.2912C16.3534 31.4573 15.6575 30.7756 14.7984 30.7756C14.0528 30.7756 13.4279 31.2912 13.2788 31.9764C12.7818 31.9487 11.5214 31.8933 10.783 31.9902L13.1404 31.4435C13.1404 31.4435 10.2859 31.3604 9.8457 29.876V36.7169C9.8457 36.7169 12.7356 36.0145 17.138 35.4782C17.1345 35.4816 13.6445 35.2083 11.5463 35.7031ZM16.1049 32.2947C16.1049 33.0006 15.5191 33.5715 14.7948 33.5715C14.6919 33.5715 14.5924 33.5612 14.493 33.5369L15.0788 33.4297C15.0788 33.4297 14.6848 33.4054 14.1132 33.3847C13.9001 33.2567 13.7226 33.0698 13.6126 32.8483L13.8646 32.7964C14.0919 33.094 14.454 33.2843 14.8623 33.2843C15.3948 33.2843 15.8457 32.9591 16.0268 32.5023C15.8031 32.7099 15.5013 32.838 15.1676 32.838C15.0859 32.838 15.0078 32.831 14.9333 32.8172C15.4197 32.7791 15.8279 32.4677 15.9948 32.0386C15.7711 32.2463 15.4694 32.3743 15.1356 32.3743C14.5569 32.3743 14.0741 31.9902 13.9321 31.4712C13.9392 31.4123 13.9498 31.357 13.9676 31.3016C14.1913 31.1251 14.4788 31.0179 14.7913 31.0179C15.5191 31.0179 16.1049 31.5888 16.1049 32.2947ZM13.7688 31.5023C13.7688 31.5058 13.7688 31.5058 13.7688 31.5023C13.7049 31.5853 13.6481 31.6719 13.6055 31.7653C13.6126 31.8172 13.6232 31.8656 13.6339 31.9141C13.6268 31.966 13.6232 32.0179 13.6232 32.0698C13.6232 32.3362 13.712 32.5854 13.8646 32.7861C13.8149 32.7826 13.7191 32.7791 13.5842 32.7722C13.5203 32.6234 13.4883 32.4608 13.4883 32.2912C13.4883 31.9937 13.5913 31.7203 13.7688 31.5023ZM13.2611 32.0594C13.2504 32.1355 13.2433 32.2151 13.2433 32.2947C13.2433 32.4573 13.2717 32.6165 13.3214 32.7653C12.6078 32.7376 11.4114 32.7099 10.7794 32.793L13.2611 32.0594ZM13.3711 32.8968C13.4493 33.0733 13.5629 33.2359 13.7049 33.3708C12.7995 33.3466 11.628 33.3397 10.7794 33.4297L13.3711 32.8968Z" fill="#D3B096"/>
<path id="Vector_12" d="M42.391 30.4121C41.5353 30.4121 40.8359 31.0903 40.8359 31.9277C40.8359 32.7616 41.5318 33.4433 42.391 33.4433C43.2466 33.4433 43.946 32.7651 43.946 31.9277C43.946 31.0903 43.2466 30.4121 42.391 30.4121ZM41.3614 31.1353C41.3507 31.1491 41.3401 31.1595 41.333 31.1734C41.3436 31.163 41.3507 31.1491 41.3614 31.1353ZM41.3294 31.1803C41.3188 31.1976 41.3081 31.2114 41.2939 31.2287C41.3046 31.2114 41.3152 31.1976 41.3294 31.1803ZM42.391 33.2011C41.6667 33.2011 41.0809 32.6301 41.0809 31.9242C41.0809 31.6924 41.1448 31.471 41.2584 31.2841C41.2371 31.3222 41.2158 31.3602 41.1981 31.3983C41.2052 31.4502 41.2158 31.4986 41.2265 31.5471C41.2194 31.599 41.2158 31.6509 41.2158 31.7028C41.2158 32.3741 41.7732 32.9173 42.462 32.9173C42.9945 32.9173 43.4454 32.5921 43.6265 32.1353C43.4028 32.3429 43.101 32.471 42.7673 32.471C42.6856 32.471 42.6075 32.464 42.533 32.4502C43.0194 32.4121 43.4277 32.1007 43.5945 31.6716C43.3708 31.8793 43.0691 32.0073 42.7353 32.0073C42.1566 32.0073 41.6703 31.6232 41.5318 31.1007C41.5389 31.0419 41.5495 30.9865 41.5673 30.9311C41.791 30.7547 42.0785 30.6474 42.391 30.6474C43.1152 30.6474 43.701 31.2184 43.701 31.9242C43.701 32.6301 43.1152 33.2011 42.391 33.2011ZM41.2904 31.2322C41.2797 31.2495 41.2691 31.2668 41.2584 31.2841C41.2691 31.2668 41.2797 31.2495 41.2904 31.2322Z" fill="#D3B096"/>
<path id="Vector_13" d="M56.4009 31.4474L58.7583 31.9941C58.2045 31.9214 57.3595 31.9353 56.7595 31.956C56.4862 31.527 55.9962 31.2432 55.4424 31.2432C54.5867 31.2432 53.8873 31.9214 53.8873 32.7588C53.8873 33.2606 54.1394 33.7035 54.5228 33.9803C53.9299 34.0045 53.5394 34.0391 53.5394 34.0391C53.8625 34.0253 54.3631 34.0876 54.9169 34.1845C55.0625 34.2364 55.2187 34.2675 55.382 34.271C56.5146 34.4959 57.743 34.8177 58.1938 34.9388C56.756 34.5893 53.4755 34.6481 53.4755 34.6481L57.9915 35.7001C55.8933 35.2052 52.4033 35.4786 52.4033 35.4786C56.8057 36.0149 59.6956 36.7174 59.6956 36.7174V29.8799C59.2518 31.3609 56.4009 31.4474 56.4009 31.4474ZM56.4684 31.9699C56.2128 31.9837 56.0459 31.9941 56.0459 31.9941L56.5927 32.1533C56.6921 32.3298 56.7453 32.5304 56.7489 32.745C56.6672 32.7484 56.5856 32.7484 56.511 32.7519C56.5643 32.6758 56.6104 32.5893 56.6459 32.5028C56.5252 32.617 56.3796 32.7035 56.2199 32.7623C55.872 32.7761 55.6412 32.79 55.6412 32.79L55.8649 32.835C55.84 32.835 55.8152 32.8384 55.7868 32.8384C55.2081 32.8384 54.7252 32.4543 54.5832 31.9353C54.5903 31.8765 54.601 31.8211 54.6187 31.7657C54.8424 31.5893 55.1299 31.482 55.4424 31.482C55.8578 31.482 56.227 31.6723 56.4684 31.9699ZM54.4128 31.9699C54.4021 31.9837 54.3915 31.9941 54.3844 32.0079C54.3915 31.9941 54.4021 31.9803 54.4128 31.9699ZM56.3512 32.9388L56.6424 32.9976C56.4223 33.1879 56.1347 33.3055 55.8152 33.3055C55.7335 33.3055 55.6554 33.2986 55.5808 33.2848C55.8826 33.2571 56.1489 33.1325 56.3512 32.9388ZM56.4258 33.3575C56.5252 33.2536 56.6033 33.1325 56.6601 33.001L56.724 33.0149C56.6992 33.136 56.6566 33.2502 56.5962 33.3575C56.5394 33.3575 56.4826 33.3575 56.4258 33.3575ZM54.3773 32.0149C54.3666 32.0287 54.356 32.046 54.3453 32.0599C54.356 32.046 54.3666 32.0287 54.3773 32.0149ZM54.3418 32.0668C54.3311 32.0841 54.3205 32.0979 54.3098 32.1152C54.3205 32.0979 54.3311 32.0806 54.3418 32.0668ZM54.3063 32.1187C54.2956 32.136 54.285 32.1533 54.2779 32.1706C54.285 32.1533 54.2956 32.136 54.3063 32.1187ZM54.2743 32.1775C54.2637 32.1948 54.2566 32.2121 54.2459 32.2329C54.2566 32.2121 54.2672 32.1948 54.2743 32.1775ZM54.1323 32.7588C54.1323 32.572 54.1749 32.3955 54.2495 32.2329C54.2566 32.2848 54.2672 32.3332 54.2779 32.3817C54.2708 32.4336 54.2672 32.4855 54.2672 32.5374C54.2672 32.8834 54.4163 33.1983 54.6578 33.4197C54.5264 33.4267 54.4518 33.4301 54.4518 33.4301L54.7288 33.4786C54.9418 33.6481 55.2152 33.7485 55.5134 33.7485C55.6483 33.7485 55.7761 33.7277 55.8968 33.6896L56.2554 33.7554C56.1489 33.8384 56.0282 33.9076 55.8968 33.9526C55.5844 33.9492 55.2862 33.9561 55.0128 33.963C54.498 33.79 54.1323 33.3159 54.1323 32.7588ZM56.3832 33.963C56.4436 33.918 56.5039 33.8661 56.5572 33.8107L58.1796 34.1049C57.6116 34.0184 56.9867 33.9768 56.3832 33.963ZM56.8696 33.354C56.9122 33.2606 56.9441 33.1637 56.9654 33.0599L58.7583 33.4267C58.208 33.3713 57.5264 33.354 56.8696 33.354ZM56.9939 32.7415C56.9903 32.5685 56.9583 32.399 56.9015 32.2467L58.7548 32.7934C58.3217 32.7346 57.6223 32.7277 56.9939 32.7415Z" fill="#D3B096"/>
</g>
<path id="Vector_14" d="M69.6536 5.95166C69.5826 5.92398 69.508 5.90668 69.4335 5.90668C69.2346 5.90668 69.0394 6.01049 68.9364 6.19042C68.3613 7.19044 66.6713 8.87213 65.3009 10.0175C64.5234 10.668 63.863 11.6369 63.4015 12.713C63.4583 11.8376 63.8098 10.9241 64.2784 10.4881C64.4879 10.2943 64.5163 9.97941 64.3423 9.7545C64.2323 9.61263 64.0619 9.53304 63.8879 9.53304C63.7885 9.53304 63.6891 9.55726 63.6003 9.60917C63.5187 9.65761 61.566 10.7787 60.6607 11.9206C60.1459 12.5677 57.6571 15.9103 59.3009 18.0142C59.908 18.7927 60.7033 19.0938 61.3423 19.3325C61.3885 19.3498 61.4311 19.3671 61.4701 19.381C61.2962 19.5194 61.1613 19.7166 61.0867 19.9519C60.9092 20.5229 61.1577 21.1284 61.6477 21.336C60.6997 21.6613 59.0275 22.1353 57.3341 22.1388C55.1897 22.125 53.4145 21.3083 51.8773 17.6024L52.3139 17.6508C52.3636 17.6543 52.4098 17.6578 52.4595 17.6578C53.1305 17.6578 53.6915 17.1664 53.7625 16.5193C53.8157 16.0591 53.6063 15.6266 53.2548 15.3636C54.3447 14.7615 55.0796 13.6196 55.0796 12.3151C55.0796 10.3808 53.4642 8.80984 51.4832 8.80984C49.4986 8.80984 47.8832 10.3843 47.8832 12.3151C47.8832 13.3463 48.3412 14.2771 49.0725 14.9172C48.6713 15.1006 48.3767 15.4778 48.3234 15.9345C48.2489 16.5816 48.6891 17.1699 49.321 17.3186C48.3589 18.3221 46.9281 19.4363 44.8654 19.855C44.1696 19.9969 43.353 20.1422 42.5364 20.1422C40.8287 20.1422 38.5708 19.5851 35.9471 15.4847H36.2666C36.9909 15.4847 37.5802 14.9103 37.5802 14.2044C37.5802 13.5746 37.1116 13.0487 36.4938 12.9449C36.5897 12.9345 36.7104 12.9276 36.8631 12.9276C36.9731 12.9276 37.0867 12.931 37.2039 12.9345C37.3388 12.9379 37.4773 12.9414 37.6193 12.9414C38.1518 12.9414 38.8512 12.8999 39.5435 12.5781C41.3897 11.7165 41.3293 9.2493 40.7151 7.39459C40.3282 6.22156 38.9648 4.74057 38.908 4.67828C38.8051 4.56755 38.6666 4.51219 38.5246 4.51219C38.4216 4.51219 38.3187 4.54333 38.2299 4.60216C38.0169 4.74749 37.9459 5.02777 38.0702 5.25269C38.3187 5.70944 38.2761 6.5053 37.9708 7.18698C37.9175 7.30117 37.8607 7.40844 37.8003 7.50186C37.8607 6.4015 37.6335 5.30459 37.1151 4.46721C36.3092 3.16615 35.4287 1.36681 35.2974 0.435994C35.2619 0.186855 35.0418 0 34.7861 0C34.527 0 34.3069 0.186855 34.2714 0.435994C34.14 1.36681 33.256 3.16961 32.4536 4.46721C31.9566 5.26999 31.7293 6.31499 31.7648 7.37037C31.7329 7.31155 31.7045 7.25272 31.6725 7.19044C31.3672 6.50877 31.3246 5.7129 31.5731 5.25615C31.6938 5.03123 31.6264 4.75095 31.4134 4.60562C31.3246 4.54333 31.2217 4.51565 31.1151 4.51565C30.9731 4.51565 30.8311 4.57101 30.7317 4.68174C30.6749 4.74403 29.3116 6.22502 28.9246 7.39805C28.3104 9.2493 28.2501 11.7199 30.0962 12.5815C30.7885 12.9033 31.4879 12.9449 32.0205 12.9449C32.1625 12.9449 32.3009 12.9414 32.4359 12.9379C32.553 12.9345 32.6666 12.931 32.7767 12.931C32.9435 12.931 33.0749 12.9379 33.1743 12.9518C32.5708 13.066 32.1092 13.585 32.1092 14.2079C32.1092 14.9138 32.6986 15.4882 33.4228 15.4882H33.6927C31.6228 18.7443 29.4856 20.3325 27.1921 20.3325C26.4714 20.3325 25.7009 20.1837 24.8453 19.8792C23.166 19.2841 21.6572 18.2079 20.6453 17.3394C21.3305 17.2321 21.8169 16.6127 21.7388 15.9345C21.6927 15.5193 21.4477 15.1698 21.0998 14.9726C21.8666 14.329 22.353 13.3774 22.353 12.3151C22.353 10.3808 20.7376 8.80984 18.7566 8.80984C16.7755 8.80984 15.1637 10.3843 15.1637 12.3186C15.1637 13.585 15.856 14.6992 16.8927 15.3151C16.4915 15.5712 16.2501 16.0314 16.3069 16.5262C16.3814 17.1768 16.9424 17.6647 17.6098 17.6647C17.6595 17.6647 17.7092 17.6612 17.7554 17.6578L18.2844 17.6024C17.0879 21.5748 14.4962 22.1353 12.3128 22.1457C10.7294 22.1423 9.16723 21.727 8.19445 21.4087L8.34712 21.3464C8.84061 21.1422 9.08913 20.5332 8.91161 19.9588C8.83706 19.7235 8.70214 19.5263 8.52818 19.3879C8.57078 19.3706 8.60984 19.3567 8.65599 19.3394C9.29504 19.0972 10.0903 18.7996 10.6974 18.0211C12.3412 15.9172 9.85244 12.5781 9.33765 11.9275C8.43232 10.7857 6.47966 9.66453 6.39801 9.61609C6.30925 9.56418 6.20984 9.53996 6.11043 9.53996C5.93647 9.53996 5.76605 9.61609 5.65599 9.76142C5.48203 9.98634 5.51043 10.3012 5.7199 10.495C6.19209 10.931 6.54357 11.8445 6.59682 12.7199C6.13528 11.6403 5.47493 10.6715 4.69741 10.0244C3.327 8.87559 1.64061 7.19044 1.06546 6.19388C0.962506 6.01395 0.770791 5.91014 0.568424 5.91014C0.493868 5.91014 0.419312 5.92398 0.348306 5.95512C0.0820338 6.06239 -0.0564276 6.34959 0.0216788 6.61949C0.0536314 6.71984 0.0820338 6.83749 0.106886 6.97244C0.113986 7.00704 0.124637 7.04165 0.138838 7.07625L5.71635 20.0246L5.52818 20.1042C5.03469 20.3083 4.78617 20.9173 4.96369 21.4917C5.10925 21.9589 5.49978 22.2738 5.94002 22.2738C6.06073 22.2738 6.17789 22.2495 6.28795 22.2045L6.61102 22.0696L7.47729 25.1596L8.19445 27.7168C8.06664 28.0213 7.91753 28.5645 8.04889 29.2739V29.2773L8.06664 29.35C8.1341 29.6718 8.26191 30.0213 8.47138 30.4019C8.47138 30.4054 8.47493 30.4054 8.47493 30.4088C8.49978 30.4538 8.52818 30.5023 8.55658 30.5507L8.55303 31.5576C7.56605 31.7134 6.79919 32.7687 6.79919 34.0456C6.79919 35.3293 7.57315 36.3882 8.56723 36.537V37.7896C8.1483 38.0595 7.85362 38.409 7.85362 38.8692C7.85362 39.8796 9.25954 40.3537 10.3175 40.6201C11.6276 40.9523 13.5625 41.2222 16.0761 41.4263C20.411 41.7793 26.5495 41.9488 34.8323 41.9488C43.1187 41.9488 49.2536 41.7793 53.5885 41.4263C56.1021 41.2222 58.037 40.9523 59.3471 40.6201C60.4051 40.3537 61.811 39.8831 61.811 38.8692C61.811 38.3329 61.4133 37.9453 60.8843 37.665C60.9554 37.6858 61.0264 37.7065 61.0974 37.7308V36.3813C61.8394 36.011 62.3648 35.1044 62.3648 34.049C62.3648 32.9937 61.8429 32.0905 61.1045 31.7203V30.3016C61.1293 30.2635 61.1506 30.222 61.1719 30.1839C61.1755 30.177 61.1826 30.1666 61.1861 30.1597C61.2074 30.1216 61.2287 30.0836 61.25 30.0455C61.25 30.0421 61.2536 30.0386 61.2536 30.0351C61.2713 30.0005 61.2891 29.9625 61.3068 29.9279C61.3104 29.9209 61.3139 29.9106 61.3175 29.9036C61.3352 29.869 61.353 29.831 61.3672 29.7964C61.3707 29.786 61.3778 29.7756 61.3814 29.7652C61.392 29.7375 61.4027 29.7099 61.4169 29.6856C61.424 29.6683 61.4311 29.6476 61.4382 29.6303C61.4453 29.6095 61.4559 29.5853 61.463 29.5645C61.4701 29.5438 61.4772 29.5265 61.4844 29.5057C61.4879 29.4988 61.4879 29.4919 61.4915 29.4849C61.5057 29.4434 61.5199 29.4019 61.5305 29.3569C61.5376 29.3327 61.5447 29.305 61.5518 29.2808L61.5909 29.1355L61.5873 29.1285C61.7222 28.4849 61.5909 28.0109 61.4524 27.7237L62.1696 25.1735L63.0749 21.9519L63.7104 22.2149C63.8204 22.2599 63.9376 22.2841 64.0583 22.2841C64.4986 22.2841 64.8891 21.9692 65.0346 21.5021C65.2122 20.9312 64.9636 20.3222 64.4701 20.1145L64.282 20.035L69.8595 7.08663C69.8737 7.05203 69.8843 7.01743 69.8914 6.98282C69.9198 6.85133 69.9482 6.73022 69.9767 6.63334C70.0583 6.34959 69.9198 6.06239 69.6536 5.95166ZM63.295 14.3913C64.7116 15.5608 64.0761 18.3498 63.6394 19.7547L63.6003 19.7374C63.6713 19.3567 63.7068 19.0038 63.7068 18.6751C63.7068 17.8031 63.4725 17.1249 63.1849 16.5954C62.8974 16.066 62.5565 15.6819 62.3577 15.3913C62.1341 15.0729 61.9423 14.7511 61.8749 14.3878C61.85 14.2667 61.8394 14.1352 61.8394 14.0037C61.8394 13.502 62.0027 12.9449 62.2441 12.4673C62.4962 11.9587 62.8441 11.4743 63.2417 11.0521C62.7057 12.2424 62.6559 13.8618 63.295 14.3913ZM59.7554 17.6854C58.5696 16.1664 60.0784 13.5677 61.1116 12.2667C61.4773 11.803 62.0488 11.3358 62.5743 10.9518C62.2441 11.3428 61.953 11.7718 61.7258 12.2251C61.7151 12.2494 61.7045 12.2701 61.6938 12.2943C60.9305 13.111 59.9116 14.4605 60.0429 15.7131C60.2275 17.4709 62.8441 17.8757 62.8867 19.4398L62.4323 19.2495C61.8465 18.772 60.5684 18.727 59.7554 17.6854ZM57.3376 22.6509C59.4252 22.644 61.4524 21.9692 62.2761 21.6578C60.1459 23.6198 57.7423 24.6025 55.7506 25.0869C54.65 24.779 50.8512 23.7098 50.3613 23.4987C49.7897 23.2495 53.9861 24.0558 53.9861 24.0558C53.9861 24.0558 51.121 22.7547 50.837 22.6924C50.553 22.6302 54.4548 23.125 54.4548 23.125C54.4548 23.125 50.7376 22.1353 50.837 21.9485C50.9364 21.7616 53.3293 22.0731 53.3293 22.0731L51.0536 20.9519L53.1376 21.2045C53.1376 21.2045 51.0855 19.2322 51.5648 18.1699C53.0986 21.6405 54.9696 22.6371 57.3376 22.6509ZM51.2986 17.5505C51.3021 17.5574 51.3021 17.5609 51.3057 17.5678C51.3021 17.5609 51.3021 17.5539 51.2986 17.5505ZM54.121 10.8583C54.0784 10.7857 54.0323 10.713 53.9826 10.6438C54.0287 10.713 54.0749 10.7857 54.121 10.8583ZM48.4548 12.3186C48.4548 10.6888 49.811 9.36349 51.4867 9.36349C52.211 9.36349 52.8713 9.60917 53.3932 10.0209C53.4287 10.149 53.4571 10.277 53.4749 10.4119C53.1518 11.6161 52.0264 12.5054 50.6879 12.5054C49.9175 12.5054 49.2181 12.2078 48.6997 11.7269C49.0867 12.7165 50.0311 13.4397 51.1601 13.5262C50.9826 13.5573 50.8015 13.5781 50.6169 13.5781C49.8465 13.5781 49.1471 13.2805 48.6287 12.7995C49.0406 13.8584 50.0915 14.6093 51.3234 14.6093C52.9139 14.6093 54.2062 13.3532 54.2062 11.7995C54.2062 11.6784 54.1956 11.5573 54.1814 11.4396C54.2098 11.3289 54.2346 11.2147 54.2524 11.0971C54.4264 11.4673 54.5222 11.8791 54.5222 12.3116C54.5222 13.5954 53.6808 14.6888 52.5057 15.0937L49.8784 14.8099C49.0228 14.2978 48.4548 13.3739 48.4548 12.3186ZM49.6335 15.4293C49.6583 15.4293 49.6832 15.4293 49.708 15.4328L52.5341 15.7373C52.811 15.7684 53.0275 15.9588 53.1021 16.201L49.0477 15.765C49.1648 15.5608 49.3885 15.4293 49.6335 15.4293ZM48.9944 16.2667L53.0489 16.7027C52.9317 16.9069 52.7116 17.0384 52.4631 17.0384C52.4382 17.0384 52.4133 17.0384 52.3885 17.0349L49.5625 16.7304C49.2855 16.6993 49.069 16.5124 48.9944 16.2667ZM36.2737 14.8653H34.9743C35.3116 14.8307 35.6666 14.7131 36.0252 14.4639H36.8915C36.7885 14.6992 36.5506 14.8653 36.2737 14.8653ZM40.2323 7.55377C40.669 8.87213 41.0276 11.3324 39.3305 12.1248C38.7518 12.3947 38.1625 12.4397 37.6299 12.4397C37.3601 12.4397 37.108 12.4293 36.8737 12.4293C36.3163 12.4293 35.8832 12.495 35.6702 12.931H35.6027C35.94 11.3082 38.8903 12.0279 39.8311 10.6334C40.5057 9.63339 39.9625 8.11433 39.5648 7.27695C39.4867 6.78213 39.3376 6.30115 39.1921 5.89976C39.1708 5.83747 39.1459 5.77519 39.1246 5.71636C39.5293 6.2354 40.0335 6.94822 40.2323 7.55377ZM38.7483 6.19042C38.9364 6.7233 39.1069 7.37729 39.1069 7.94824C39.1069 8.22506 39.0678 8.47766 38.979 8.68874C38.8903 8.89981 38.7625 9.06936 38.5637 9.20085C38.1944 9.44307 37.8074 9.61609 37.4169 9.78218C36.8347 10.0313 36.2418 10.2597 35.7625 10.7268C35.5211 10.9621 35.3151 11.2528 35.1589 11.623C35.1483 11.6507 35.1341 11.6784 35.1234 11.7095C35.1199 11.6922 35.1163 11.6715 35.1128 11.6542V11.4708C35.4039 10.2701 36.0287 8.84099 37.3743 8.49496C38.1128 8.30464 38.6844 7.2112 38.7483 6.19042ZM36.6785 4.72673C37.2039 5.57449 37.4134 6.80289 37.243 8.00706C36.1992 8.2735 35.5317 9.05552 35.1057 9.93789L35.056 1.47753C35.411 2.47063 36.0572 3.72671 36.6785 4.72673ZM32.9009 4.72673C33.5258 3.71287 34.179 2.44295 34.5341 1.44293L34.5376 2.24571C34.3175 2.95853 33.9696 4.01737 33.5755 5.01739C33.0536 6.33575 33.0075 7.6818 33.0146 8.2389C32.8264 8.14201 32.624 8.06243 32.4039 8.00706C32.379 8.00014 32.3542 7.98976 32.3293 7.97938C32.1696 6.78559 32.3826 5.57103 32.9009 4.72673ZM30.9021 5.93782C30.8737 7.02089 31.4773 8.2908 32.2796 8.49496C32.8583 8.64375 33.3057 8.99324 33.6465 9.43615L33.9376 9.87561C34.2394 10.405 34.4347 11.0071 34.5589 11.5538C34.5341 11.6611 34.5128 11.7684 34.495 11.8687C34.3743 11.5677 34.2252 11.3047 34.0512 11.0798C33.5187 10.3843 32.8015 10.0348 32.1802 9.72682C31.8678 9.57456 31.5802 9.43269 31.3424 9.27006C31.1045 9.10743 30.9199 8.93441 30.7956 8.7095C30.5862 8.33579 30.508 7.94132 30.508 7.55031C30.508 6.96206 30.6998 6.37728 30.9021 5.93782ZM32.7838 12.4293C32.5495 12.4293 32.2938 12.4397 32.0276 12.4397C31.495 12.4397 30.9057 12.3947 30.327 12.1248C28.6264 11.3324 28.9885 8.87213 29.4252 7.55377C29.5885 7.05549 29.9613 6.47762 30.3163 6.00357C30.153 6.41534 30.0146 6.91362 29.9968 7.4465C29.6134 8.3081 29.1767 9.69567 29.8086 10.6334C30.7495 12.0314 33.6998 11.3082 34.037 12.931H33.9873C33.7743 12.495 33.3376 12.4293 32.7838 12.4293ZM33.4299 13.5573H36.2737C36.5506 13.5573 36.7885 13.7234 36.8915 13.9587H32.8122C32.9151 13.7234 33.153 13.5573 33.4299 13.5573ZM33.4299 14.8653C33.153 14.8653 32.9151 14.6992 32.8122 14.4639H33.3802C33.6536 14.6266 34.0654 14.8169 34.5447 14.8653H33.4299ZM15.7317 12.3186C15.7317 11.886 15.8276 11.4743 16.0015 11.104C16.0157 11.2217 16.0406 11.3358 16.0726 11.4466C16.0584 11.5642 16.0477 11.6853 16.0477 11.8064C16.0477 13.3566 17.3365 14.6162 18.9305 14.6162C20.1625 14.6162 21.2098 13.8653 21.6252 12.8065C21.1069 13.2874 20.4075 13.585 19.637 13.585C19.4524 13.585 19.2714 13.5677 19.0939 13.5331C20.2228 13.4466 21.1672 12.7234 21.5542 11.7338C21.0359 12.2147 20.3365 12.5123 19.566 12.5123C18.2276 12.5123 17.1021 11.623 16.7791 10.4189C16.7968 10.2839 16.8252 10.1559 16.8607 10.0279C17.3826 9.61609 18.0465 9.37041 18.7672 9.37041C20.4394 9.37041 21.7992 10.6922 21.7992 12.3255C21.7992 13.367 21.2453 14.284 20.4075 14.8099C20.372 14.8099 20.3329 14.8134 20.2974 14.8169L17.7092 15.0972C16.5518 14.6715 15.7317 13.5885 15.7317 12.3186ZM17.5388 15.7373L20.3649 15.4328C20.3897 15.4293 20.4146 15.4293 20.4394 15.4293C20.6879 15.4293 20.9081 15.5608 21.0252 15.765L16.9708 16.201C17.0453 15.9588 17.2619 15.7684 17.5388 15.7373ZM17.6844 17.0349C17.6595 17.0384 17.6347 17.0384 17.6098 17.0384C17.3613 17.0384 17.1412 16.9034 17.0276 16.7027L21.082 16.2667C21.0075 16.5124 20.7909 16.7027 20.514 16.7304L17.6844 17.0349ZM12.3163 22.6509C14.798 22.6371 17.4643 21.8931 18.7282 17.9207C18.7246 17.9346 18.7211 17.9484 18.714 17.9623L18.8311 18.0418C18.8311 18.0418 19.5234 17.9173 19.7116 18.4121C19.9033 18.9069 20.3081 24.1146 19.0228 24.734C19.0228 24.734 28.3885 24.2392 30.2489 24.426C30.2489 24.426 22.5092 23.3741 21.682 22.6302C20.8548 21.8862 26.4501 22.7547 26.4501 22.7547L21.682 21.5817H25.3708L21.682 20.6474L24.0359 20.5851C24.0359 20.5851 21.8737 19.945 21.4299 19.6439C20.9862 19.3464 22.0299 19.374 22.0299 19.374C22.0299 19.374 21.4051 18.8412 21.1069 18.3706C22.0832 19.1111 23.3223 19.8792 24.6749 20.3602C25.4915 20.6509 26.3329 20.8412 27.1992 20.8412C29.411 20.8412 31.779 19.5851 34.3069 15.4916H34.8501L34.8607 23.99C34.8607 23.99 39.0394 24.2392 39.7388 24.2392C39.7388 24.2392 37.0867 19.4675 36.1353 16.682C36.1246 16.6647 36.1104 16.6474 36.0998 16.6301C38.3826 19.8343 40.4986 20.6543 42.54 20.6543C43.3601 20.6543 44.1731 20.5229 44.9755 20.3568C46.7684 19.9934 48.1033 19.1457 49.1009 18.2495C48.3838 20.201 46.7187 23.4433 43.3601 24.3015C43.3601 24.3015 52.0193 24.4745 55.6761 25.1008C53.9045 25.5229 52.4702 25.5575 51.8702 25.5472C45.9873 25.1042 38.8441 25.0316 34.8145 25.0316C30.6252 25.0316 23.0702 25.1112 17.0666 25.6025C15.0998 25.5056 10.9211 24.9001 7.47374 21.7097L7.49505 21.6993C8.38262 22.0281 10.3211 22.6475 12.3163 22.6509ZM8.89031 12.2667C9.92345 13.5677 11.4323 16.1629 10.2465 17.6854C9.43351 18.727 8.1554 18.772 7.5696 19.2529L7.11161 19.4433C7.15422 17.8792 9.77433 17.4744 9.95895 15.7165C10.0903 14.4639 9.07138 13.1144 8.30806 12.2978C8.29741 12.2736 8.28676 12.2528 8.27611 12.2286C8.04889 11.7753 7.75777 11.3462 7.42759 10.9552C7.95303 11.3358 8.52463 11.803 8.89031 12.2667ZM6.70688 14.3913C7.34593 13.8653 7.29623 12.2459 6.76369 11.0556C7.16132 11.4777 7.50925 11.9656 7.76132 12.4708C7.99919 12.9483 8.16605 13.5054 8.16605 14.0072C8.16605 14.1387 8.1554 14.2701 8.13055 14.3913C8.05954 14.7546 7.87138 15.0799 7.64771 15.3947C7.44889 15.6819 7.10806 16.0695 6.82049 16.5989C6.53292 17.1283 6.2986 17.8065 6.2986 18.6785C6.2986 19.0038 6.33055 19.3567 6.40511 19.7408L6.36605 19.7581C5.92227 18.3498 5.29031 15.5608 6.70688 14.3913ZM3.84534 11.021C2.39682 9.36695 0.994459 7.46034 0.994459 7.46034L1.5412 8.89289L0.664282 6.86171C0.63588 6.71984 0.600377 6.58489 0.564874 6.46378C1.17552 7.52608 2.88677 9.23892 4.32463 10.4431C5.21576 11.187 5.99682 12.4743 6.41221 13.8722C6.3838 13.9137 6.35895 13.9483 6.33055 13.9691C6.16724 14.1041 6.02522 14.2528 5.90451 14.4155C5.66309 13.8134 4.97434 12.3082 3.84534 11.021ZM5.7199 20.5332L7.77552 19.6785C7.82877 19.6578 7.88203 19.6474 7.93528 19.6474C8.09149 19.6474 8.24416 19.7374 8.34712 19.8862L5.38972 21.1146C5.38972 20.8516 5.51398 20.6163 5.7199 20.5332ZM6.10333 21.7685C6.05008 21.7893 5.99682 21.7997 5.94357 21.7997C5.78735 21.7997 5.63469 21.7097 5.53173 21.5609L8.48913 20.3325C8.48913 20.5921 8.36487 20.8274 8.15895 20.9139L6.10333 21.7685ZM7.09741 21.8654L7.16487 21.8378L9.87729 26.6718C9.33055 26.8344 8.89741 27.0143 8.59919 27.2116C8.09859 25.433 7.598 23.6475 7.09741 21.8654ZM7.21102 34.0387C7.21102 32.9867 7.79327 32.1182 8.55658 31.9556V32.1148C8.05244 32.4712 7.71161 33.1701 7.71161 33.9764C7.71161 34.7895 8.05954 35.4954 8.57078 35.8484V36.1252C7.79682 35.9695 7.21102 35.094 7.21102 34.0387ZM61.2997 38.8623C61.2997 40.9108 49.4489 41.4402 34.8323 41.4402C20.2157 41.4402 8.36487 40.9108 8.36487 38.8623C8.36487 36.8138 20.2157 36.2809 34.8323 36.2809C49.4489 36.2844 61.2997 36.8138 61.2997 38.8623ZM9.07848 31.4677V30.4019C9.07848 28.2704 20.6098 27.7168 34.8323 27.7168C49.0548 27.7168 60.5826 28.2704 60.5861 30.4019V35.2567V35.7515V37.5162C60.1849 37.3432 59.7412 37.2152 59.3471 37.1148C58.037 36.7861 56.1021 36.5128 53.5885 36.3086C49.25 35.9557 43.1151 35.7861 34.8323 35.7861C26.5459 35.7861 20.411 35.9557 16.0761 36.3086C13.5625 36.5128 11.6276 36.7827 10.3175 37.1148C9.92345 37.2152 9.47966 37.3432 9.07848 37.5162V32.5957L9.08558 31.4746L9.07848 31.4677ZM60.8417 29.6926C60.398 29.1251 59.4571 28.8067 58.6974 28.5991C57.4051 28.2496 55.5696 27.9763 53.0879 27.7583C48.8666 27.3915 42.895 27.215 34.8323 27.215C26.7696 27.215 20.798 27.3949 16.5767 27.7583C14.095 27.9728 12.2595 28.2496 10.9672 28.5991C10.1649 28.8137 9.16013 29.1597 8.75185 29.786C8.74475 29.7722 8.73765 29.7549 8.7341 29.741C8.73055 29.7341 8.73055 29.7306 8.727 29.7237C8.7199 29.7064 8.7128 29.6891 8.7057 29.6718C8.70214 29.6649 8.70214 29.6614 8.6986 29.6545C8.69149 29.6372 8.68439 29.6199 8.68084 29.6026C8.68084 29.5991 8.67729 29.5922 8.67729 29.5888C8.67019 29.5715 8.66664 29.5542 8.65954 29.5369C8.65954 29.5334 8.65599 29.5299 8.65599 29.523C8.64889 29.5057 8.64534 29.4849 8.63824 29.4676C8.63824 29.4642 8.63469 29.4607 8.63469 29.4573C8.62759 29.44 8.62404 29.4192 8.61694 29.4019C8.61694 29.3984 8.61694 29.3984 8.61339 29.395C8.60629 29.3742 8.60274 29.3569 8.59919 29.3362V29.3327C8.59564 29.3119 8.58854 29.2912 8.58499 29.2704C8.65954 28.959 8.78025 28.7825 8.78025 28.7825C10.4063 27.4226 20.3045 26.606 34.8217 26.6025C49.3388 26.606 59.237 27.4226 60.863 28.7825C60.863 28.7825 60.9731 28.9002 61.0512 29.132C61.0086 29.3085 60.9412 29.4919 60.8417 29.6926ZM61.9565 34.0387C61.9565 34.8518 61.6086 35.5577 61.0974 35.9107V35.7031H61.1009V35.146V32.1701C61.6086 32.5231 61.9565 33.229 61.9565 34.0387ZM34.8217 26.1043C27.8134 26.1043 11.3862 26.3292 8.55303 28.3188C8.62404 27.9313 8.77315 27.7133 8.77315 27.7133C10.3992 26.3534 20.2974 25.5368 34.8145 25.5333C49.3317 25.5368 59.2299 26.3534 60.8559 27.7133C60.8559 27.7133 61.0512 27.9209 61.1116 28.3361C58.3565 26.3292 41.8512 26.1077 34.8217 26.1043ZM61.0512 27.2254C60.7388 27.0143 60.2701 26.824 59.6772 26.651L62.5743 21.7997C62.0701 23.606 61.5625 25.4157 61.0512 27.2254ZM64.0583 21.8032C64.0051 21.8032 63.9518 21.7928 63.8986 21.772L61.8429 20.9173C61.637 20.8308 61.5128 20.5955 61.5128 20.336L64.4701 21.5644C64.3672 21.7132 64.2145 21.8032 64.0583 21.8032ZM64.282 20.5332C64.4879 20.6197 64.6122 20.855 64.6122 21.1146L61.6548 19.8862C61.7613 19.7374 61.9139 19.6474 62.0666 19.6474C62.1199 19.6474 62.1731 19.6578 62.2264 19.6785L64.282 20.5332ZM69.334 6.86171L68.4607 8.89289L69.011 7.46034C69.011 7.46034 67.6051 9.36695 66.1565 11.021C65.0275 12.3116 64.3352 13.8134 64.0867 14.4155C63.966 14.2528 63.824 14.1041 63.6607 13.9691C63.6358 13.9483 63.6074 13.9137 63.579 13.8722C63.9944 12.4743 64.779 11.187 65.6666 10.4431C67.108 9.23892 68.8193 7.52608 69.4264 6.46378C69.3979 6.58489 69.366 6.71638 69.334 6.86171Z" fill="#D3B096"/>
</g>
</svg>
