<svg width="127" height="69" viewBox="0 0 127 69" fill="none" xmlns="http://www.w3.org/2000/svg">
<g id="Group">
<g id="Group_2">
<g id="Vector">
<path d="M102.461 46.8321C102.461 46.8321 102.473 46.8204 102.484 46.8145L102.496 46.8263C102.484 46.8263 102.473 46.8263 102.461 46.8262" fill="white"/>
<path d="M102.461 46.8321C102.461 46.8321 102.473 46.8204 102.484 46.8145L102.496 46.8263C102.484 46.8263 102.473 46.8263 102.461 46.8262" stroke="white" stroke-linejoin="round"/>
</g>
<g id="Vector_2">
<path d="M16.7158 47.3511C16.454 47.1813 16.0536 46.6027 16.3347 46.2766C16.0594 46.5969 16.0114 46.9994 15.5966 47.2144C15.9521 47.2852 16.3664 47.2219 16.663 47.4618C16.535 47.3623 15.8642 47.3842 15.7124 47.4539C15.4962 47.5526 15.5174 48.1712 15.5459 48.3638C15.8911 48.0553 16.2829 47.7527 16.7209 47.5845C16.7442 47.5787 16.7675 47.5962 16.7558 47.6079C16.4047 47.9455 16.0536 48.2599 15.6443 48.5624C15.5099 48.6613 15.2827 48.5791 15.289 48.4391C15.2901 48.1473 15.2502 47.8672 15.1812 47.5811C15.1352 47.3884 14.9087 47.137 14.9385 46.9562C14.9623 46.8046 15.2662 46.636 15.389 46.5254C15.6289 46.3101 15.8979 46.1181 16.2192 45.9612C16.3243 45.909 16.4699 45.9793 16.4637 46.0727C16.4273 46.4693 16.4606 46.9479 16.7743 47.3162C16.8033 47.3454 16.7565 47.3862 16.71 47.3569" fill="white"/>
<path d="M16.7158 47.3511C16.454 47.1813 16.0536 46.6027 16.3347 46.2766C16.0594 46.5969 16.0114 46.9994 15.5966 47.2144C15.9521 47.2852 16.3664 47.2219 16.663 47.4618C16.535 47.3623 15.8642 47.3842 15.7124 47.4539C15.4962 47.5526 15.5174 48.1712 15.5459 48.3638C15.8911 48.0553 16.2829 47.7527 16.7209 47.5845C16.7442 47.5787 16.7675 47.5962 16.7558 47.6079C16.4047 47.9455 16.0536 48.2599 15.6443 48.5624C15.5099 48.6613 15.2827 48.5791 15.289 48.4391C15.2901 48.1473 15.2502 47.8672 15.1812 47.5811C15.1352 47.3884 14.9087 47.137 14.9385 46.9562C14.9623 46.8046 15.2662 46.636 15.389 46.5254C15.6289 46.3101 15.8979 46.1181 16.2192 45.9612C16.3243 45.909 16.4699 45.9793 16.4637 46.0727C16.4273 46.4693 16.4606 46.9479 16.7743 47.3162C16.8033 47.3454 16.7565 47.3862 16.71 47.3569" stroke="white" stroke-linejoin="round"/>
</g>
<path id="Vector_3" d="M67.8897 64.8189C62.1273 66.2145 59.793 63.1533 59.793 63.1533C63.1686 65.352 67.8897 64.8189 67.8897 64.8189Z" fill="white" stroke="white" stroke-linejoin="round"/>
<g id="Vector_4">
<path d="M99.087 49.6458C99.2387 49.6345 99.3558 49.5121 99.3505 49.3603C99.3452 49.2084 99.2114 49.0972 99.0597 49.1085C98.908 49.1199 98.791 49.2422 98.7963 49.3882C98.8016 49.5342 98.9354 49.6513 99.0871 49.64M100.623 50.7236C100.623 50.7236 99.5616 50.7213 99.3718 49.9501C99.29 49.9849 99.2024 50.0081 99.1149 50.0137C99.0332 50.0194 98.9516 50.0134 98.87 49.9957C99.02 50.469 99.4432 51.2173 100.629 50.7178L100.623 50.7236ZM98.5264 48.1673C99.6934 48.0706 100.711 48.9837 102.194 50.2132C103.677 51.4427 105.303 50.2434 105.303 50.2434C104.341 51.6076 102.493 51.3058 102.493 51.3058C101.703 52.0223 100.596 51.9498 100.596 51.9498C101.407 51.6012 101.27 50.9703 101.27 50.9703C98.6406 52.2258 98.176 49.965 98.176 49.965C97.2264 49.6125 97.257 50.8914 97.257 50.8914C96.2897 48.9623 97.3537 48.2639 98.5265 48.1614L98.5264 48.1673Z" fill="white"/>
<path d="M99.087 49.6458C99.2387 49.6345 99.3558 49.5121 99.3505 49.3603C99.3452 49.2084 99.2114 49.0972 99.0597 49.1085C98.908 49.1199 98.791 49.2422 98.7963 49.3882C98.8016 49.5342 98.9354 49.6513 99.0871 49.64M100.623 50.7236C100.623 50.7236 99.5616 50.7213 99.3718 49.9501C99.29 49.9849 99.2024 50.0081 99.1149 50.0137C99.0332 50.0194 98.9516 50.0134 98.87 49.9957C99.02 50.469 99.4432 51.2173 100.629 50.7178L100.623 50.7236ZM98.5264 48.1673C99.6934 48.0706 100.711 48.9837 102.194 50.2132C103.677 51.4427 105.303 50.2434 105.303 50.2434C104.341 51.6076 102.493 51.3058 102.493 51.3058C101.703 52.0223 100.596 51.9498 100.596 51.9498C101.407 51.6012 101.27 50.9703 101.27 50.9703C98.6406 52.2258 98.176 49.965 98.176 49.965C97.2264 49.6125 97.257 50.8914 97.257 50.8914C96.2897 48.9623 97.3537 48.2639 98.5265 48.1614L98.5264 48.1673Z" stroke="white" stroke-linejoin="round"/>
</g>
<path id="Vector_5" d="M60.6761 58.8236C45.5775 64.2035 23.0547 55.6885 23.0547 55.6885C43.2537 61.4449 60.6761 58.8236 60.6761 58.8236Z" fill="white" stroke="white" stroke-linejoin="round"/>
<g id="Vector_6">
<path d="M20.0909 48.13C19.7243 47.9482 19.103 47.2641 19.4136 46.7921C19.1088 47.2583 19.1128 47.7835 18.6103 48.1267C19.0882 48.1569 19.6075 48.018 20.038 48.2757C19.8576 48.1703 18.9886 48.3026 18.8016 48.4189C18.5329 48.5876 18.67 49.3816 18.7391 49.6327C19.1312 49.1783 19.5934 48.7241 20.1365 48.4335C20.1599 48.4219 20.2007 48.4337 20.1831 48.457C19.7849 48.9521 19.3811 49.4181 18.8898 49.8723C18.7319 50.0236 18.429 49.9529 18.4063 49.7661C18.3668 49.3867 18.2573 49.0305 18.1245 48.6684C18.0321 48.4289 17.695 48.1364 17.7017 47.8913C17.7082 47.6929 18.0764 47.4194 18.2169 47.2563C18.4979 46.9359 18.8136 46.6507 19.2051 46.3889C19.3337 46.3017 19.5374 46.378 19.5428 46.4947C19.5643 47.02 19.6788 47.633 20.1553 48.0659C20.196 48.101 20.1433 48.1593 20.0793 48.1299" fill="white"/>
<path d="M20.0909 48.13C19.7243 47.9482 19.103 47.2641 19.4136 46.7921C19.1088 47.2583 19.1128 47.7835 18.6103 48.1267C19.0882 48.1569 19.6075 48.018 20.038 48.2757C19.8576 48.1703 18.9886 48.3026 18.8016 48.4189C18.5329 48.5876 18.67 49.3816 18.7391 49.6327C19.1312 49.1783 19.5934 48.7241 20.1365 48.4335C20.1599 48.4219 20.2007 48.4337 20.1831 48.457C19.7849 48.9521 19.3811 49.4181 18.8898 49.8723C18.7319 50.0236 18.429 49.9529 18.4063 49.7661C18.3668 49.3867 18.2573 49.0305 18.1245 48.6684C18.0321 48.4289 17.695 48.1364 17.7017 47.8913C17.7082 47.6929 18.0764 47.4194 18.2169 47.2563C18.4979 46.9359 18.8136 46.6507 19.2051 46.3889C19.3337 46.3017 19.5374 46.378 19.5428 46.4947C19.5643 47.02 19.6788 47.633 20.1553 48.0659C20.196 48.101 20.1433 48.1593 20.0793 48.1299" stroke="white" stroke-linejoin="round"/>
</g>
<path id="Vector_7" d="M59.6094 62.1963C65.0664 64.7541 72.2518 63.4414 72.2518 63.4414C63.5859 66.0501 59.6094 62.1963 59.6094 62.1963Z" fill="white" stroke="white" stroke-linejoin="round"/>
<g id="Vector_8">
<path d="M77.5595 49.5049C77.764 49.377 77.8927 49.2256 77.975 49.0449C77.9644 48.7239 77.9655 48.4146 77.99 48.0937C77.7261 48.5425 77.5028 49.0497 77.5537 49.4991M78.0519 52.0444C77.9138 51.5422 77.7114 51.0808 77.4741 50.6076C77.3178 50.298 76.8992 49.9703 76.8421 49.6434C76.7964 49.3749 77.1011 48.9321 77.2069 48.6814C77.4126 48.1917 77.6706 47.7371 78.0044 47.3118C78.1156 47.1662 78.3486 47.2309 78.383 47.3885C78.5379 48.0949 78.8149 48.9008 79.4136 49.3923C79.4659 49.4333 79.4247 49.5207 79.3549 49.4914C79.0056 49.3564 78.7675 49.1166 78.582 48.8303C78.5819 48.8653 78.5876 48.8945 78.5816 48.9295C78.5808 49.1629 78.5799 49.408 78.5674 49.6589C78.7485 49.5367 78.9644 49.4672 79.2151 49.4677C79.2442 49.4678 79.2441 49.5086 79.2149 49.5144C78.8007 49.6302 78.6192 49.8457 78.5484 50.1023C78.5362 50.2307 78.5183 50.359 78.5063 50.4815C78.5055 50.6857 78.5339 50.9017 78.5448 51.1118C78.8203 50.6864 79.1074 50.2786 79.4818 49.8884C79.5052 49.8652 79.5517 49.8886 79.5341 49.9177C79.2517 50.6699 78.9519 51.3811 78.5706 52.0922C78.4473 52.3253 78.1094 52.2954 78.0461 52.0502L78.0519 52.0444Z" fill="white"/>
<path d="M77.5595 49.5049C77.764 49.377 77.8927 49.2256 77.975 49.0449C77.9644 48.7239 77.9655 48.4146 77.99 48.0937C77.7261 48.5425 77.5028 49.0497 77.5537 49.4991M78.0519 52.0444C77.9138 51.5422 77.7114 51.0808 77.4741 50.6076C77.3178 50.298 76.8992 49.9703 76.8421 49.6434C76.7964 49.3749 77.1011 48.9321 77.2069 48.6814C77.4126 48.1917 77.6706 47.7371 78.0044 47.3118C78.1156 47.1662 78.3486 47.2309 78.383 47.3885C78.5379 48.0949 78.8149 48.9008 79.4136 49.3923C79.4659 49.4333 79.4247 49.5207 79.3549 49.4914C79.0056 49.3564 78.7675 49.1166 78.582 48.8303C78.5819 48.8653 78.5876 48.8945 78.5816 48.9295C78.5808 49.1629 78.5799 49.408 78.5674 49.6589C78.7485 49.5367 78.9644 49.4672 79.2151 49.4677C79.2442 49.4678 79.2441 49.5086 79.2149 49.5144C78.8007 49.6302 78.6192 49.8457 78.5484 50.1023C78.5362 50.2307 78.5183 50.359 78.5063 50.4815C78.5055 50.6857 78.5339 50.9017 78.5448 51.1118C78.8203 50.6864 79.1074 50.2786 79.4818 49.8884C79.5052 49.8652 79.5517 49.8886 79.5341 49.9177C79.2517 50.6699 78.9519 51.3811 78.5706 52.0922C78.4473 52.3253 78.1094 52.2954 78.0461 52.0502L78.0519 52.0444Z" stroke="white" stroke-linejoin="round"/>
</g>
<g id="Vector_9">
<path d="M81.4226 49.7081C81.6271 49.5919 81.7558 49.4521 81.8438 49.2947C81.8448 49.0146 81.8458 48.7345 81.8759 48.4545C81.6005 48.8565 81.3774 49.3112 81.4168 49.7081M81.8637 51.9499C81.737 51.5061 81.546 51.1031 81.3201 50.6883C81.1695 50.4195 80.7566 50.1385 80.711 49.8466C80.671 49.6073 80.9814 49.2111 81.0929 48.9896C81.3101 48.5525 81.5738 48.1504 81.9133 47.766C82.0245 47.6379 82.2517 47.685 82.2861 47.831C82.4297 48.4499 82.6896 49.1624 83.2769 49.5838C83.3234 49.6189 83.2823 49.6947 83.2125 49.6712C82.8631 49.5537 82.6306 49.349 82.4566 49.0977C82.4565 49.1268 82.4564 49.156 82.4563 49.1852C82.4556 49.3953 82.4373 49.6112 82.4249 49.827C82.6118 49.7224 82.8277 49.647 83.0726 49.6476C83.1017 49.6476 83.1016 49.6826 83.0724 49.6884C82.6582 49.7984 82.4768 49.9905 82.3944 50.2238C82.3823 50.3405 82.3644 50.4513 82.3465 50.5621C82.3459 50.743 82.3628 50.9298 82.3737 51.1224C82.6549 50.7437 82.9535 50.3767 83.3336 50.0216C83.357 49.9983 83.3977 50.0217 83.386 50.0451C83.0922 50.7155 82.781 51.3509 82.3824 51.9861C82.2534 52.1959 81.9212 52.1718 81.8578 51.9557L81.8637 51.9499Z" fill="white"/>
<path d="M81.4226 49.7081C81.6271 49.5919 81.7558 49.4521 81.8438 49.2947C81.8448 49.0146 81.8458 48.7345 81.8759 48.4545C81.6005 48.8565 81.3774 49.3112 81.4168 49.7081M81.8637 51.9499C81.737 51.5061 81.546 51.1031 81.3201 50.6883C81.1695 50.4195 80.7566 50.1385 80.711 49.8466C80.671 49.6073 80.9814 49.2111 81.0929 48.9896C81.3101 48.5525 81.5738 48.1504 81.9133 47.766C82.0245 47.6379 82.2517 47.685 82.2861 47.831C82.4297 48.4499 82.6896 49.1624 83.2769 49.5838C83.3234 49.6189 83.2823 49.6947 83.2125 49.6712C82.8631 49.5537 82.6306 49.349 82.4566 49.0977C82.4565 49.1268 82.4564 49.156 82.4563 49.1852C82.4556 49.3953 82.4373 49.6112 82.4249 49.827C82.6118 49.7224 82.8277 49.647 83.0726 49.6476C83.1017 49.6476 83.1016 49.6826 83.0724 49.6884C82.6582 49.7984 82.4768 49.9905 82.3944 50.2238C82.3823 50.3405 82.3644 50.4513 82.3465 50.5621C82.3459 50.743 82.3628 50.9298 82.3737 51.1224C82.6549 50.7437 82.9535 50.3767 83.3336 50.0216C83.357 49.9983 83.3977 50.0217 83.386 50.0451C83.0922 50.7155 82.781 51.3509 82.3824 51.9861C82.2534 52.1959 81.9212 52.1718 81.8578 51.9557L81.8637 51.9499Z" stroke="white" stroke-linejoin="round"/>
</g>
<path id="Vector_10" d="M84.6369 49.4656C84.8179 49.3727 84.9349 49.2504 85.0229 49.1047C85.0413 48.8246 85.0714 48.5505 85.119 48.2763C84.8612 48.6434 84.6325 49.0747 84.6369 49.4656ZM84.8213 51.7418C84.7529 51.2865 84.6262 50.8661 84.4762 50.4281C84.3781 50.142 84.0587 49.8145 84.0422 49.5227C84.0314 49.2834 84.3183 48.9223 84.4297 48.7124C84.6468 48.3044 84.8987 47.9315 85.2088 47.5879C85.3142 47.4715 85.5004 47.5477 85.5116 47.6936C85.5793 48.3298 85.7341 49.0596 86.187 49.5449C86.2219 49.5858 86.1867 49.6558 86.1285 49.6265C85.8493 49.4741 85.6752 49.2403 85.5479 48.9775C85.5478 49.0066 85.5477 49.03 85.5476 49.065C85.5236 49.2692 85.4995 49.485 85.4696 49.7009C85.6331 49.6137 85.8197 49.5733 86.0237 49.5971C86.047 49.5971 86.041 49.6321 86.0235 49.6379C85.6677 49.7013 85.4981 49.8702 85.4157 50.0917C85.3979 50.2025 85.3742 50.3134 85.3505 50.4242C85.3323 50.605 85.3375 50.7918 85.3252 50.9843C85.5887 50.6348 85.8638 50.3086 86.2087 50.0001C86.2263 49.9826 86.267 50.0002 86.2495 50.0294C85.95 50.6589 85.639 51.2534 85.2581 51.8419C85.135 52.0401 84.8612 51.9811 84.8271 51.7535L84.8213 51.7418Z" fill="white" stroke="white" stroke-linejoin="round"/>
<g id="Vector_11">
<path d="M24.7093 49.14C24.2378 48.9114 23.448 48.0343 23.8407 47.4341C23.4539 48.0285 23.4574 48.6937 22.8145 49.1417C23.4207 49.1838 24.0918 48.9986 24.6444 49.3324C24.4176 49.1919 23.3034 49.3645 23.0639 49.5157C22.7192 49.725 22.8963 50.7408 22.9827 51.062C23.4861 50.4795 24.0711 49.9031 24.772 49.5311C24.8071 49.5137 24.8536 49.5313 24.8302 49.5604C24.3266 50.1954 23.8056 50.7895 23.1856 51.3717C22.9809 51.558 22.5906 51.4754 22.5681 51.2361C22.5173 50.7575 22.379 50.2962 22.2057 49.8289C22.0902 49.5194 21.6601 49.1508 21.667 48.8415C21.6737 48.5848 22.1413 48.2415 22.3228 48.026C22.6799 47.6183 23.0893 47.2515 23.586 46.92C23.7555 46.8095 24.0117 46.9034 24.017 47.0551C24.0496 47.7263 24.1926 48.5086 24.797 49.0585C24.8493 49.1053 24.7791 49.1752 24.7034 49.14" fill="white"/>
<path d="M24.7093 49.14C24.2378 48.9114 23.448 48.0343 23.8407 47.4341C23.4539 48.0285 23.4574 48.6937 22.8145 49.1417C23.4207 49.1838 24.0918 48.9986 24.6444 49.3324C24.4176 49.1919 23.3034 49.3645 23.0639 49.5157C22.7192 49.725 22.8963 50.7408 22.9827 51.062C23.4861 50.4795 24.0711 49.9031 24.772 49.5311C24.8071 49.5137 24.8536 49.5313 24.8302 49.5604C24.3266 50.1954 23.8056 50.7895 23.1856 51.3717C22.9809 51.558 22.5906 51.4754 22.5681 51.2361C22.5173 50.7575 22.379 50.2962 22.2057 49.8289C22.0902 49.5194 21.6601 49.1508 21.667 48.8415C21.6737 48.5848 22.1413 48.2415 22.3228 48.026C22.6799 47.6183 23.0893 47.2515 23.586 46.92C23.7555 46.8095 24.0117 46.9034 24.017 47.0551C24.0496 47.7263 24.1926 48.5086 24.797 49.0585C24.8493 49.1053 24.7791 49.1752 24.7034 49.14" stroke="white" stroke-linejoin="round"/>
</g>
<g id="Vector_12">
<path d="M33.9974 54.4474C33.7749 54.727 33.2854 54.6676 33.2166 54.3523C33.0847 53.7159 32.8536 53.126 32.57 52.5302C32.3849 52.133 31.7976 51.694 31.764 51.2796C31.7419 50.9411 32.2568 50.4112 32.4502 50.1082C32.8254 49.5138 33.2762 48.9721 33.8318 48.4656C34.0189 48.2968 34.3509 48.3909 34.3852 48.5893C34.5162 49.4766 34.8099 50.5043 35.6355 51.1539C35.6994 51.2066 35.6349 51.3173 35.5359 51.2762C34.9247 51.0298 33.8265 49.9711 34.2201 49.1142C33.8324 49.9537 33.9342 50.8467 33.2148 51.5221C33.9611 51.4945 34.7551 51.1636 35.4826 51.527C35.18 51.3746 33.8436 51.751 33.5747 51.978C33.1888 52.304 33.5455 53.6352 33.7015 54.0557C34.2349 53.2108 34.8676 52.3602 35.6683 51.7725C35.7092 51.7434 35.7674 51.7728 35.744 51.8077C35.2161 52.7227 34.6709 53.5794 33.9975 54.4357" fill="white"/>
<path d="M33.9974 54.4474C33.7749 54.727 33.2854 54.6676 33.2166 54.3523C33.0847 53.7159 32.8536 53.126 32.57 52.5302C32.3849 52.133 31.7976 51.694 31.764 51.2796C31.7419 50.9411 32.2568 50.4112 32.4502 50.1082C32.8254 49.5138 33.2762 48.9721 33.8318 48.4656C34.0189 48.2968 34.3509 48.3909 34.3852 48.5893C34.5162 49.4766 34.8099 50.5043 35.6355 51.1539C35.6994 51.2066 35.6349 51.3173 35.5359 51.2762C34.9247 51.0298 33.8265 49.9711 34.2201 49.1142C33.8324 49.9537 33.9342 50.8467 33.2148 51.5221C33.9611 51.4945 34.7551 51.1636 35.4826 51.527C35.18 51.3746 33.8436 51.751 33.5747 51.978C33.1888 52.304 33.5455 53.6352 33.7015 54.0557C34.2349 53.2108 34.8676 52.3602 35.6683 51.7725C35.7092 51.7434 35.7674 51.7728 35.744 51.8077C35.2161 52.7227 34.6709 53.5794 33.9975 54.4357" stroke="white" stroke-linejoin="round"/>
</g>
<path id="Vector_13" d="M56.4591 51.4932C57.1546 51.0046 56.7136 50.4084 57.0651 49.919C56.7429 50.3618 56.2741 51.0377 56.4591 51.4932ZM57.038 54.3364C56.865 53.7875 56.6045 53.2793 56.2914 52.7767C56.0827 52.4436 55.5066 52.1097 55.4438 51.7478C55.3923 51.45 55.8256 50.9258 55.984 50.6402C56.2833 50.0748 56.6525 49.5446 57.1323 49.0438C57.2903 48.8749 57.6049 48.9223 57.651 49.0974C57.8465 49.874 58.199 50.7618 59.0193 51.2596C59.0833 51.3006 59.0304 51.3997 58.9314 51.3761C58.1392 51.1701 57.6927 50.5097 57.3855 49.9839C57.6753 50.4805 57.2349 51.3899 57.2213 51.9326C57.5722 51.6299 58.185 51.4328 58.6923 51.4048C56.8357 52.1827 57.4284 52.7208 57.43 53.9288C58.0156 53.1948 58.3387 52.4894 59.099 51.8083C59.1341 51.7792 59.1923 51.7969 59.1747 51.8318C58.7636 52.6946 58.3293 53.5165 57.7725 54.3439C57.5908 54.6178 57.1303 54.6109 57.0438 54.3423L57.038 54.3364Z" fill="white" stroke="white" stroke-linejoin="round"/>
<g id="Vector_14">
<path d="M73.8018 49.71C74.0063 49.5821 74.1351 49.4306 74.2173 49.2499C74.2068 48.9289 74.2078 48.6197 74.2323 48.2988C73.9684 48.7475 73.751 49.2547 73.796 49.7041M74.3001 52.2494C74.1619 51.7473 73.9595 51.2859 73.728 50.8127C73.5717 50.5031 73.1473 50.1754 73.096 49.8485C73.0503 49.58 73.355 49.1371 73.4608 48.8865C73.6723 48.3968 73.9245 47.9422 74.2583 47.5169C74.3754 47.3713 74.6025 47.436 74.6369 47.5936C74.7977 48.3 75.0688 49.1059 75.6675 49.5974C75.7198 49.6383 75.6787 49.7258 75.6089 49.6964C75.2538 49.5615 75.0214 49.3217 74.8359 49.0354C74.8358 49.0704 74.8357 49.0995 74.8355 49.1346C74.8347 49.368 74.8339 49.613 74.8214 49.8639C75.0025 49.7476 75.2184 49.6722 75.4691 49.6728C75.4982 49.6729 75.4922 49.7137 75.4689 49.7195C75.0546 49.8353 74.8732 50.0508 74.7965 50.3074C74.7902 50.4357 74.7722 50.5641 74.7543 50.6866C74.7536 50.8908 74.782 51.1068 74.793 51.3169C75.0626 50.8915 75.3554 50.4837 75.7299 50.0935C75.7533 50.0702 75.794 50.0937 75.7822 50.1228C75.4998 50.8749 75.2 51.5862 74.8186 52.2973C74.6954 52.5304 74.3575 52.5005 74.2942 52.2553L74.3001 52.2494Z" fill="white"/>
<path d="M73.8018 49.71C74.0063 49.5821 74.1351 49.4306 74.2173 49.2499C74.2068 48.9289 74.2078 48.6197 74.2323 48.2988C73.9684 48.7475 73.751 49.2547 73.796 49.7041M74.3001 52.2494C74.1619 51.7473 73.9595 51.2859 73.728 50.8127C73.5717 50.5031 73.1473 50.1754 73.096 49.8485C73.0503 49.58 73.355 49.1371 73.4608 48.8865C73.6723 48.3968 73.9245 47.9422 74.2583 47.5169C74.3754 47.3713 74.6025 47.436 74.6369 47.5936C74.7977 48.3 75.0688 49.1059 75.6675 49.5974C75.7198 49.6383 75.6787 49.7258 75.6089 49.6964C75.2538 49.5615 75.0214 49.3217 74.8359 49.0354C74.8358 49.0704 74.8357 49.0995 74.8355 49.1346C74.8347 49.368 74.8339 49.613 74.8214 49.8639C75.0025 49.7476 75.2184 49.6722 75.4691 49.6728C75.4982 49.6729 75.4922 49.7137 75.4689 49.7195C75.0546 49.8353 74.8732 50.0508 74.7965 50.3074C74.7902 50.4357 74.7722 50.5641 74.7543 50.6866C74.7536 50.8908 74.782 51.1068 74.793 51.3169C75.0626 50.8915 75.3554 50.4837 75.7299 50.0935C75.7533 50.0702 75.794 50.0937 75.7822 50.1228C75.4998 50.8749 75.2 51.5862 74.8186 52.2973C74.6954 52.5304 74.3575 52.5005 74.2942 52.2553L74.3001 52.2494Z" stroke="white" stroke-linejoin="round"/>
</g>
<g id="Vector_15">
<path d="M29.7804 50.4439C29.2449 50.186 28.3505 49.1919 28.8018 48.5102C28.3622 49.1803 28.3654 49.9389 27.6407 50.4392C28.3285 50.4874 29.0872 50.279 29.7155 50.6538C29.4537 50.4957 28.1937 50.6914 27.9249 50.86C27.5335 51.0984 27.7335 52.2485 27.8372 52.6163C28.4108 51.9523 29.0719 51.3002 29.8605 50.8759C29.9014 50.8527 29.9538 50.8761 29.9303 50.9111C29.3565 51.6276 28.7711 52.3033 28.0692 52.9612C27.8352 53.1766 27.3925 53.0764 27.3643 52.8079C27.3079 52.265 27.1523 51.7453 26.9559 51.2138C26.823 50.8634 26.3348 50.4422 26.3418 50.0921C26.3487 49.8061 26.8747 49.4105 27.0855 49.1717C27.4894 48.7115 27.9514 48.2924 28.5124 47.9201C28.6994 47.7921 28.9964 47.8978 29.0016 48.0729C29.0339 48.8316 29.194 49.7248 29.8857 50.3449C29.9438 50.3976 29.8677 50.4791 29.7804 50.4381" fill="white"/>
<path d="M29.7804 50.4439C29.2449 50.186 28.3505 49.1919 28.8018 48.5102C28.3622 49.1803 28.3654 49.9389 27.6407 50.4392C28.3285 50.4874 29.0872 50.279 29.7155 50.6538C29.4537 50.4957 28.1937 50.6914 27.9249 50.86C27.5335 51.0984 27.7335 52.2485 27.8372 52.6163C28.4108 51.9523 29.0719 51.3002 29.8605 50.8759C29.9014 50.8527 29.9538 50.8761 29.9303 50.9111C29.3565 51.6276 28.7711 52.3033 28.0692 52.9612C27.8352 53.1766 27.3925 53.0764 27.3643 52.8079C27.3079 52.265 27.1523 51.7453 26.9559 51.2138C26.823 50.8634 26.3348 50.4422 26.3418 50.0921C26.3487 49.8061 26.8747 49.4105 27.0855 49.1717C27.4894 48.7115 27.9514 48.2924 28.5124 47.9201C28.6994 47.7921 28.9964 47.8978 29.0016 48.0729C29.0339 48.8316 29.194 49.7248 29.8857 50.3449C29.9438 50.3976 29.8677 50.4791 29.7804 50.4381" stroke="white" stroke-linejoin="round"/>
</g>
<g id="Vector_16">
<path d="M70.0094 49.8808C70.2081 49.7411 70.3368 49.578 70.4191 49.3857C70.4087 49.0297 70.3982 48.6854 70.4228 48.3353C70.1646 48.8308 69.9528 49.3905 70.0151 49.8866M70.559 52.7237C70.4094 52.1632 70.2013 51.6492 69.9584 51.1235C69.7964 50.7789 69.3664 50.4103 69.3094 50.0426C69.258 49.7391 69.5569 49.2554 69.6628 48.9814C69.857 48.4391 70.1094 47.9437 70.4316 47.4776C70.5429 47.3203 70.77 47.3908 70.8101 47.5718C70.9823 48.3541 71.2705 49.2592 71.8806 49.8148C71.9329 49.8558 71.8917 49.9549 71.8219 49.9256C71.4669 49.7614 71.223 49.4925 71.0376 49.177C71.0375 49.212 71.0432 49.247 71.0431 49.2878C71.0422 49.5446 71.0412 49.8188 71.0402 50.0931C71.2214 49.9651 71.4373 49.8897 71.6821 49.8903C71.7113 49.8903 71.7111 49.937 71.682 49.9428C71.2677 50.0644 71.092 50.2974 71.0211 50.5832C71.0206 50.7291 70.9968 50.8632 70.9904 51.0091C70.9896 51.2367 71.0238 51.476 71.0404 51.7094C71.3043 51.2432 71.5915 50.7945 71.9544 50.3635C71.9778 50.3344 72.0243 50.3637 72.0126 50.3928C71.7416 51.2208 71.4591 52.0021 71.0833 52.789C70.96 53.0455 70.6279 53.0039 70.5531 52.7295L70.559 52.7237Z" fill="white"/>
<path d="M70.0094 49.8808C70.2081 49.7411 70.3368 49.578 70.4191 49.3857C70.4087 49.0297 70.3982 48.6854 70.4228 48.3353C70.1646 48.8308 69.9528 49.3905 70.0151 49.8866M70.559 52.7237C70.4094 52.1632 70.2013 51.6492 69.9584 51.1235C69.7964 50.7789 69.3664 50.4103 69.3094 50.0426C69.258 49.7391 69.5569 49.2554 69.6628 48.9814C69.857 48.4391 70.1094 47.9437 70.4316 47.4776C70.5429 47.3203 70.77 47.3908 70.8101 47.5718C70.9823 48.3541 71.2705 49.2592 71.8806 49.8148C71.9329 49.8558 71.8917 49.9549 71.8219 49.9256C71.4669 49.7614 71.223 49.4925 71.0376 49.177C71.0375 49.212 71.0432 49.247 71.0431 49.2878C71.0422 49.5446 71.0412 49.8188 71.0402 50.0931C71.2214 49.9651 71.4373 49.8897 71.6821 49.8903C71.7113 49.8903 71.7111 49.937 71.682 49.9428C71.2677 50.0644 71.092 50.2974 71.0211 50.5832C71.0206 50.7291 70.9968 50.8632 70.9904 51.0091C70.9896 51.2367 71.0238 51.476 71.0404 51.7094C71.3043 51.2432 71.5915 50.7945 71.9544 50.3635C71.9778 50.3344 72.0243 50.3637 72.0126 50.3928C71.7416 51.2208 71.4591 52.0021 71.0833 52.789C70.96 53.0455 70.6279 53.0039 70.5531 52.7295L70.559 52.7237Z" stroke="white" stroke-linejoin="round"/>
</g>
<path id="Vector_17" d="M66.1929 50.1846C66.6782 49.748 66.3365 49.1229 66.5771 48.6625C66.36 49.0821 66.043 49.7175 66.1929 50.1846ZM66.7191 53.0508C66.5754 52.4903 66.3615 51.9764 66.1185 51.4507C65.9565 51.106 65.5265 50.7316 65.4695 50.3639C65.4181 50.0604 65.7171 49.5767 65.8171 49.3027C66.0172 48.7604 66.2637 48.265 66.5918 47.7989C66.7031 47.6416 66.9359 47.7121 66.9702 47.8931C67.1424 48.6754 67.4306 49.5805 68.0465 50.1361C68.093 50.1829 68.0577 50.2821 67.9878 50.2469C67.4117 49.983 67.0586 49.2995 66.8157 48.7505C67.0412 49.2645 66.7526 50.1333 66.7682 50.6702C67.014 50.3965 67.4517 50.2457 67.8188 50.2524C66.4994 50.8913 66.9461 51.4642 66.9885 52.6663C67.3873 51.9786 67.5995 51.3022 68.1262 50.679C68.1496 50.6499 68.1904 50.6791 68.1844 50.7083C67.9134 51.5363 67.6309 52.3234 67.2551 53.1045C67.1318 53.361 66.7997 53.3194 66.7249 53.045L66.7191 53.0508Z" fill="white" stroke="white" stroke-linejoin="round"/>
<path id="Vector_18" d="M61.7473 50.7328C62.3668 50.279 61.9668 49.6596 62.2832 49.1876C61.9961 49.6188 61.5857 50.2657 61.7473 50.7328ZM62.2794 53.5992C62.1181 53.0387 61.8809 52.5305 61.6029 52.0105C61.4118 51.6658 60.8941 51.3145 60.8371 50.9409C60.7857 50.6374 61.1723 50.1422 61.3132 49.8566C61.5774 49.3086 61.9056 48.7958 62.3271 48.3124C62.4734 48.1493 62.753 48.2141 62.7932 48.3893C62.977 49.1716 63.2944 50.071 64.0329 50.6036C64.091 50.6446 64.0441 50.7437 63.9568 50.7143C63.2464 50.4735 62.8407 49.7957 62.5686 49.2583C62.8292 49.7665 62.4413 50.6527 62.4335 51.1953C62.7435 50.9101 63.2921 50.7421 63.7409 50.7372C62.0888 51.4338 62.6173 51.9952 62.6248 53.2032C63.1461 52.4982 63.4282 51.8103 64.1067 51.164C64.136 51.1349 64.1884 51.1583 64.1708 51.1875C63.8064 52.0328 63.4247 52.8314 62.9322 53.6357C62.7739 53.8979 62.36 53.8737 62.2794 53.5992Z" fill="white" stroke="white" stroke-linejoin="round"/>
<g id="Vector_19">
<path d="M27.933 60.7173C36.0825 63.3342 43.6967 63.9584 48.3152 64.0503C48.1987 64.0091 48.088 63.9738 47.9832 63.9327C46.3586 63.2283 42.9546 62.7127 42.0043 62.6347C42.0043 62.6347 43.4337 62.4684 46.1678 62.7665C48.9018 63.0645 53.4087 61.7311 56.3796 61.0075C59.3447 60.284 62.7862 60.0696 67.2163 60.6634C71.6465 61.2571 76.3915 60.1929 77.7237 59.4424C79.056 58.6919 82.2974 59.0203 84.1265 59.6025C84.1265 59.6025 79.429 58.7745 81.0388 60.3725C82.0713 60.3047 83.2024 60.3772 84.3976 60.4616C85.1672 60.51 85.966 60.5702 86.7766 60.5895C89.1208 60.6355 90.3532 60.0951 91.7678 59.1403C85.3441 59.9497 81.645 55.4444 81.645 55.4444C87.6861 60.6499 93.7047 55.6111 93.7047 55.6111C93.4632 54.6235 94.0646 54.4204 94.0646 54.4204C94.0646 54.4204 94.0192 55.7461 97.1638 55.3675C100.309 54.9831 99.113 53.3276 99.113 53.3276C100.388 53.821 99.8765 55.099 99.8765 55.099C101.128 55.7033 102.324 54.0355 102.324 54.0355C103.363 55.4279 107.543 54.2631 111.365 53.4246C114.038 52.8347 117.987 52.6565 120.11 52.6028C123.662 52.4003 124.586 51.8825 125.125 51.1829C124.191 51.2859 122.271 51.7022 120.319 51.0905C117.716 50.273 115.372 49.9583 113.179 50.117C112.957 50.2041 111.865 50.6164 110.354 50.7007C109.648 50.74 108.85 50.7091 108.016 50.532C106.618 50.2369 105.4 49.767 103.991 49.2208C102.622 48.6921 101.127 47.7543 99.0063 47.1539C97.3225 46.6772 95.4629 46.4804 93.7479 46.5817C94.9188 46.9581 95.161 47.7588 95.5749 47.8006C95.5749 47.8006 96.3004 47.1363 97.395 47.6469C97.395 47.6469 96.5086 47.6216 95.9152 48.8643C95.9152 48.8643 93.3746 46.6159 93.2655 47.7896C93.1564 48.9634 95.2597 49.5345 95.9947 49.4952C95.9947 49.4952 93.701 49.9983 95.7667 51.3053C95.7667 51.3053 90.7858 51.4579 91.9159 46.8113C91.9159 46.8113 91.9101 46.8113 91.9043 46.8113C91.7699 46.8811 90.4493 47.6258 90.911 49.0285C91.4015 50.5014 95.0026 54.6794 91.0011 56.6097C91.0011 56.6097 92.8082 55.136 92.2476 53.7039C91.6869 52.2775 87.9906 51.954 89.397 53.3705C90.8091 54.787 90.159 55.6033 90.159 55.6033C90.159 55.6033 90.2742 54.3245 88.5166 53.3044C87.987 52.9936 87.534 52.4728 87.2562 51.8415C87.255 52.2036 87.2945 52.5716 87.4041 52.9106C87.5714 53.4308 87.4295 53.997 86.9961 54.51C86.3461 55.2854 85.2013 55.7968 84.0463 55.8644C83.8247 55.8756 83.6088 55.8751 83.3931 55.8513C82.577 55.7677 81.6451 55.4211 80.655 55.0451C79.0301 54.4341 77.2528 54.0272 75.2344 54.198C73.7993 54.3233 72.0548 54.5473 70.2509 55.0807C67.945 55.7706 65.5514 56.4837 63.3936 56.4965C61.7315 56.4987 60.1812 56.2266 58.6254 55.8494C56.5918 55.3544 55.2869 54.9544 52.796 55.1591C51.7634 55.2445 50.1703 55.5389 49.3125 55.7122C46.7855 56.2148 44.8774 56.5318 42.2127 56.415C40.6208 56.3472 39.2337 56.0872 37.8874 55.8448C36.2556 55.5433 35.0316 55.3538 33.381 55.391C32.512 55.4125 30.8841 55.6367 30.3416 55.6764C28.0899 55.8583 27.3377 55.8333 26.1202 55.451C25.2114 55.1687 24.3627 54.39 23.4616 53.5645C22.8687 53.02 22.2583 52.4639 21.6589 52.0887C20.2332 51.2037 18.6657 50.8498 16.8476 50.4487L16.3348 50.3366C14.5224 49.9413 12.9549 49.5991 11.3914 48.0888C10.2348 46.9766 9.01957 45.9284 7.65293 44.8333C10.2539 48.1856 13.8423 50.9852 18.9446 52.807C10.6751 51.1243 6.59629 45.1405 6.05051 44.4501C6.55393 45.5784 7.09815 46.7185 7.84121 47.6955C8.13724 48.0933 8.46829 48.4795 8.80521 48.8599C15.3588 55.9355 34.6076 61.5087 34.6076 61.5087C20.5467 58.3006 13.179 53.8807 10.0671 51.5727C13.7465 55.0208 19.6553 58.0358 27.9156 60.6881M12.0015 57.0846C11.9313 57.1311 11.8611 57.1835 11.7968 57.236C12.0223 57.7971 12.6484 58.8498 14.256 59.4082C14.256 59.4082 11.7964 59.0232 10.8253 58.2267C9.63691 59.509 8.62459 60.488 7.79439 61.0819C7.79439 61.0819 10.0848 61.5075 14.6287 62.925C17.3084 63.7602 19.8161 63.7482 21.7005 63.5363C17.0995 63.4444 15.1116 59.9065 15.1116 59.9065C15.1116 59.9065 16.645 61.6796 19.7104 62.3112C22.8631 62.9664 25.6414 62.2892 23.5382 61.6889C21.2486 61.0355 19.5402 59.2504 19.5402 59.2504C24.3846 61.4512 29.3231 61.76 29.6438 61.7782L29.6555 61.7782C29.6555 61.7782 29.6671 61.7782 29.673 61.7782C29.0321 61.5958 28.3854 61.4016 27.7388 61.19C22.9971 59.6668 19.0197 58.0228 15.7776 56.2343L15.7892 56.246C15.7892 56.246 15.7776 56.246 15.7659 56.2459C13.7221 57.0066 17.7197 59.5268 17.7197 59.5268C14.8065 58.7728 12.7579 57.5651 12.0073 57.0787L12.0015 57.0846ZM54.716 64.7652C54.716 64.7652 54.7044 64.7651 54.6927 64.7651C56.1028 65.1128 57.6932 65.6011 59.446 66.335C61.0066 66.9867 63.0526 67.2657 65.3683 67.1365C70.338 66.8612 75.2906 64.8162 76.3985 63.1716C76.5685 62.9208 76.7501 62.6993 76.9375 62.4953L76.9316 62.4953C70.3705 67.5796 63.2628 65.5315 63.2628 65.5315C68.0304 66.3422 72.1486 64.4238 74.2868 63.3597C76.4191 62.2956 76.1134 61.3312 74.8104 62.0292C73.5075 62.7272 70.5737 62.8376 70.5737 62.8376C73.5844 62.4062 74.8833 61.2234 75.3401 60.6695C74.1903 60.9298 72.7899 61.137 71.2967 61.2213C69.8034 61.3057 68.439 61.2559 67.1449 61.0837C64.9124 60.781 62.9007 60.6889 60.9992 60.7841C62.401 61.8209 66.8356 62.7943 66.8356 62.7943C66.8356 62.7943 64.8238 62.7782 62.7381 62.1721C60.6816 61.5718 59.5393 61.3415 57.3336 61.7105C54.9061 62.114 57.6409 63.8897 59.8543 64.6596C59.8543 64.6596 57.2657 64.432 54.6732 63.6671C52.0807 62.9021 53.0323 64.2942 54.7335 64.7652L54.716 64.7652ZM94.5041 58.831C94.9891 58.5517 95.55 58.2434 96.1927 57.9002C97.9397 56.9812 100.763 56.7246 103.762 56.4508C106.334 56.217 108.995 55.9717 110.863 55.275C114.192 54.0265 116.426 53.8387 119.506 53.5768C120.124 53.5256 120.784 53.4686 121.495 53.4001C123.286 53.2288 124.32 52.6646 124.917 52.0877C124.017 52.7165 122.371 53.0867 118.434 53.1831C115.232 53.2579 113.621 53.8034 111.747 54.43C110.293 54.9116 108.64 55.4628 105.997 55.8542C104.679 56.044 103.343 56.1579 102.042 56.266C98.956 56.5279 96.0451 56.7668 94.2211 58.036C93.8528 58.2922 93.5195 58.5309 93.2038 58.758C92.1982 59.4859 91.3621 60.0856 90.3868 60.4981C91.9973 60.2272 93.0024 59.6687 94.5099 58.8251L94.5041 58.831ZM105.803 47.9223C104.591 47.6393 103.618 47.4561 102.942 47.4313C104.692 48.9128 108.497 49.8439 109.927 49.5258C109.927 49.5258 108.321 48.506 105.803 47.9223ZM102.443 46.7643C102.443 46.7643 102.425 46.776 102.419 46.7818C102.431 46.7818 102.442 46.7819 102.454 46.7819L102.443 46.7702L102.443 46.7643ZM106.294 37.7842C106.294 37.7842 102.637 37.7528 100.705 40.1374L100.47 32.1937L97.5101 39.7449C97.5101 39.7449 95.5804 36.2246 93.3272 35.1626C93.3272 35.1626 96.1387 39.9872 95.6482 43.5196C97.4408 44.5281 100.904 44.8686 101.516 44.905C101.872 43.0252 103.041 39.0328 106.294 37.7784L106.294 37.7842ZM95.2055 45.0372C95.2055 45.0372 99.4274 46.7928 101.348 46.3122C101.348 46.3122 101.425 45.7809 101.431 45.7576C100.662 45.715 97.3092 45.4798 95.4115 44.4886C95.3997 44.5295 95.2466 44.938 95.2055 45.0372ZM51.5936 50.4432C51.2422 50.8921 50.7324 51.5627 50.9233 52.0245C51.6831 51.5356 51.2012 50.9329 51.5936 50.4432ZM86.6795 45.0009C82.8482 43.252 73.6301 39.3595 63.2273 40.6683C52.7196 41.9944 28.6723 46.0767 20.2261 43.2255C18.9913 42.7906 18.3987 42.1527 17.9409 41.3107C17.5259 41.5843 16.708 42.0088 16.0209 41.7036C15.2639 41.3632 14.5205 40.4796 14.29 39.6848L12.6323 40.1134L12.5219 39.9905C12.4755 39.9378 11.453 38.8025 11.3473 37.3538L9.90113 37.3215L9.91468 36.7842L11.8915 36.8294L11.8906 37.0922C11.8867 38.1902 12.5656 39.1671 12.8327 39.5006L13.6791 39.2805C12.843 38.2449 9.47552 33.9505 10.0693 29.2677C10.681 24.4448 14.8422 20.2137 22.2928 19.2606C23.7226 18.9834 26.0921 18.4746 28.3071 17.1186C28.3071 17.1186 33.5429 7.44652 49.9218 3.20721L49.8927 3.20715C53.664 2.07069 58.682 1.3166 58.6937 1.31662C57.5157 1.31404 56.3085 1.32307 55.4277 1.36786C53.3277 1.53262 51.1573 1.79068 49.3074 2.12537C44.8724 2.92746 35.1377 6.66739 30.1282 10.003C24.7503 13.589 19.5199 15.0668 18.8135 15.258C18.63 16.0461 18.2317 16.5358 18.0561 16.7281C19.4456 16.2932 20.835 15.8757 22.2476 15.4992C23.0123 15.2964 23.6901 14.9124 24.4201 14.6279C25.5998 14.1632 26.9013 13.8565 27.8317 12.9533C27.8493 12.9358 27.8784 12.9592 27.8609 12.9767C26.7249 14.2766 24.7571 14.9907 23.2151 15.6765C21.5972 16.3972 19.8459 16.8956 18.1759 17.476C14.0478 18.9037 10.5928 21.3024 8.36364 25.0413C8.35189 25.0646 8.30531 25.0528 8.31707 25.0237C9.61271 21.4112 13.0176 18.3174 16.7833 17.1225C16.8534 17.0993 16.9176 17.0819 16.9877 17.0587C18.1095 16.4654 18.6613 13.7625 18.6613 13.7625C18.6613 13.7625 17.6631 15.711 13.7117 18.2839C9.76623 20.8626 6.52907 21.0073 6.52907 21.0073C4.81232 24.9693 6.28662 28.6345 6.28662 28.6345C6.34499 26.9526 7.36904 25.9619 7.36904 25.9619C5.55235 30.1514 9.00672 36.2682 9.00672 36.2682C6.8125 33.349 6.28004 30.5151 6.28004 30.5151C5.56164 29.1586 5.18726 27.8203 5.02838 26.5584C4.03644 28.3784 3.49341 30.2345 3.25387 32.027L3.28302 32.0271C2.833 37.3059 6.14951 42.8267 7.37669 43.7814C9.05754 45.0817 10.4762 46.2996 11.8421 47.6109C13.2778 48.9924 14.7696 49.3169 16.4886 49.6945L17.0014 49.8066C18.8778 50.2254 20.4978 50.5793 22.0108 51.523C22.6626 51.9274 23.2962 52.507 23.9066 53.069C24.7146 53.8126 25.6108 54.3519 26.3856 54.593C27.4808 54.94 29.1542 55.0255 31.336 54.8434C31.8785 54.7978 32.4501 54.7524 33.0451 54.7128C34.7776 54.5823 36.3512 54.8836 38.0239 55.191C38.5542 55.2914 39.0962 55.386 39.6499 55.4749C39.6384 55.4515 39.6268 55.4339 39.621 55.4164C39.4076 54.7443 39.1065 54.1304 38.7529 53.5105C38.5152 53.1011 37.8868 52.6851 37.8009 52.241C37.7322 51.8729 38.1834 51.2548 38.3363 50.9105C38.6419 50.2337 39.0173 49.6038 39.5151 49.0033C39.6791 48.7992 40.023 48.8701 40.0805 49.0863C40.3221 50.033 40.7383 51.1144 41.64 51.7355C41.7156 51.7882 41.6569 51.9107 41.552 51.8754C40.9113 51.6696 39.6902 50.6332 39.9851 49.6701C39.7019 50.6098 39.9144 51.5681 39.2759 52.3669C40.0169 52.2692 40.7708 51.827 41.5336 52.1557C41.2133 52.0207 39.9284 52.5611 39.6883 52.8292C39.3371 53.2197 39.8629 54.6226 40.0713 55.0611C40.5004 54.0984 41.0228 53.1183 41.7485 52.4015C41.7836 52.3666 41.8477 52.3901 41.83 52.4309C41.4182 53.4696 40.9773 54.4499 40.4082 55.4415C40.3788 55.494 40.3379 55.5348 40.2911 55.5697C40.9207 55.6529 41.5736 55.7244 42.2616 55.7551C43.422 55.8044 44.4544 55.7599 45.4637 55.6395C45.2503 54.9732 44.9549 54.3651 44.6013 53.7569C44.3637 53.3476 43.7295 52.9315 43.6494 52.4875C43.5807 52.1194 44.0319 51.5071 44.1905 51.157C44.4962 50.4802 44.8716 49.8502 45.3694 49.2497C45.5334 49.0457 45.8772 49.1165 45.9348 49.3328C46.1764 50.2794 46.5925 51.3609 47.4943 51.9819C47.5699 52.0288 47.5112 52.1572 47.4064 52.1219C46.7656 51.9161 45.5445 50.8796 45.8395 49.9166C45.5562 50.8621 45.7687 51.8146 45.1302 52.6134C45.8712 52.5157 46.625 52.0735 47.3879 52.4022C47.0676 52.2672 45.7827 52.8075 45.5427 53.0757C45.1972 53.4662 45.7172 54.8691 45.9256 55.3076C46.3547 54.3448 46.8771 53.3648 47.6028 52.648C47.6379 52.613 47.702 52.6365 47.6843 52.6774C47.2902 53.6577 46.8728 54.5913 46.3505 55.5246C47.3016 55.3865 48.2587 55.2017 49.3033 54.9938C49.9802 54.8609 50.6923 54.7165 51.4684 54.578C51.2833 54.1279 51.0457 53.701 50.7614 53.2799C50.541 52.9465 49.9181 52.618 49.8494 52.2499C49.7922 51.9519 50.2664 51.4273 50.4365 51.1415C50.7651 50.5757 51.1693 50.0451 51.6901 49.5381C51.8657 49.3633 52.2096 49.4166 52.2556 49.5919C52.4628 50.3692 52.8447 51.2519 53.7294 51.7445C53.7992 51.7855 53.7405 51.8847 53.6357 51.8611C52.7791 51.6548 52.2915 50.9996 51.9668 50.4732C52.2741 50.9703 51.7927 51.8804 51.7792 52.4235C52.1651 52.1207 52.8306 51.9236 53.3789 51.8897C51.3583 52.6796 51.998 53.2067 51.9938 54.4215C52.6379 53.6811 52.9844 52.9752 53.8208 52.2879C53.8558 52.2587 53.9199 52.2764 53.9023 52.3114C53.5266 53.0231 53.1335 53.7056 52.6704 54.3938C54.8057 54.1531 56.8043 54.6248 58.7389 55.0904C60.3296 55.4735 61.8329 55.839 63.4192 55.8366C65.4837 55.8353 67.8306 55.1279 70.0957 54.4495C71.9288 53.8987 73.6569 53.3827 75.1619 53.2517C77.3029 53.0578 79.219 53.7921 80.908 54.4266C81.8981 54.7967 82.7542 55.1198 83.4829 55.1973C84.7713 55.3228 85.9922 54.7297 86.5369 54.0826C86.7419 53.8319 86.9648 53.4528 86.8321 53.0495C86.3301 51.5065 87.0482 49.6158 87.0777 49.5341L87.1417 49.5576C87.3364 48.9272 87.741 48.3032 88.4253 47.7381C88.7294 47.4818 89.0801 47.2548 89.4657 47.0571C89.828 46.871 90.6222 46.5573 91.2001 46.4067C90.0462 46.1706 88.8689 45.9578 86.7088 44.966L86.6795 45.0009ZM75.9563 36.2108C76.91 36.9721 78.7247 38.3778 78.4083 40.4856C78.4199 40.4856 80.9196 41.0985 83.802 42.3664C82.8395 40.7698 79.958 37.557 75.9563 36.2108ZM69.8546 36.6821C70.7206 37.5134 71.2073 38.4373 71.1287 39.2256C72.5805 39.3339 72.7086 39.3634 74.02 39.594C73.3933 38.6815 72.0982 37.1426 69.8546 36.6821ZM61.3574 36.7452C63.1086 37.9406 62.8427 38.9153 62.7129 39.3414C63.6872 39.2326 64.6615 39.1413 65.5598 39.0907C66.0556 39.0626 66.5046 39.046 66.907 39.0469C66.1226 38.2158 64.2447 36.5822 61.3574 36.7394L61.3574 36.7452ZM55.0676 37.625C55.6144 38.0117 56.5395 38.6328 56.295 40.18C57.3802 40.0306 58.4421 39.8927 59.4864 39.7665C59.6031 39.7493 59.7198 39.732 59.8365 39.7147C58.9529 38.8951 57.527 38.0802 55.0676 37.625ZM47.9656 38.9644C47.8081 38.9758 47.6564 38.9871 47.4989 39.0043C48.2322 39.4148 48.8536 40.1871 48.8849 41.2209C49.3926 41.1461 49.906 41.0771 50.4136 41.0023C51.1955 40.8814 52.0241 40.7547 52.7709 40.6512C52.4054 40.1189 50.1354 38.8582 47.9597 38.9644L47.9656 38.9644ZM41.517 40.2118C41.9181 40.5982 42.4935 41.1543 42.3852 42.1061C43.3245 41.9855 44.2755 41.8591 45.2266 41.7268C44.9192 41.2414 43.5346 40.2805 41.517 40.2118ZM34.6955 41.4C35.0907 41.7747 35.6195 42.3365 35.3258 42.9199C36.6792 42.7944 36.8134 42.783 38.2545 42.611C37.8651 42.2246 36.6782 41.4102 34.6955 41.4ZM28.4611 41.4447C28.6579 41.8715 29.0279 42.7835 28.3319 43.3543C28.6877 43.3492 29.0376 43.3442 29.6325 43.3221C30.28 43.3002 30.6183 43.2775 31.1316 43.2495C30.8479 42.659 29.5624 41.6924 28.4611 41.4447ZM23.5738 41.5099C23.1641 41.9412 22.4676 42.6406 21.4692 42.983C22.0986 43.0895 22.7048 43.1784 23.8008 43.2859C24.4422 43.3282 24.3488 43.3455 25.1711 43.3532C24.8992 42.7218 24.3016 41.8444 23.568 41.5041L23.5738 41.5099ZM18.37 28.6785C19.9767 27.8352 20.704 26.6687 21.0275 25.8809C20.7044 26.5519 19.9663 27.4789 18.2727 28.1527C15.3002 29.3318 13.7288 30.0876 13.7288 30.0876C13.7288 30.0876 14.8011 28.6415 17.1842 27.5662C19.5674 26.491 17.3653 25.8086 15.6598 26.5466C15.6598 26.5466 17.699 25.4414 16.5835 24.23C16.2541 25.0469 14.9295 25.2718 14.1062 25.5503C13.2888 25.8289 12.376 26.6796 12.3702 26.6854C11.8707 27.7648 11.546 28.8972 11.408 30.0066C11.2941 30.8941 11.3144 31.741 11.4108 32.5472C12.4645 31.4048 15.8168 30.0163 18.3758 28.6786L18.37 28.6785ZM35.2761 25.4508C35.2438 19.6803 31.8449 17.7104 31.0826 17.2532C35.8814 9.13372 44.6831 5.36839 52.068 3.20025C34.5241 7.03399 29.0815 17.4707 29.0227 17.5991L28.964 17.7158L28.8471 17.7856C27.3802 18.6818 25.7105 19.1746 24.4266 19.4405C28.9205 20.1337 33.5146 23.8817 35.2761 25.4567L35.2761 25.4508ZM10.7988 19.1068C12.7197 18.4686 14.5433 17.3103 15.8593 16.2094C13.6111 17.0571 11.3133 18.7166 10.7988 19.1068ZM5.22394 22.3361C3.50491 21.9468 3.11949 20.4274 3.11949 20.4274C2.46851 21.4715 1.89998 22.2821 1.64753 24.4308C1.25792 27.4437 2.53238 29.882 2.84531 30.4492C2.92833 30.0581 3.02886 29.6611 3.14105 29.2642L3.12931 29.2934C3.12931 29.2934 1.47866 26.0191 2.61868 21.8806C2.61868 21.8806 2.3344 26.4648 3.63604 27.8052C3.75961 27.49 3.90071 27.1691 4.04762 26.8482C3.51466 25.8308 3.02383 24.428 3.05319 22.7051C3.05319 22.7051 3.51254 24.7678 4.37655 26.1773C4.54097 25.8564 4.71705 25.5297 4.91062 25.2089L4.92803 25.2382C4.91429 24.1635 5.04603 23.1826 5.22973 22.3478L5.22394 22.3361ZM5.34801 45.2137C5.06978 44.7283 1.77768 38.9039 2.58897 32.0431L2.58889 32.0664C0.438415 28.3121 0.628384 24.0197 1.75018 21.7561C2.61364 19.9883 3.83641 18.8696 3.83641 18.8696C3.1649 20.778 4.90108 21.2724 5.4897 21.3847C5.91451 19.978 6.26649 19.3772 6.26649 19.3772C7.29766 19.6832 8.39996 19.6681 9.50292 19.4544L9.4563 19.4426C11.1479 17.665 16.8948 15.2596 16.9065 15.2538C17.2109 14.9333 17.4569 14.6418 17.6269 14.3852C18.9401 12.4139 20.2004 12.2473 20.2004 12.2473C20.2004 12.2473 19.0123 13.4362 18.9026 14.7851C26.7833 12.5947 28.9136 8.77383 41.7375 3.86091C53.6212 -0.691973 62.8106 1.40743 62.8106 1.40743C60.8443 1.67762 59.0062 1.99481 57.2788 2.34729C56.52 2.50916 55.703 2.7001 54.8449 2.91432C47.4844 4.80801 37.0662 8.87934 32.8438 17.2571C33.6577 17.9772 36.1966 20.7162 35.6867 26.4621C35.6867 26.4621 27.586 19.8679 22.9544 20.1731C18.3229 20.4784 15.9899 22.2137 15.9899 22.2137L16.0192 22.1904C14.727 23.1513 13.6964 24.3288 12.9397 25.6062C12.969 25.5654 13.4789 24.8247 14.6398 24.7338C15.8356 24.6372 16.3412 23.4936 16.3412 23.4936C17.0172 23.6352 17.552 24.127 18.9369 25.0119C20.3217 25.9027 21.801 23.1376 21.801 23.1376C22.888 29.1616 15.264 31.3467 13.2954 32.271C11.5897 33.0733 11.749 34.2359 11.8238 34.5281C12.5732 37.0178 13.9434 38.7554 14.2803 39.1475L14.7531 39.0259L14.787 39.3296C14.8607 39.9314 15.5222 40.8907 16.2617 41.2194C16.7857 41.4541 17.604 40.9303 17.8731 40.7031L18.1479 40.4759L18.3043 40.7916C18.6807 41.5576 19.0867 42.1951 20.2107 42.6414C21.5229 42.621 23.494 40.9841 23.494 40.9841C24.6302 41.2611 26.664 43.3506 26.6757 43.3623C29.2613 42.7431 27.6174 40.8997 27.6174 40.8997C29.6881 40.7816 32.9457 43.125 32.9515 43.125C33.3365 43.0966 33.7216 43.0624 34.1182 43.0282C35.7477 42.3602 33.513 41.0061 33.513 41.0061C37.3169 40.5472 39.9464 42.3986 39.9581 42.4103C40.3723 42.3586 40.7924 42.307 41.2125 42.2554C42.4236 41.1366 40.3987 39.8122 40.3987 39.8122C43.9984 39.3996 46.6277 41.3094 46.8836 41.5027C47.1403 41.4682 47.4029 41.4279 47.6597 41.3934C48.8184 40.2337 46.4268 38.7333 46.4268 38.7333C50.6409 37.7204 54.6268 40.2698 54.8071 40.387C54.8888 40.3755 54.9764 40.364 55.058 40.3525C56.8715 38.7679 53.5355 37.1544 53.5355 37.1544C57.1407 36.8236 61.4183 39.3152 61.7268 39.4969C61.7443 39.497 61.756 39.497 61.7735 39.4912C63.2202 37.7072 59.877 36.485 59.877 36.485C64.9661 35.4157 68.4998 38.8635 68.7438 39.1152C69.2395 39.128 69.7176 39.1524 70.1957 39.1826C70.1782 39.1826 70.155 39.1709 70.155 39.1709C70.842 37.8115 68.5968 36.1187 68.5968 36.1187C73.1107 36.1111 76.124 39.9549 76.124 39.9549L76.1007 39.9549C76.5086 40.0375 76.9107 40.126 77.3011 40.2145C77.2778 40.2086 77.2662 40.2027 77.2662 40.2027C79.0454 38.3961 74.1509 35.5059 74.1509 35.5059C81.4687 35.8257 86.8183 43.6521 86.8183 43.6521C88.6232 44.5029 90.5105 45.132 92.5397 45.2182C93.1403 45.2429 93.7469 45.2209 94.3416 45.2689C94.4465 45.275 94.5572 45.2927 94.668 45.3105C94.668 45.3105 94.668 45.2988 94.668 45.293C96.6314 40.8351 92.9995 35.4714 92.9647 35.4188C92.8486 35.2491 92.867 35.0214 93.0075 34.8698C93.0894 34.7766 93.2062 34.7243 93.3287 34.7129C93.4104 34.7072 93.492 34.7191 93.5677 34.7543C95.2445 35.5464 96.7097 36.7995 97.3475 37.8697L100.062 32.0293C100.127 31.8601 100.291 31.7495 100.471 31.7323C100.506 31.7324 100.541 31.7325 100.582 31.7326C100.804 31.7681 100.966 31.9495 100.971 32.1656L101.516 38.1709C103.363 36.9426 106.33 37.3171 106.33 37.3171C106.552 37.3176 106.744 37.4757 106.784 37.6919C106.824 37.908 106.701 38.118 106.496 38.1994C102.777 39.6338 101.821 46.0037 101.725 46.716C103.096 46.795 104.46 46.7921 105.824 47.0813C107.91 47.5298 109.185 48.0757 110.216 48.5102C111.328 48.9857 112.08 49.2969 113.176 49.2176C115.463 49.0415 117.876 49.3681 120.562 50.215C123.131 51.0208 125.623 50.5473 125.646 50.5415L126.247 50.426L126.042 50.7643C125.929 51.2956 125.251 53.3441 121.541 53.7039C120.829 53.7666 120.17 53.8294 119.552 53.8806C116.495 54.1367 114.284 54.3246 110.996 55.5556C109.087 56.2698 106.403 56.5209 103.813 56.7546C100.85 57.0285 98.0552 57.2793 96.3667 58.1751C95.7298 58.5124 95.1747 58.8208 94.6839 59.0942C92.7322 60.1879 91.6162 60.8162 88.9856 60.9623C88.9214 60.9622 88.8572 60.962 88.793 60.9736C88.2037 61.0716 87.5504 61.1169 86.7806 61.0976C85.9584 61.0842 85.1538 61.0298 84.3784 60.9756C83.2997 60.9031 82.291 60.8366 81.3578 60.8755C80.5295 60.9321 78.2772 61.2776 76.8233 63.4295C75.0178 66.1063 65.0289 69.1682 59.2929 66.7552C55.9737 65.3637 53.2694 64.8613 51.2527 64.5532C48.3015 64.6343 41.741 64.5556 34.0138 62.8741C34.0138 62.8741 29.9538 63.1748 24.4912 64.3192C19.0345 65.4695 13.634 63.8456 11.322 62.9236C9.01004 61.9957 6.44628 61.3476 5.06724 62.1272C5.06724 62.1272 7.86172 60.1709 8.85358 58.3742C9.84542 56.5834 12.1134 55.0932 14.1888 55.308C9.32377 52.3303 6.41373 48.9832 5.36555 45.2079L5.34801 45.2137Z" fill="white"/>
<path d="M27.933 60.7173C36.0825 63.3342 43.6967 63.9584 48.3152 64.0503C48.1987 64.0091 48.088 63.9738 47.9832 63.9327C46.3586 63.2283 42.9546 62.7127 42.0043 62.6347C42.0043 62.6347 43.4337 62.4684 46.1678 62.7665C48.9019 63.0645 53.4087 61.7311 56.3796 61.0075C59.3447 60.284 62.7862 60.0696 67.2163 60.6634C71.6465 61.2571 76.3915 60.1929 77.7237 59.4424C79.056 58.6919 82.2974 59.0203 84.1265 59.6025C84.1265 59.6025 79.429 58.7745 81.0388 60.3725C82.0713 60.3047 83.2024 60.3772 84.3976 60.4616C85.1672 60.51 85.966 60.5702 86.7766 60.5895C89.1208 60.6355 90.3532 60.0951 91.7678 59.1403C85.3441 59.9497 81.645 55.4444 81.645 55.4444C87.6861 60.6499 93.7047 55.6111 93.7047 55.6111C93.4632 54.6235 94.0646 54.4204 94.0646 54.4204C94.0646 54.4204 94.0192 55.7461 97.1639 55.3675C100.309 54.9831 99.113 53.3276 99.113 53.3276C100.388 53.821 99.8765 55.099 99.8765 55.099C101.128 55.7033 102.324 54.0355 102.324 54.0355C103.363 55.4279 107.543 54.2631 111.365 53.4246C114.038 52.8347 117.987 52.6565 120.11 52.6028C123.662 52.4003 124.586 51.8825 125.125 51.1829C124.191 51.2859 122.271 51.7022 120.319 51.0905C117.716 50.273 115.372 49.9583 113.179 50.117C112.957 50.2041 111.865 50.6164 110.354 50.7007C109.648 50.74 108.85 50.7091 108.016 50.532C106.618 50.2369 105.4 49.767 103.991 49.2208C102.622 48.6921 101.127 47.7543 99.0063 47.154C97.3225 46.6772 95.4629 46.4804 93.748 46.5817C94.9188 46.9581 95.161 47.7588 95.5749 47.8006C95.5749 47.8006 96.3004 47.1363 97.395 47.6469C97.395 47.6469 96.5086 47.6216 95.9152 48.8643C95.9152 48.8643 93.3746 46.6159 93.2655 47.7896C93.1564 48.9634 95.2597 49.5345 95.9947 49.4952C95.9947 49.4952 93.701 49.9983 95.7667 51.3053C95.7667 51.3053 90.7858 51.4579 91.9159 46.8113C91.9159 46.8113 91.9101 46.8113 91.9043 46.8113C91.7699 46.8811 90.4493 47.6258 90.911 49.0285C91.4015 50.5014 95.0026 54.6794 91.0011 56.6097C91.0011 56.6097 92.8082 55.136 92.2476 53.7039C91.6869 52.2775 87.9906 51.954 89.397 53.3705C90.8091 54.787 90.159 55.6033 90.159 55.6033C90.159 55.6033 90.2742 54.3245 88.5166 53.3044C87.987 52.9936 87.534 52.4728 87.2562 51.8415C87.255 52.2036 87.2945 52.5716 87.4041 52.9106C87.5714 53.4308 87.4295 53.997 86.9961 54.51C86.3461 55.2854 85.2013 55.7968 84.0463 55.8644C83.8247 55.8756 83.6088 55.8751 83.3931 55.8513C82.577 55.7677 81.6451 55.4211 80.655 55.0451C79.0301 54.4341 77.2528 54.0272 75.2344 54.198C73.7993 54.3233 72.0548 54.5473 70.2509 55.0807C67.945 55.7706 65.5514 56.4837 63.3936 56.4965C61.7315 56.4987 60.1812 56.2266 58.6254 55.8494C56.5918 55.3544 55.2869 54.9544 52.796 55.1591C51.7634 55.2445 50.1703 55.5389 49.3125 55.7122C46.7855 56.2148 44.8774 56.5318 42.2127 56.415C40.6208 56.3472 39.2337 56.0872 37.8874 55.8448C36.2556 55.5433 35.0316 55.3538 33.381 55.391C32.512 55.4125 30.8841 55.6367 30.3416 55.6764C28.0899 55.8583 27.3377 55.8333 26.1202 55.451C25.2114 55.1687 24.3627 54.39 23.4616 53.5645C22.8687 53.02 22.2583 52.4639 21.6589 52.0887C20.2332 51.2037 18.6657 50.8498 16.8476 50.4487L16.3348 50.3366C14.5224 49.9413 12.9549 49.5991 11.3914 48.0888C10.2348 46.9766 9.01957 45.9284 7.65292 44.8333C10.2539 48.1856 13.8423 50.9852 18.9446 52.807C10.6751 51.1243 6.59629 45.1405 6.05051 44.4501C6.55393 45.5784 7.09815 46.7185 7.84121 47.6955C8.13724 48.0933 8.46829 48.4795 8.80521 48.8599C15.3588 55.9355 34.6076 61.5087 34.6076 61.5087C20.5467 58.3006 13.179 53.8807 10.0671 51.5727C13.7465 55.0208 19.6553 58.0358 27.9156 60.6881M12.0015 57.0846C11.9313 57.1311 11.8611 57.1835 11.7968 57.236C12.0223 57.7971 12.6484 58.8498 14.256 59.4082C14.256 59.4082 11.7964 59.0232 10.8253 58.2267C9.63691 59.509 8.62459 60.488 7.79439 61.0819C7.79439 61.0819 10.0848 61.5075 14.6287 62.925C17.3084 63.7602 19.8161 63.7482 21.7005 63.5363C17.0995 63.4444 15.1116 59.9065 15.1116 59.9065C15.1116 59.9065 16.645 61.6796 19.7104 62.3112C22.8631 62.9664 25.6414 62.2892 23.5382 61.6889C21.2486 61.0355 19.5402 59.2504 19.5402 59.2504C24.3846 61.4512 29.3231 61.76 29.6438 61.7782L29.6555 61.7782C29.6555 61.7782 29.6671 61.7782 29.673 61.7782C29.0321 61.5958 28.3854 61.4016 27.7388 61.19C22.9971 59.6668 19.0197 58.0228 15.7776 56.2343L15.7892 56.246C15.7892 56.246 15.7776 56.246 15.7659 56.2459C13.7221 57.0066 17.7197 59.5268 17.7197 59.5268C14.8065 58.7728 12.7579 57.5651 12.0073 57.0787L12.0015 57.0846ZM54.716 64.7652C54.716 64.7652 54.7044 64.7651 54.6927 64.7651C56.1028 65.1128 57.6932 65.6011 59.446 66.335C61.0066 66.9867 63.0526 67.2657 65.3683 67.1365C70.338 66.8612 75.2906 64.8162 76.3985 63.1716C76.5685 62.9208 76.7501 62.6993 76.9375 62.4953L76.9316 62.4953C70.3705 67.5796 63.2628 65.5315 63.2628 65.5315C68.0304 66.3421 72.1486 64.4238 74.2868 63.3597C76.4191 62.2956 76.1134 61.3312 74.8105 62.0292C73.5075 62.7272 70.5737 62.8376 70.5737 62.8376C73.5844 62.4062 74.8833 61.2234 75.3401 60.6695C74.1903 60.9298 72.7899 61.137 71.2967 61.2213C69.8034 61.3057 68.439 61.2559 67.1449 61.0837C64.9124 60.781 62.9007 60.6889 60.9992 60.7841C62.401 61.8209 66.8356 62.7943 66.8356 62.7943C66.8356 62.7943 64.8238 62.7782 62.7381 62.1721C60.6816 61.5718 59.5393 61.3415 57.3336 61.7105C54.9061 62.114 57.6409 63.8897 59.8543 64.6596C59.8543 64.6596 57.2657 64.432 54.6732 63.6671C52.0807 62.9021 53.0323 64.2942 54.7335 64.7652L54.716 64.7652ZM94.5041 58.831C94.9891 58.5517 95.55 58.2434 96.1927 57.9002C97.9397 56.9812 100.763 56.7246 103.762 56.4508C106.334 56.217 108.995 55.9717 110.863 55.2749C114.192 54.0265 116.426 53.8387 119.506 53.5768C120.124 53.5256 120.784 53.4686 121.495 53.4001C123.286 53.2288 124.32 52.6646 124.917 52.0877C124.017 52.7165 122.371 53.0867 118.434 53.1831C115.232 53.2579 113.621 53.8034 111.747 54.43C110.293 54.9116 108.641 55.4628 105.997 55.8542C104.679 56.044 103.343 56.1579 102.042 56.266C98.956 56.5279 96.0451 56.7668 94.2211 58.036C93.8528 58.2922 93.5195 58.5309 93.2038 58.758C92.1982 59.4859 91.3621 60.0856 90.3868 60.4981C91.9973 60.2272 93.0024 59.6687 94.5099 58.8251L94.5041 58.831ZM105.803 47.9223C104.591 47.6393 103.618 47.4561 102.942 47.4313C104.692 48.9128 108.497 49.8439 109.927 49.5258C109.927 49.5258 108.321 48.506 105.803 47.9223ZM102.443 46.7643C102.443 46.7643 102.425 46.776 102.419 46.7818C102.431 46.7818 102.442 46.7819 102.454 46.7819L102.443 46.7702L102.443 46.7643ZM106.294 37.7842C106.294 37.7842 102.637 37.7528 100.705 40.1374L100.47 32.1937L97.5101 39.7449C97.5101 39.7449 95.5804 36.2247 93.3272 35.1626C93.3272 35.1626 96.1387 39.9872 95.6482 43.5196C97.4408 44.5281 100.904 44.8686 101.516 44.905C101.872 43.0252 103.041 39.0328 106.294 37.7784L106.294 37.7842ZM95.2055 45.0372C95.2055 45.0372 99.4274 46.7928 101.348 46.3122C101.348 46.3122 101.425 45.7809 101.431 45.7576C100.662 45.715 97.3092 45.4798 95.4115 44.4886C95.3997 44.5295 95.2466 44.938 95.2055 45.0372ZM51.5936 50.4432C51.2422 50.8921 50.7324 51.5627 50.9233 52.0245C51.6831 51.5356 51.2012 50.9329 51.5936 50.4432ZM86.6795 45.0009C82.8482 43.252 73.6301 39.3595 63.2273 40.6683C52.7196 41.9944 28.6723 46.0767 20.2261 43.2255C18.9913 42.7906 18.3987 42.1527 17.9409 41.3107C17.5259 41.5843 16.708 42.0088 16.0209 41.7036C15.2639 41.3632 14.5205 40.4796 14.29 39.6848L12.6323 40.1134L12.522 39.9905C12.4755 39.9378 11.453 38.8025 11.3473 37.3538L9.90113 37.3215L9.91468 36.7842L11.8915 36.8294L11.8906 37.0922C11.8867 38.1902 12.5656 39.1671 12.8327 39.5006L13.6791 39.2805C12.843 38.2449 9.47552 33.9505 10.0693 29.2677C10.681 24.4448 14.8422 20.2137 22.2928 19.2606C23.7226 18.9833 26.0921 18.4746 28.3071 17.1186C28.3071 17.1186 33.5429 7.44652 49.9218 3.20721L49.8927 3.20715C53.664 2.07069 58.682 1.3166 58.6937 1.31662C57.5157 1.31404 56.3085 1.32307 55.4277 1.36786C53.3277 1.53262 51.1573 1.79068 49.3074 2.12537C44.8724 2.92746 35.1377 6.66739 30.1282 10.003C24.7503 13.589 19.5199 15.0668 18.8135 15.258C18.63 16.0461 18.2317 16.5358 18.0561 16.7281C19.4456 16.2932 20.835 15.8757 22.2476 15.4992C23.0123 15.2964 23.6901 14.9124 24.4201 14.6279C25.5998 14.1632 26.9013 13.8565 27.8317 12.9533C27.8493 12.9358 27.8784 12.9592 27.8609 12.9767C26.7249 14.2766 24.7571 14.9907 23.2151 15.6765C21.5972 16.3972 19.8459 16.8956 18.1759 17.476C14.0478 18.9037 10.5928 21.3024 8.36364 25.0413C8.35189 25.0646 8.30531 25.0528 8.31707 25.0237C9.61271 21.4112 13.0176 18.3174 16.7833 17.1225C16.8534 17.0993 16.9176 17.0819 16.9877 17.0587C18.1095 16.4654 18.6613 13.7625 18.6613 13.7625C18.6613 13.7625 17.6631 15.711 13.7117 18.2839C9.76623 20.8626 6.52907 21.0073 6.52907 21.0073C4.81232 24.9693 6.28662 28.6345 6.28662 28.6345C6.34499 26.9526 7.36904 25.9619 7.36904 25.9619C5.55235 30.1514 9.00672 36.2682 9.00672 36.2682C6.8125 33.349 6.28004 30.5151 6.28004 30.5151C5.56164 29.1586 5.18726 27.8203 5.02838 26.5583C4.03644 28.3784 3.49341 30.2345 3.25387 32.027L3.28302 32.0271C2.833 37.3059 6.14951 42.8267 7.37669 43.7814C9.05754 45.0817 10.4762 46.2996 11.8421 47.6109C13.2778 48.9924 14.7696 49.3169 16.4886 49.6945L17.0014 49.8066C18.8778 50.2254 20.4978 50.5793 22.0108 51.523C22.6626 51.9274 23.2962 52.507 23.9066 53.069C24.7146 53.8126 25.6108 54.3519 26.3856 54.593C27.4808 54.94 29.1542 55.0255 31.336 54.8434C31.8785 54.7978 32.4501 54.7524 33.0451 54.7128C34.7776 54.5823 36.3512 54.8836 38.0239 55.191C38.5542 55.2914 39.0962 55.386 39.6499 55.4749C39.6384 55.4515 39.6268 55.4339 39.621 55.4164C39.4076 54.7443 39.1065 54.1304 38.7529 53.5105C38.5152 53.1011 37.8868 52.6851 37.8009 52.241C37.7322 51.8729 38.1834 51.2548 38.3363 50.9105C38.6419 50.2337 39.0173 49.6038 39.5151 49.0033C39.6791 48.7992 40.023 48.8701 40.0805 49.0863C40.3221 50.033 40.7383 51.1144 41.64 51.7355C41.7156 51.7882 41.6569 51.9107 41.552 51.8754C40.9113 51.6696 39.6902 50.6332 39.9851 49.6701C39.7019 50.6098 39.9144 51.5681 39.2759 52.3669C40.0169 52.2692 40.7708 51.827 41.5336 52.1557C41.2133 52.0207 39.9284 52.5611 39.6883 52.8292C39.3371 53.2197 39.8629 54.6226 40.0713 55.0611C40.5004 54.0984 41.0228 53.1183 41.7485 52.4015C41.7836 52.3666 41.8477 52.3901 41.83 52.4309C41.4182 53.4696 40.9773 54.4499 40.4082 55.4415C40.3788 55.494 40.3379 55.5348 40.2911 55.5697C40.9207 55.6529 41.5736 55.7244 42.2616 55.7551C43.422 55.8044 44.4544 55.7599 45.4637 55.6395C45.2503 54.9732 44.9549 54.3651 44.6013 53.7569C44.3637 53.3476 43.7295 52.9315 43.6494 52.4875C43.5807 52.1194 44.0319 51.5071 44.1905 51.157C44.4962 50.4802 44.8716 49.8502 45.3694 49.2497C45.5334 49.0457 45.8772 49.1165 45.9348 49.3328C46.1764 50.2794 46.5925 51.3609 47.4943 51.9819C47.5699 52.0288 47.5112 52.1572 47.4064 52.1219C46.7656 51.9161 45.5445 50.8796 45.8395 49.9166C45.5562 50.8621 45.7687 51.8146 45.1302 52.6134C45.8712 52.5157 46.625 52.0735 47.3879 52.4022C47.0676 52.2672 45.7827 52.8075 45.5427 53.0757C45.1972 53.4662 45.7172 54.8691 45.9256 55.3076C46.3547 54.3448 46.8771 53.3648 47.6028 52.648C47.6379 52.613 47.702 52.6365 47.6843 52.6774C47.2902 53.6577 46.8728 54.5913 46.3505 55.5246C47.3016 55.3865 48.2587 55.2017 49.3033 54.9938C49.9802 54.8609 50.6922 54.7165 51.4684 54.578C51.2833 54.1279 51.0457 53.701 50.7614 53.2799C50.541 52.9465 49.9181 52.618 49.8494 52.2499C49.7922 51.9519 50.2664 51.4273 50.4365 51.1415C50.7651 50.5757 51.1693 50.0451 51.6901 49.5381C51.8657 49.3633 52.2096 49.4166 52.2556 49.5919C52.4628 50.3692 52.8447 51.2519 53.7294 51.7445C53.7992 51.7855 53.7405 51.8847 53.6357 51.8611C52.7791 51.6548 52.2915 50.9996 51.9668 50.4732C52.2741 50.9703 51.7927 51.8804 51.7792 52.4235C52.1651 52.1207 52.8306 51.9236 53.3789 51.8897C51.3583 52.6796 51.998 53.2067 51.9938 54.4215C52.6378 53.6811 52.9844 52.9752 53.8207 52.2879C53.8558 52.2587 53.9199 52.2764 53.9023 52.3114C53.5266 53.0231 53.1335 53.7056 52.6704 54.3938C54.8057 54.1531 56.8043 54.6248 58.7389 55.0904C60.3296 55.4735 61.8329 55.839 63.4192 55.8366C65.4837 55.8353 67.8306 55.1279 70.0957 54.4495C71.9288 53.8987 73.6569 53.3827 75.1619 53.2517C77.3029 53.0578 79.219 53.7921 80.908 54.4266C81.8981 54.7967 82.7542 55.1198 83.4829 55.1973C84.7713 55.3228 85.9922 54.7297 86.5369 54.0826C86.7419 53.8319 86.9648 53.4528 86.8321 53.0495C86.3301 51.5065 87.0482 49.6158 87.0776 49.5341L87.1417 49.5576C87.3364 48.9272 87.741 48.3032 88.4253 47.7381C88.7294 47.4818 89.0802 47.2548 89.4657 47.0571C89.828 46.871 90.6222 46.5573 91.2001 46.4067C90.0462 46.1706 88.8689 45.9577 86.7088 44.966L86.6795 45.0009ZM75.9563 36.2108C76.91 36.9721 78.7247 38.3778 78.4083 40.4856C78.4199 40.4856 80.9196 41.0985 83.802 42.3664C82.8395 40.7698 79.958 37.557 75.9563 36.2108ZM69.8546 36.6821C70.7206 37.5134 71.2073 38.4373 71.1287 39.2256C72.5805 39.3339 72.7086 39.3634 74.02 39.594C73.3933 38.6815 72.0982 37.1426 69.8546 36.6821ZM61.3574 36.7452C63.1086 37.9406 62.8427 38.9153 62.7129 39.3414C63.6872 39.2326 64.6615 39.1413 65.5598 39.0907C66.0556 39.0626 66.5046 39.046 66.907 39.0469C66.1226 38.2158 64.2447 36.5822 61.3574 36.7394L61.3574 36.7452ZM55.0676 37.625C55.6144 38.0117 56.5395 38.6328 56.295 40.18C57.3802 40.0306 58.4421 39.8927 59.4864 39.7665C59.6031 39.7493 59.7198 39.732 59.8365 39.7147C58.9529 38.8951 57.527 38.0802 55.0676 37.625ZM47.9656 38.9644C47.8081 38.9758 47.6564 38.9871 47.4989 39.0043C48.2322 39.4148 48.8536 40.1871 48.8849 41.2209C49.3926 41.1461 49.906 41.0771 50.4136 41.0023C51.1955 40.8814 52.0241 40.7547 52.7709 40.6512C52.4054 40.1189 50.1354 38.8582 47.9597 38.9644L47.9656 38.9644ZM41.517 40.2118C41.9181 40.5982 42.4935 41.1543 42.3852 42.1061C43.3245 41.9855 44.2755 41.8591 45.2266 41.7268C44.9192 41.2414 43.5346 40.2805 41.517 40.2118ZM34.6955 41.4C35.0907 41.7747 35.6195 42.3365 35.3258 42.9199C36.6792 42.7944 36.8134 42.783 38.2545 42.611C37.8651 42.2246 36.6782 41.4102 34.6955 41.4ZM28.4611 41.4447C28.6579 41.8715 29.0279 42.7835 28.3319 43.3543C28.6877 43.3492 29.0376 43.3442 29.6325 43.3221C30.28 43.3002 30.6183 43.2775 31.1316 43.2495C30.8479 42.659 29.5624 41.6924 28.4611 41.4447ZM23.5738 41.5099C23.1641 41.9412 22.4676 42.6406 21.4692 42.983C22.0986 43.0895 22.7048 43.1784 23.8008 43.2859C24.4422 43.3282 24.3488 43.3455 25.1711 43.3532C24.8992 42.7218 24.3016 41.8444 23.568 41.5041L23.5738 41.5099ZM18.37 28.6785C19.9767 27.8352 20.704 26.6687 21.0275 25.8809C20.7044 26.5519 19.9663 27.4789 18.2727 28.1527C15.3002 29.3318 13.7288 30.0876 13.7288 30.0876C13.7288 30.0876 14.8011 28.6415 17.1842 27.5662C19.5674 26.491 17.3653 25.8086 15.6598 26.5466C15.6598 26.5466 17.699 25.4414 16.5835 24.23C16.2541 25.0469 14.9295 25.2718 14.1062 25.5503C13.2888 25.8289 12.376 26.6796 12.3702 26.6854C11.8707 27.7648 11.546 28.8972 11.408 30.0066C11.2941 30.8941 11.3144 31.741 11.4108 32.5472C12.4645 31.4048 15.8168 30.0163 18.3758 28.6786L18.37 28.6785ZM35.2761 25.4508C35.2438 19.6803 31.8449 17.7104 31.0826 17.2532C35.8814 9.13372 44.6831 5.36839 52.068 3.20025C34.5241 7.03399 29.0815 17.4707 29.0227 17.5991L28.964 17.7158L28.8471 17.7856C27.3802 18.6818 25.7105 19.1746 24.4266 19.4405C28.9205 20.1337 33.5146 23.8817 35.2761 25.4567L35.2761 25.4508ZM10.7988 19.1068C12.7197 18.4686 14.5433 17.3103 15.8593 16.2094C13.6111 17.0571 11.3133 18.7166 10.7988 19.1068ZM5.22394 22.3361C3.50491 21.9468 3.11949 20.4274 3.11949 20.4274C2.46851 21.4715 1.89998 22.2821 1.64753 24.4308C1.25792 27.4437 2.53238 29.882 2.84531 30.4492C2.92833 30.0581 3.02886 29.6611 3.14105 29.2642L3.12931 29.2934C3.12931 29.2934 1.47866 26.0191 2.61868 21.8806C2.61868 21.8806 2.3344 26.4648 3.63604 27.8052C3.75961 27.49 3.90071 27.1691 4.04762 26.8482C3.51465 25.8308 3.02383 24.428 3.05319 22.7051C3.05319 22.7051 3.51254 24.7678 4.37655 26.1773C4.54097 25.8564 4.71705 25.5297 4.91062 25.2089L4.92803 25.2382C4.91429 24.1635 5.04603 23.1826 5.22973 22.3478L5.22394 22.3361ZM5.34801 45.2137C5.06978 44.7283 1.77768 38.9039 2.58897 32.0431L2.58889 32.0664C0.438415 28.3121 0.628384 24.0197 1.75018 21.7561C2.61364 19.9883 3.83641 18.8696 3.83641 18.8696C3.1649 20.778 4.90108 21.2724 5.4897 21.3847C5.91451 19.978 6.26649 19.3772 6.26649 19.3772C7.29766 19.6832 8.39996 19.6681 9.50292 19.4544L9.4563 19.4426C11.1479 17.665 16.8948 15.2596 16.9065 15.2538C17.2109 14.9333 17.4569 14.6418 17.6269 14.3852C18.9401 12.4139 20.2004 12.2473 20.2004 12.2473C20.2004 12.2473 19.0123 13.4362 18.9026 14.7851C26.7833 12.5947 28.9136 8.77383 41.7375 3.86091C53.6212 -0.691973 62.8106 1.40743 62.8106 1.40743C60.8443 1.67762 59.0062 1.99481 57.2788 2.34729C56.5201 2.50916 55.703 2.7001 54.8449 2.91432C47.4844 4.80801 37.0662 8.87934 32.8438 17.2571C33.6577 17.9772 36.1966 20.7162 35.6867 26.4621C35.6867 26.4621 27.586 19.8679 22.9544 20.1731C18.3229 20.4784 15.9899 22.2137 15.9899 22.2137L16.0192 22.1904C14.727 23.1513 13.6964 24.3288 12.9397 25.6062C12.969 25.5654 13.4789 24.8247 14.6398 24.7338C15.8356 24.6372 16.3412 23.4936 16.3412 23.4936C17.0172 23.6352 17.552 24.127 18.9369 25.0119C20.3217 25.9027 21.801 23.1376 21.801 23.1376C22.888 29.1616 15.264 31.3467 13.2954 32.271C11.5897 33.0733 11.749 34.2359 11.8238 34.5281C12.5732 37.0178 13.9434 38.7554 14.2803 39.1475L14.7531 39.0259L14.787 39.3296C14.8607 39.9314 15.5222 40.8907 16.2617 41.2194C16.7857 41.4541 17.604 40.9303 17.8731 40.7031L18.1479 40.4759L18.3043 40.7917C18.6807 41.5576 19.0867 42.1951 20.2107 42.6414C21.5229 42.621 23.494 40.9841 23.494 40.9841C24.6302 41.2611 26.664 43.3506 26.6757 43.3623C29.2613 42.7431 27.6174 40.8997 27.6174 40.8997C29.6881 40.7816 32.9457 43.125 32.9515 43.125C33.3365 43.0966 33.7216 43.0624 34.1182 43.0282C35.7477 42.3602 33.513 41.0061 33.513 41.0061C37.3169 40.5472 39.9465 42.3986 39.9581 42.4103C40.3723 42.3586 40.7924 42.307 41.2125 42.2554C42.4236 41.1366 40.3987 39.8122 40.3987 39.8122C43.9984 39.3996 46.6277 41.3094 46.8836 41.5027C47.1403 41.4682 47.4029 41.4279 47.6597 41.3934C48.8184 40.2337 46.4268 38.7333 46.4268 38.7333C50.6409 37.7204 54.6268 40.2698 54.8071 40.387C54.8888 40.3755 54.9764 40.364 55.0581 40.3525C56.8715 38.7679 53.5355 37.1544 53.5355 37.1544C57.1407 36.8236 61.4183 39.3152 61.7268 39.4969C61.7443 39.497 61.756 39.497 61.7735 39.4912C63.2202 37.7072 59.877 36.485 59.877 36.485C64.9661 35.4157 68.4998 38.8635 68.7438 39.1152C69.2395 39.128 69.7176 39.1524 70.1957 39.1826C70.1782 39.1826 70.155 39.1709 70.155 39.1709C70.842 37.8115 68.5968 36.1187 68.5968 36.1187C73.1107 36.1111 76.124 39.9549 76.124 39.9549L76.1007 39.9549C76.5086 40.0375 76.9107 40.126 77.3011 40.2145C77.2778 40.2086 77.2662 40.2027 77.2662 40.2027C79.0454 38.3961 74.1509 35.5059 74.1509 35.5059C81.4687 35.8257 86.8183 43.6521 86.8183 43.6521C88.6232 44.5029 90.5105 45.132 92.5397 45.2182C93.1403 45.2429 93.7469 45.2209 94.3416 45.2689C94.4465 45.275 94.5572 45.2927 94.668 45.3105C94.668 45.3105 94.668 45.2988 94.668 45.293C96.6314 40.8351 92.9995 35.4714 92.9647 35.4188C92.8486 35.2491 92.867 35.0214 93.0075 34.8698C93.0894 34.7766 93.2062 34.7243 93.3287 34.7129C93.4104 34.7072 93.492 34.7191 93.5677 34.7543C95.2445 35.5464 96.7097 36.7995 97.3475 37.8697L100.062 32.0293C100.127 31.8601 100.291 31.7495 100.471 31.7323C100.506 31.7324 100.541 31.7325 100.582 31.7326C100.804 31.7681 100.966 31.9495 100.971 32.1656L101.516 38.1709C103.363 36.9426 106.33 37.3171 106.33 37.3171C106.552 37.3176 106.744 37.4757 106.784 37.6919C106.824 37.908 106.701 38.118 106.496 38.1994C102.777 39.6338 101.821 46.0037 101.725 46.716C103.096 46.795 104.46 46.7921 105.824 47.0813C107.91 47.5298 109.185 48.0757 110.216 48.5102C111.328 48.9857 112.08 49.2969 113.176 49.2176C115.463 49.0415 117.876 49.3681 120.562 50.215C123.131 51.0208 125.623 50.5473 125.646 50.5415L126.247 50.426L126.042 50.7643C125.929 51.2956 125.251 53.3441 121.541 53.7039C120.829 53.7666 120.17 53.8294 119.552 53.8806C116.495 54.1367 114.284 54.3246 110.996 55.5556C109.087 56.2698 106.403 56.5209 103.813 56.7546C100.85 57.0285 98.0552 57.2793 96.3667 58.1751C95.7298 58.5124 95.1747 58.8207 94.6839 59.0942C92.7322 60.1879 91.6162 60.8162 88.9856 60.9623C88.9214 60.9622 88.8572 60.962 88.793 60.9736C88.2037 61.0716 87.5504 61.1169 86.7806 61.0976C85.9584 61.0842 85.1538 61.0298 84.3784 60.9756C83.2997 60.9031 82.291 60.8366 81.3578 60.8755C80.5295 60.9321 78.2772 61.2776 76.8233 63.4295C75.0178 66.1063 65.0289 69.1682 59.2929 66.7552C55.9737 65.3637 53.2694 64.8613 51.2527 64.5532C48.3015 64.6343 41.741 64.5556 34.0138 62.8741C34.0138 62.8741 29.9538 63.1748 24.4912 64.3192C19.0345 65.4695 13.634 63.8456 11.322 62.9236C9.01004 61.9957 6.44628 61.3476 5.06724 62.1272C5.06724 62.1272 7.86172 60.1709 8.85358 58.3742C9.84542 56.5834 12.1134 55.0932 14.1888 55.308C9.32378 52.3303 6.41373 48.9832 5.36555 45.2079L5.34801 45.2137Z" stroke="white" stroke-linejoin="round"/>
</g>
</g>
<path id="Vector_20" d="M106.481 37.8207C106.481 37.8207 104.393 38.1891 102.522 41.429C101.191 43.7307 100.563 46.6293 100.563 46.6293L101.526 46.5557C101.526 46.5557 102.401 42.7124 102.935 41.8268C103.468 40.9411 104.203 39.0873 106.487 37.8207L106.481 37.8207Z" fill="white" stroke="white" stroke-linejoin="round"/>
<path id="Vector_21" d="M93.1445 34.9971C93.1445 34.9971 94.6845 36.3602 95.7038 40.12C96.7231 43.8799 95.6273 45.721 95.6273 45.721L94.935 45.3518C94.935 45.3518 96.051 42.6589 95.0065 39.4766C93.962 36.2943 93.1387 34.9971 93.1387 34.9971L93.1445 34.9971Z" fill="white" stroke="white" stroke-linejoin="round"/>
</g>
</svg>
