<svg width="15" height="15" viewBox="0 0 15 15" fill="none" xmlns="http://www.w3.org/2000/svg">
<g clip-path="url(#clip0_152_768)">
<path d="M7.5 15C6.36628 15 5.23256 15 4.18605 14.9128C3.22674 14.8256 2.35465 14.4767 1.56977 13.9535C0.872093 13.343 0.348837 12.6453 0.174419 11.686C0.0872093 10.9012 0 10.1163 0 9.33139V5.6686C0 4.97093 0 4.09884 0.174419 3.31395C0.436046 2.35465 0.872093 1.56977 1.56977 1.04651C2.26744 0.523256 3.13953 0.174419 4.18605 0.0872093C5.23256 0 6.36628 0 7.5 0C8.63372 0 9.76744 0 10.814 0.0872093C11.7733 0.174419 12.6453 0.523256 13.4302 1.04651C14.1279 1.65698 14.6512 2.35465 14.8256 3.31395C15 4.09884 15 4.97093 15 5.6686V9.33139C15 10.0291 15 10.9012 14.8256 11.686C14.6512 12.6453 14.1279 13.343 13.4302 13.9535C12.7326 14.4767 11.8605 14.8256 10.814 14.9128C9.76744 15 8.80814 15 7.67442 15H7.5ZM7.5 1.30814C6.36628 1.30814 5.31977 1.30814 4.27326 1.39535C3.48837 1.48256 2.96512 1.65698 2.44186 2.00581C2.00581 2.52907 1.74419 3.05233 1.48256 3.57558C1.30814 4.27326 1.30814 4.97093 1.30814 5.6686V9.33139C1.30814 10.0291 1.30814 10.7267 1.48256 11.4244C1.74419 12.1221 2.00581 12.6453 2.44186 12.9942C3.05233 13.4302 3.57558 13.6919 4.27326 13.6919C4.79651 13.6919 5.23256 13.6919 5.75581 13.6919C6.27907 13.6919 6.88953 13.6919 7.5 13.6919C8.63372 13.6919 9.68023 13.6919 10.7267 13.6047C11.5116 13.5174 12.0349 13.343 12.5581 12.907C12.9942 12.4709 13.343 11.9477 13.4302 11.3372C13.6046 10.6395 13.6047 10.0291 13.6047 9.24419V5.6686C13.6047 4.97093 13.6046 4.27326 13.4302 3.57558C13.1686 2.87791 12.907 2.35465 12.4709 2.00581C11.8605 1.56977 11.3372 1.39535 10.6395 1.39535C9.68023 1.30814 8.63372 1.30814 7.5 1.30814ZM7.5 11.25C5.40698 11.25 3.75 9.59302 3.75 7.5C3.75 5.40698 5.40698 3.75 7.5 3.75C9.59302 3.75 11.25 5.40698 11.25 7.5C11.25 9.50581 9.50581 11.25 7.5 11.25ZM7.5 5.05814C6.19186 5.05814 5.05814 6.10465 5.05814 7.5C5.05814 8.89535 6.10465 9.94186 7.5 9.94186C8.80814 9.94186 9.94186 8.89535 9.94186 7.5C9.94186 6.10465 8.80814 5.05814 7.5 5.05814ZM11.5116 4.53488C10.9884 4.53488 10.5523 4.09884 10.5523 3.57558C10.5523 3.05233 10.9884 2.61628 11.5116 2.61628C12.0349 2.61628 12.4709 3.05233 12.4709 3.57558C12.4709 4.09884 12.0349 4.53488 11.5116 4.53488Z" fill="#D3B096"/>
</g>
<defs>
<clipPath id="clip0_152_768">
<rect width="15" height="15" fill="white"/>
</clipPath>
</defs>
</svg>
