<svg width="17" height="17" viewBox="0 0 17 17" fill="none" xmlns="http://www.w3.org/2000/svg">
<g id="Instagram" clip-path="url(#clip0_614_590)">
<path id="Vector" d="M8.5 17C7.21512 17 5.93023 17 4.74419 16.9012C3.65698 16.8023 2.6686 16.407 1.77907 15.814C0.988372 15.1221 0.395349 14.3314 0.197674 13.2442C0.0988372 12.3546 0 11.4651 0 10.5756V6.42442C0 5.63372 0 4.64535 0.197674 3.75581C0.494186 2.6686 0.988372 1.77907 1.77907 1.18605C2.56977 0.593023 3.55814 0.197674 4.74419 0.0988372C5.93023 0 7.21512 0 8.5 0C9.78488 0 11.0698 0 12.2558 0.0988372C13.343 0.197674 14.3314 0.593023 15.2209 1.18605C16.0116 1.87791 16.6047 2.6686 16.8023 3.75581C17 4.64535 17 5.63372 17 6.42442V10.5756C17 11.3663 17 12.3546 16.8023 13.2442C16.6047 14.3314 16.0116 15.1221 15.2209 15.814C14.4302 16.407 13.4419 16.8023 12.2558 16.9012C11.0698 17 9.98256 17 8.69767 17H8.5ZM8.5 1.48256C7.21512 1.48256 6.02907 1.48256 4.84302 1.5814C3.95349 1.68023 3.36046 1.87791 2.76744 2.27326C2.27326 2.86628 1.97674 3.4593 1.68023 4.05233C1.48256 4.84302 1.48256 5.63372 1.48256 6.42442V10.5756C1.48256 11.3663 1.48256 12.157 1.68023 12.9477C1.97674 13.7384 2.27326 14.3314 2.76744 14.7267C3.4593 15.2209 4.05233 15.5174 4.84302 15.5174C5.43605 15.5174 5.93023 15.5174 6.52326 15.5174C7.11628 15.5174 7.80814 15.5174 8.5 15.5174C9.78488 15.5174 10.9709 15.5174 12.157 15.4186C13.0465 15.3198 13.6395 15.1221 14.2326 14.6279C14.7267 14.1337 15.1221 13.5407 15.2209 12.8488C15.4186 12.0581 15.4186 11.3663 15.4186 10.4767V6.42442C15.4186 5.63372 15.4186 4.84302 15.2209 4.05233C14.9244 3.26163 14.6279 2.6686 14.1337 2.27326C13.4419 1.77907 12.8488 1.5814 12.0581 1.5814C10.9709 1.48256 9.78488 1.48256 8.5 1.48256ZM8.5 12.75C6.12791 12.75 4.25 10.8721 4.25 8.5C4.25 6.12791 6.12791 4.25 8.5 4.25C10.8721 4.25 12.75 6.12791 12.75 8.5C12.75 10.7733 10.7733 12.75 8.5 12.75ZM8.5 5.73256C7.01744 5.73256 5.73256 6.9186 5.73256 8.5C5.73256 10.0814 6.9186 11.2674 8.5 11.2674C9.98256 11.2674 11.2674 10.0814 11.2674 8.5C11.2674 6.9186 9.98256 5.73256 8.5 5.73256ZM13.0465 5.13953C12.4535 5.13953 11.9593 4.64535 11.9593 4.05233C11.9593 3.4593 12.4535 2.96512 13.0465 2.96512C13.6395 2.96512 14.1337 3.4593 14.1337 4.05233C14.1337 4.64535 13.6395 5.13953 13.0465 5.13953Z" fill="#183250"/>
</g>
<defs>
<clipPath id="clip0_614_590">
<rect width="17" height="17" fill="white"/>
</clipPath>
</defs>
</svg>
