<svg width="17" height="17" viewBox="0 0 17 17" fill="none" xmlns="http://www.w3.org/2000/svg">
<path d="M1.68182 11.2272H15.3181M1.68182 5.77271H15.3181M8.49998 16C12.6421 16 16 12.6421 16 8.49998C16 4.35785 12.6421 1 8.49998 1C4.35785 1 1 4.35785 1 8.49998C1 12.6421 4.35785 16 8.49998 16ZM8.49998 16C10.5454 16 11.2272 12.5909 11.2272 8.49998C11.2272 4.40908 10.5454 1 8.49998 1C6.45453 1 5.77271 4.40908 5.77271 8.49998C5.77271 12.5909 6.45453 16 8.49998 16Z" stroke="#D3B096" stroke-width="1.4"/>
</svg>
