<svg width="59" height="59" viewBox="0 0 59 59" fill="none" xmlns="http://www.w3.org/2000/svg">
<path d="M49.4057 30.6593C48.9425 30.0336 48.4793 29.4079 47.7073 28.7822C46.9354 28.3129 46.1634 27.8436 45.0827 27.6872C44.0019 27.3743 43.2299 27.3743 42.458 27.3743L39.9877 27.5308L43.2299 22.0559C43.5387 21.5866 43.5387 21.4302 43.5387 21.2738C43.5387 21.1173 43.5387 21.1174 43.3843 21.1174C43.3843 21.1174 43.2299 20.9609 43.0755 20.9609C42.9212 20.9609 42.9212 20.9609 42.7668 21.1174C42.7668 21.1174 42.6124 21.4302 42.458 21.7431L41.9948 22.6816L35.5103 20.3352C33.3488 22.0559 31.9592 23.6201 31.0329 24.7151C30.2609 25.9665 29.7977 26.9051 29.7977 27.8436V28C28.8713 28.3129 28.2538 28.7822 27.945 29.095C27.3274 29.7207 27.0186 30.5028 27.0186 31.4414C27.0186 32.0671 27.173 32.5364 27.4818 33.0056C27.7906 33.4749 28.0994 33.9442 28.717 34.257C28.717 34.257 28.8713 34.257 28.8713 34.4135C28.0994 35.0392 27.4818 35.5084 26.7098 35.8213C25.1659 36.6034 23.622 37.0727 21.9236 37.0727H20.8429V26.1229H27.173L29.0257 22.838H24.5483L30.2609 16.8939L29.7977 16.4246C29.1801 16.581 28.5626 16.581 28.0994 16.581C27.173 16.581 26.2467 16.4246 25.3203 16.2682C24.3939 15.9553 23.3132 15.4861 21.9236 14.8604L14.6671 21.1174V28.9386C14.6671 30.5028 14.6671 31.4414 14.5127 31.7542C14.3584 32.0671 14.0496 32.5364 13.2776 33.1621C11.7337 31.1285 10.9617 28.9386 10.9617 26.5922C10.9617 24.8715 11.4249 23.1509 12.3512 21.5866C13.2776 20.0224 14.5128 18.6146 16.3655 17.5196L16.0567 17.0503C14.5127 17.8324 13.2776 18.771 12.3512 19.5531C10.9617 20.8045 10.0353 22.2123 9.26337 23.7766C8.4914 25.3408 8.18262 27.0615 8.18262 28.7822C8.18262 31.5978 9.10898 34.1006 10.8073 36.2906C12.9688 38.9498 16.0567 40.3576 19.9165 40.3576C22.3868 40.3576 24.5483 39.7319 26.401 38.4805C27.6362 37.6984 28.7169 36.6034 29.7977 35.1956C30.1065 35.1956 30.2609 35.352 30.5697 35.352C31.496 35.5084 32.1136 35.5084 32.5768 35.5084L34.7383 35.352L33.5032 37.542C32.5768 37.3855 31.8048 37.2291 31.1872 37.2291C29.6433 37.2291 28.4082 37.542 27.4818 38.1677C26.7098 38.7934 26.2467 39.5755 26.2467 40.3576C26.2467 41.1397 26.5554 41.7654 27.3274 42.2347C27.945 42.8604 29.0257 43.0168 30.2609 43.0168C31.9592 43.0168 34.2751 42.3911 37.0542 41.1397C38.5981 41.609 39.9877 42.0783 41.0684 42.5476C44.3107 40.8269 46.6266 39.2626 48.0161 37.8548C49.2513 36.2906 50.0233 34.8827 50.0233 33.3185C50.0233 32.2235 49.8689 31.4414 49.4057 30.6593ZM20.9973 17.8324C22.078 18.3017 23.0044 18.771 23.7764 18.9274C24.5483 19.2403 25.4747 19.3967 26.7098 19.5531L20.9973 25.3408V17.8324ZM20.2253 36.9163C18.8358 36.7598 17.6006 36.447 16.6743 35.8213C15.7479 35.352 14.8215 34.5699 13.7408 33.4749C15.4391 32.0671 16.5199 30.9721 17.2918 30.0336C17.6006 29.5643 17.9094 29.2514 17.9094 28.9386C18.0638 28.6257 18.0638 28 18.0638 27.0615V19.2402L20.0709 17.5196V36.9163H20.2253ZM32.5768 23.7766C33.1944 23.3073 33.9663 22.9944 34.7383 22.9944C35.3559 22.9944 36.1278 23.1509 37.0542 23.4637C37.9806 23.7766 39.0613 24.2458 40.6052 25.028L39.0613 27.8436C36.7454 28 35.3559 28.1565 34.5839 28.1565C33.6575 28.1565 32.8856 28.0001 32.4224 27.5308C31.9592 27.0615 31.6504 26.5922 31.6504 25.8101C31.8048 24.8715 32.1136 24.2458 32.5768 23.7766ZM33.3488 32.6928C31.6504 32.6928 30.4153 32.3799 29.6433 31.9107C29.0257 31.4414 28.8713 30.9721 28.8713 30.3464C28.8713 29.7207 29.1801 29.095 29.9521 28.6257C30.2609 29.2514 30.5697 29.7207 31.1872 30.0336C31.8048 30.3464 32.7312 30.5028 33.9663 30.5028C35.2015 30.5028 36.4366 30.3464 37.6718 30.19L36.591 32.2235C35.2015 32.5364 34.1207 32.6928 33.3488 32.6928ZM30.5697 42.2347C29.6433 42.2347 28.8713 42.0783 28.4082 41.7654C28.0994 41.609 27.945 41.2962 27.945 40.8269C27.945 40.514 28.0994 40.2012 28.4082 39.8883C28.8713 39.5755 29.4889 39.4191 30.2609 39.4191C31.8048 39.4191 33.8119 39.8883 36.2822 40.6705C33.9663 41.7654 31.9592 42.2347 30.5697 42.2347ZM36.591 38.0112C35.9734 37.8548 35.2015 37.6984 34.2751 37.3855L35.5103 35.0392C36.1278 35.0392 37.5174 34.8827 39.6789 34.7263C40.4509 34.5699 41.0684 34.5699 41.5316 34.5699C41.9948 34.5699 42.3036 34.7263 42.6124 34.8827C42.9212 35.1956 43.0755 35.352 43.0755 35.6649C43.0755 36.7598 41.8404 37.6984 39.5245 38.7934C38.2893 38.4805 37.2086 38.1677 36.591 38.0112ZM46.781 37.542C46.1634 38.4805 45.0827 39.2626 43.8475 40.2012L40.914 39.4191C43.0755 38.4805 44.3107 37.6984 45.0827 36.9163C45.7002 36.2906 46.009 35.6649 46.009 34.8827C46.009 34.1006 45.7002 33.4749 45.0827 32.8492C44.4651 32.2235 43.5387 32.0671 42.3036 32.0671C41.3772 32.0671 39.8333 32.2235 37.5174 32.3799L38.7525 30.3464C40.2965 30.19 41.3772 30.0336 42.458 30.0336C43.6931 30.0336 44.6195 30.19 45.5458 30.6593C46.4722 31.1285 47.0898 31.5978 47.553 32.3799C48.0161 33.0056 48.1705 33.7878 48.1705 34.5699C47.8617 35.5084 47.3986 36.6034 46.781 37.542Z" fill="#D3B096"/>
<path d="M29.026 58.8158C25.1661 58.8158 21.3063 58.0337 17.7553 56.4694C14.3586 55.0616 11.1163 52.8717 8.49164 50.2124C5.86695 47.5532 3.70544 44.4247 2.3159 40.8269C0.771967 37.2291 0 33.3185 0 29.4079C0 25.4973 0.771967 21.5866 2.3159 17.9889C3.70544 14.5475 5.86695 11.2626 8.49164 8.60337C11.1163 5.94415 14.2042 3.7542 17.7553 2.34637C21.3063 0.782125 25.1661 0 29.026 0C32.8858 0 36.7457 0.782125 40.2967 2.34637C43.6934 3.7542 46.9356 5.94415 49.5603 8.60337C52.185 11.2626 54.3465 14.3911 55.736 17.9889C57.28 21.5866 58.0519 25.4973 58.0519 29.4079C58.0519 33.3185 57.28 37.2291 55.736 40.8269C54.3465 44.2683 52.185 47.5532 49.5603 50.2124C46.9356 52.8717 43.8477 55.0616 40.2967 56.4694C36.7457 58.0337 33.0402 58.8158 29.026 58.8158ZM29.026 1.56425C25.3205 1.56425 21.7695 2.34637 18.3728 3.7542C15.1306 5.16202 12.1971 7.19555 9.72679 9.69835C7.25649 12.2011 5.24938 15.1732 3.85984 18.4581C2.4703 21.8995 1.69833 25.4973 1.69833 29.2515C1.69833 33.0057 2.4703 36.6034 3.85984 40.0448C5.24938 43.3297 7.25649 46.3018 9.72679 48.8046C12.1971 51.3074 15.1306 53.3409 18.3728 54.7487C21.7695 56.1566 25.3205 56.9387 29.026 56.9387C32.7314 56.9387 36.2825 56.1566 39.6791 54.7487C42.9214 53.3409 45.8549 51.3074 48.3252 48.8046C50.7955 46.3018 52.8026 43.3297 54.1921 40.0448C55.5816 36.6034 56.3536 33.0057 56.3536 29.2515C56.3536 25.4973 55.5816 21.8995 54.1921 18.4581C52.8026 15.1732 50.7955 12.2011 48.3252 9.69835C45.8549 7.19555 42.9214 5.16202 39.6791 3.7542C36.4369 2.18995 32.7314 1.56425 29.026 1.56425Z" fill="#D3B096"/>
</svg>
