<svg width="34" height="35" viewBox="0 0 34 35" fill="none" xmlns="http://www.w3.org/2000/svg">
<g id="Vector">
<path d="M16.15 8.59901H18.7V16.3381H25.5V18.9178H18.7V25.797H16.15V18.9178H8.5V16.3381H16.15V8.59901ZM17 0C26.3755 0 34 7.71332 34 17.198C34 26.6827 26.3755 34.3961 17 34.3961L2.125 34.826C0.246498 34.826 0 34.5766 0 32.6763V17.198C0 7.71332 7.6245 0 17 0ZM17.425 31.8164C24.922 31.8164 31.45 24.7824 31.45 17.198C31.45 9.6137 24.497 2.5797 17 2.5797C9.503 2.5797 2.55 9.6137 2.55 17.198C2.55 24.7824 9.928 31.8164 17.425 31.8164Z" fill="#D3B096"/>
</g>
</svg>
