<svg width="217" height="20" viewBox="0 0 217 20" fill="none" xmlns="http://www.w3.org/2000/svg">
<path d="M14.2959 3.63448C13.4424 3.42068 12.5889 3.42068 12.1622 3.20689C11.5221 2.9931 10.882 2.7793 10.0285 2.35171V8.12412L14.2959 3.63448ZM9.38836 2.13793L7.89475 3.42068V9.62067C7.89475 10.262 7.89475 10.6896 7.68138 10.9034C7.68138 11.1172 7.46801 11.5448 7.25464 11.7586C6.61452 12.4 5.76104 13.2551 4.48081 14.3241C5.12092 15.1793 5.97441 15.6069 6.61452 16.0344C7.25464 16.462 8.3215 16.6758 9.38836 16.8896V2.13793ZM6.40115 1.49655L6.61452 1.92414C5.12092 2.77931 4.05406 3.84827 3.41395 5.13102C2.77383 6.41378 2.34709 7.69653 2.34709 8.97929C2.34709 10.6896 2.9872 12.4 4.05406 13.8965C4.48081 13.4689 4.90755 13.0413 4.90755 12.8276C4.90755 12.6138 5.12092 11.7586 5.12092 10.6896V4.70344L10.882 0C11.9488 0.427585 12.8023 0.85517 13.4424 1.06896C14.0825 1.28276 14.936 1.28275 15.5761 1.28275C16.0029 1.28275 16.4296 1.28276 16.8564 1.06896L17.2831 1.49655L12.8023 5.98619H16.2163L14.7227 8.5517H10.0285V16.8896H10.882C12.1622 16.8896 13.229 16.6758 14.5093 16.0344C15.3628 15.6069 16.4296 14.9655 17.2831 13.8965L17.4965 14.3241C16.4296 15.8207 15.3628 17.1034 14.2959 17.7448C12.8023 18.6 11.0953 19.0275 9.17498 19.0275C6.18778 19.0275 3.84069 17.9586 2.13372 16.0344C0.853487 14.3241 0 12.4 0 10.262C0 8.97929 0.213372 7.69653 0.853487 6.41378C1.4936 5.13102 2.13372 4.27585 3.20058 3.20689C4.05406 2.7793 5.12092 2.13793 6.40115 1.49655Z" fill="#D3B096"/>
<path d="M21.9774 11.1165L23.6844 11.9717L26.4582 8.12343C25.8181 8.33722 25.3914 8.33723 24.9646 8.33723C23.8978 8.33723 22.8309 7.90964 21.9774 7.26826V11.1165ZM24.1111 12.3993L20.9106 16.6751C21.3373 16.4613 21.5507 16.4613 21.9774 16.4613C22.4042 16.4613 22.6175 16.4613 22.8309 16.4613C23.8978 16.4613 24.7513 16.8889 25.8181 17.5303V13.682L24.1111 12.3993ZM25.6047 10.2614L28.5919 11.7579V17.1027C27.9518 17.1027 27.3117 17.3165 26.6716 17.5303C26.0315 17.7441 25.3914 18.3855 24.7513 19.0269C24.1111 18.5993 23.471 18.3855 23.0443 18.1717C22.6175 18.3855 22.1908 18.1717 21.5507 18.1717C20.6972 18.1717 20.0571 18.3855 19.417 18.8131C19.2036 19.0269 18.9902 19.0269 18.9902 19.0269C18.9902 19.0269 18.7768 19.0269 18.7768 18.8131L18.5635 18.5993C18.5635 18.5993 18.5635 18.3855 18.7768 18.1717C18.7768 18.1717 18.9902 17.9579 19.2036 17.5303L20.4838 16.0338L22.1908 13.8958L19.417 12.6131V7.69584C20.2704 7.48205 20.9106 7.05447 21.5507 6.84068C21.9774 6.41309 22.6175 5.98551 23.0443 5.34413C24.1111 5.77171 24.9646 6.1993 25.6047 6.41309C26.0315 6.62688 26.4582 6.62688 26.885 6.62688C27.3117 6.62688 27.7385 6.62688 27.9518 6.41309C28.1652 6.1993 28.3786 5.98551 28.3786 5.77171C28.3786 5.55792 28.3786 5.55792 28.1652 5.34413C27.7385 5.13034 27.7385 4.70275 27.7385 4.48895C27.7385 4.27516 27.7385 4.06137 27.9518 3.84758C28.1652 3.63379 28.1652 3.63379 28.3786 3.63379C28.5919 3.63379 28.8053 3.84758 29.0187 4.06138C29.2321 4.27517 29.2321 4.48896 29.2321 4.91654C29.2321 5.34413 29.2321 5.55792 29.0187 5.9855C28.8053 6.41309 28.5919 6.84068 28.1652 7.26826L25.6047 10.2614Z" fill="#D3B096"/>
<path d="M30.5117 6.84121L34.139 2.35156H34.5658L34.3524 5.98604H36.9129V7.48259H34.3524V16.2481L35.846 17.317L36.6995 16.6757L37.1262 17.1033L34.3524 19.455C33.2856 18.386 32.2187 17.7446 31.1518 17.5308V17.317C31.5786 17.1032 31.792 16.8895 31.792 16.6757C32.0053 16.4619 32.0053 15.8205 32.0053 15.3929V7.48259H30.7251V6.84121H30.5117Z" fill="#D3B096"/>
<path d="M47.3693 5.55859L49.7164 7.48273L48.6495 8.3379V15.1793C48.6495 16.0344 48.8629 16.462 49.0763 16.8896C49.2897 17.1034 49.2897 17.3172 49.503 17.3172C49.7164 17.3172 49.9298 17.1034 50.1431 16.8896L50.3565 17.3172L47.5827 19.4551C46.9426 19.0275 46.5158 18.5999 46.3024 18.1724C46.0891 17.7448 45.8757 17.1034 45.8757 16.2482C44.5955 17.1034 43.1019 18.1724 41.8216 19.4551C40.9682 18.8137 40.5414 18.1724 40.1147 17.7448C39.9013 17.3172 39.6879 16.6758 39.6879 15.8206V9.40687C39.6879 8.97928 39.6879 8.76549 39.4746 8.55169C39.2612 8.3379 39.0478 8.12411 38.8344 8.12411C38.6211 8.12411 38.4077 8.3379 37.981 8.55169L37.7676 8.12411L40.7548 5.55859L43.1019 7.48273L42.035 8.3379V15.1793C42.035 15.6068 42.035 16.0344 42.2484 16.2482C42.4618 16.462 42.6751 16.8896 43.1019 17.1034L45.449 15.3931V8.3379L45.0222 7.48273L47.3693 5.55859Z" fill="#D3B096"/>
<path d="M59.1038 5.55844L61.0241 7.91016L59.1038 9.6205L57.3968 7.48257L56.1165 8.55154V16.0343L57.6101 17.1032L58.8904 16.0343L59.1038 16.4619L55.6898 19.0274C55.0497 18.386 54.4096 17.9584 53.9828 17.7446C53.5561 17.5308 52.916 17.317 52.4892 17.1032V16.8895C52.916 16.6757 53.1293 16.2481 53.1293 16.0343C53.3427 15.8205 53.3427 15.1791 53.3427 14.5377V9.19291C53.3427 8.55154 53.3427 8.12395 53.1293 7.91016C52.916 7.69637 52.916 7.48257 52.7026 7.48257C52.4892 7.48257 52.2759 7.69637 51.8491 7.91016L51.6357 7.48257L54.4096 5.13086C55.0497 5.77224 55.6898 6.19982 55.9032 6.6274C56.1165 6.84119 56.1165 7.26878 56.1165 7.69636L59.1038 5.55844Z" fill="#D3B096"/>
<path d="M65.7191 1.06934H67.4261L65.7191 3.84864H65.2924L65.7191 1.06934ZM64.6523 5.55898L66.9994 7.48311L65.9325 8.55208V15.6072C65.9325 16.2486 65.9325 16.89 66.1459 17.1038C66.3592 17.3176 66.3592 17.5314 66.5726 17.5314H66.786C66.9994 17.5314 67.2127 17.3176 67.4261 17.1038L67.6395 17.5314L64.8656 19.8831C64.2255 19.4555 63.7988 19.0279 63.5854 18.6003C63.372 18.1727 63.372 17.3176 63.372 16.2486V8.97966L62.5186 7.48311L64.6523 5.55898Z" fill="#D3B096"/>
<path d="M72.9735 15.8206L76.3875 17.1034V8.97928C75.3206 8.55169 74.6805 8.12411 74.0404 7.91032C73.827 7.69652 73.4003 7.69652 72.9735 7.69652V15.8206ZM79.1613 7.48273V17.1034C77.8811 17.531 77.0276 17.9586 76.3875 18.3861C75.9607 18.5999 75.534 19.0275 75.1072 19.2413C73.827 18.3862 72.7601 17.9586 71.9067 17.7448C71.2665 17.531 70.6264 17.3172 69.7729 17.3172L69.5596 17.1034C69.9863 16.8896 70.1997 16.6758 70.1997 16.2482C70.4131 16.0344 70.4131 15.3931 70.4131 14.7517V7.69652C71.9067 7.26893 73.4003 6.41376 74.4671 5.55859C75.7473 6.41376 77.241 7.05514 79.1613 7.48273Z" fill="#D3B096"/>
<path d="M89.6164 5.55852L91.3234 7.48265L92.6036 6.1999L93.0304 6.62748C92.3903 7.05506 91.9635 7.48265 91.9635 7.91024C91.7501 8.33782 91.7501 8.76541 91.7501 9.40679V15.6068C91.7501 16.2481 91.7501 16.6757 91.9635 16.8895C92.1769 17.1033 92.1769 17.1033 92.3903 17.1033C92.6036 17.1033 92.817 16.8895 93.2437 16.6757L93.4571 17.1033L90.6833 19.455C90.0432 18.8137 89.403 18.3861 89.403 17.9585C89.1897 17.5309 89.1897 16.8895 89.1897 16.0344V8.9792L87.9094 7.48265L85.7757 9.19299V16.4619L86.8426 17.3171L84.4955 19.2412L82.1484 17.3171L83.2153 16.4619V9.83437C83.2153 8.9792 83.2153 8.33782 83.0019 7.91024C82.7885 7.69645 82.7885 7.48265 82.5751 7.48265C82.3618 7.48265 82.1484 7.69645 81.7217 7.91024L81.2949 7.69644L84.0688 5.34473C84.9222 5.9861 85.349 6.41369 85.5624 6.62748C85.7757 7.05506 85.7757 7.48265 85.7757 7.91024V8.33783L89.6164 5.55852Z" fill="#D3B096"/>
<path d="M108.393 8.97966L105.833 7.05553C105.619 7.26932 105.406 7.48311 105.193 7.48311V15.3934L108.607 16.89V8.97966H108.393ZM101.565 1.06934L110.314 7.05553C110.527 6.84173 110.527 6.41415 110.74 6.41415C110.954 6.20036 111.167 6.20036 111.594 5.98656V6.41415C111.381 6.62794 111.381 6.84173 111.167 7.05553C111.167 7.26932 111.167 7.6969 111.167 8.12449V16.89C110.1 17.3176 109.247 17.7452 108.82 17.959C108.393 18.1727 107.753 18.6003 107.113 19.2417C106.046 18.6003 105.193 18.1727 104.339 17.7452C103.486 17.5314 102.632 17.3176 101.779 17.1038V16.89C101.992 16.6762 102.206 16.2486 102.419 16.0348C102.419 15.821 102.632 15.1796 102.632 14.3245V7.48311C103.913 7.05553 104.553 6.84174 105.193 6.41415L101.779 4.06244V1.06934H101.565Z" fill="#D3B096"/>
<path d="M117.14 7.05514L116.927 13.0413L120.341 10.6896L117.14 7.05514ZM119.274 5.55859L122.901 9.83445L117.14 13.8965V16.2482L120.127 17.531L122.048 16.2482L122.261 16.6758L117.994 19.6689C117.14 19.2413 116.5 18.8137 115.86 18.5999C115.22 18.3862 114.58 18.1724 113.513 17.9586V17.531C113.726 17.3172 113.939 17.1034 114.153 16.8896C114.153 16.6758 114.366 16.0344 114.366 15.1793V7.69652C115.22 7.48273 115.86 7.05515 116.287 6.84135C116.927 6.62756 117.78 6.19997 119.274 5.55859Z" fill="#D3B096"/>
<path d="M139.76 10.4758C141.894 10.262 143.174 10.262 144.027 10.262C145.094 10.262 145.948 10.4758 146.588 10.9034C147.228 11.331 147.441 11.9724 147.441 12.6138C147.441 13.2551 147.228 13.8965 146.588 14.3241C145.948 14.9655 144.881 15.6069 142.961 16.462L145.521 17.1034C146.588 16.462 147.441 15.6069 148.081 14.7517C148.722 13.8965 148.935 13.0413 148.935 11.9724C148.935 11.331 148.722 10.6896 148.295 10.0483C147.868 9.40688 147.228 8.97929 146.588 8.5517C145.734 8.12412 144.881 7.91033 143.814 7.91033C142.961 7.91033 141.894 7.91032 140.613 8.12412L139.76 10.4758ZM137.199 14.9655C138.053 15.1793 138.693 15.3931 139.12 15.3931C139.547 15.6069 140.613 15.8206 141.894 16.2482C144.027 15.3931 145.094 14.3241 145.094 13.4689C145.094 13.2551 144.881 13.0414 144.667 12.6138C144.454 12.4 144.027 12.1862 143.814 12.1862C143.387 12.1862 142.747 12.1862 142.107 12.4C140.187 12.6138 138.906 12.6138 138.48 12.6138L137.199 14.9655ZM142.747 4.06206C141.467 3.42068 140.4 2.99309 139.547 2.7793C138.693 2.56551 138.053 2.35172 137.626 2.35172C136.773 2.35172 136.133 2.56551 135.706 2.9931C135.279 3.42068 134.852 4.06206 134.852 4.48964C134.852 5.13102 135.066 5.55861 135.493 5.98619C135.919 6.41378 136.559 6.62757 137.413 6.62757C138.053 6.62757 139.333 6.62757 141.254 6.41378L142.747 4.06206ZM140.187 8.76549C139.12 8.97929 138.053 8.97929 136.986 8.97929C135.919 8.97929 135.066 8.7655 134.426 8.5517C133.999 8.33791 133.572 7.91033 133.359 7.26895C132.719 7.69654 132.505 8.12411 132.505 8.76549C132.505 9.19308 132.719 9.83446 133.145 10.0483C133.786 10.4758 134.852 10.6896 136.346 10.6896C136.986 10.6896 138.053 10.6896 139.12 10.4758L140.187 8.76549ZM138.906 17.7448C136.773 17.1034 135.066 16.6758 133.572 16.6758C132.932 16.6758 132.292 16.8896 131.865 17.1034C131.652 17.3172 131.438 17.531 131.438 17.9586C131.438 18.1724 131.652 18.6 131.865 18.8137C132.292 19.0275 132.932 19.2413 133.786 19.2413C135.279 19.2413 136.773 18.8137 138.906 17.7448ZM138.266 0L144.027 1.92414L144.454 1.06896C144.667 0.85517 144.668 0.641376 144.881 0.641376H145.094H145.308V0.855174C145.308 1.06897 145.308 1.28276 145.094 1.49655L142.32 6.19999L144.454 5.98619C145.094 5.98619 145.948 5.9862 146.801 6.19999C147.655 6.41378 148.508 6.84137 149.148 7.26895C149.788 7.69654 150.215 8.33791 150.642 8.76549C151.069 9.40687 151.282 10.0482 151.282 10.9034C151.282 12.1862 150.642 13.6827 149.575 14.9655C148.508 16.2482 146.374 17.7448 143.601 19.0275C142.534 18.6 141.467 18.1724 139.973 17.7448C137.626 18.8137 135.493 19.4551 133.999 19.4551C132.932 19.4551 132.079 19.2413 131.438 18.8137C130.798 18.3862 130.585 17.7448 130.585 17.1034C130.585 16.462 131.012 15.8206 131.652 15.1793C132.292 14.5379 133.359 14.3241 134.852 14.3241C135.493 14.3241 136.133 14.3241 136.986 14.5379L138.053 12.6138L136.133 12.8276C135.706 12.8276 135.066 12.8276 134.426 12.6138C133.572 12.4 133.145 12.1862 132.505 11.9724C132.079 11.7586 131.652 11.331 131.438 10.9034C131.225 10.4758 131.012 10.0483 131.012 9.62067C131.012 8.7655 131.225 8.12412 131.865 7.48274C132.292 7.05516 132.719 6.84136 133.572 6.41378V6.19999C133.572 5.34482 133.999 4.48964 134.639 3.42068C135.066 2.7793 136.346 1.49655 138.266 0Z" fill="#D3B096"/>
<path d="M158.963 12.4L155.975 10.9034C155.549 11.9724 155.335 12.8275 155.335 13.6827C155.335 15.1793 155.975 16.2482 157.256 17.1034L159.176 15.6068V12.4H158.963ZM158.963 8.55169L154.482 7.26894L155.975 10.6896L158.749 11.9724V8.55169H158.963ZM162.377 5.98618L162.803 6.19998C162.377 6.84136 161.95 7.48273 161.95 7.91032C161.737 8.3379 161.737 8.76549 161.737 9.40687V14.9655C161.737 15.8206 161.737 16.462 161.95 16.6758C162.163 16.8896 162.163 17.1034 162.377 17.1034H162.59C162.59 17.1034 162.803 16.8896 163.23 16.6758L163.444 17.1034L160.67 19.4551C160.03 19.0275 159.603 18.3862 159.389 18.1724C159.176 17.7448 158.963 17.1034 158.963 16.462L155.122 19.6689C153.628 18.3862 152.988 17.3172 152.988 16.0344C152.988 15.1793 153.202 14.5379 153.415 13.8965C153.842 13.0413 154.482 11.9724 155.549 10.6896L154.055 7.26894L154.269 6.84135C154.695 6.84135 154.909 6.84135 154.909 6.84135C155.975 6.84135 156.829 6.41376 157.682 5.55859C158.323 5.98618 158.963 6.19997 159.816 6.41377C160.456 6.62756 161.096 6.84135 161.523 6.84135C161.737 6.84135 161.737 6.84135 161.95 6.84135C161.95 6.62756 162.163 6.41377 162.377 5.98618Z" fill="#D3B096"/>
<path d="M172.19 5.55844L174.111 7.91016L172.19 9.6205L170.483 7.48257L169.203 8.55154V16.0343L170.697 17.1032L171.977 16.0343L172.19 16.4619L168.99 19.0274C168.349 18.386 167.709 17.9584 167.283 17.7446C166.856 17.5308 166.216 17.317 165.789 17.1032V16.8895C166.216 16.6757 166.429 16.2481 166.429 16.0343C166.643 15.8205 166.643 15.1791 166.643 14.5377V9.19291C166.643 8.55154 166.643 8.12395 166.429 7.91016C166.216 7.69637 166.216 7.48257 166.002 7.48257C165.789 7.48257 165.576 7.69637 165.149 7.91016L164.936 7.48257L167.709 5.13086C168.35 5.77224 168.99 6.19982 169.203 6.6274C169.416 6.84119 169.416 7.26878 169.416 7.69636L172.19 5.55844Z" fill="#D3B096"/>
<path d="M182.647 5.55859L184.567 7.91032L182.647 9.62066L180.94 7.48273L179.66 8.55169V16.0344L181.153 17.1034L182.433 16.0344L182.647 16.462L179.446 19.2413C178.806 18.5999 178.166 18.1724 177.739 17.9586C177.312 17.7448 176.672 17.531 176.246 17.3172V17.1034C176.672 16.8896 176.886 16.462 176.886 16.2482C177.099 16.0344 177.099 15.3931 177.099 14.7517V9.40687C177.099 8.76549 177.099 8.3379 176.886 8.12411C176.672 7.91031 176.672 7.69652 176.459 7.69652C176.246 7.69652 176.032 7.91031 175.605 8.12411L175.179 7.91032L177.953 5.55859C178.593 6.19997 179.233 6.62756 179.446 7.05514C179.66 7.26894 179.66 7.69652 179.66 8.12411L182.647 5.55859Z" fill="#D3B096"/>
<path d="M189.26 1.06934H190.967L189.26 3.84864H188.833L189.26 1.06934ZM188.407 5.55898L190.754 7.48311L189.687 8.55208V15.6072C189.687 16.2486 189.687 16.89 189.9 17.1038C190.114 17.3176 190.114 17.5314 190.327 17.5314H190.54C190.754 17.5314 190.967 17.3176 191.18 17.1038L191.394 17.5314L188.62 19.8831C187.98 19.4555 187.553 19.0279 187.34 18.6003C187.126 18.1727 187.126 17.3176 187.126 16.2486V8.97966L186.06 7.48311L188.407 5.55898Z" fill="#D3B096"/>
<path d="M196.729 15.8206L200.143 17.1034V8.97928C199.076 8.55169 198.436 8.12411 197.796 7.91032C197.582 7.69652 197.156 7.69652 196.729 7.69652V15.8206ZM202.703 7.48273V17.1034C201.423 17.531 200.57 17.9586 199.929 18.3861C199.503 18.5999 199.076 19.0275 198.649 19.2413C197.369 18.3862 196.302 17.9586 195.449 17.7448C194.809 17.531 194.168 17.3172 193.315 17.3172L193.102 17.1034C193.528 16.8896 193.528 16.6758 193.742 16.2482C193.955 16.0344 193.955 15.3931 193.955 14.7517V7.69652C195.449 7.26893 196.942 6.41376 198.009 5.55859C199.289 6.41376 200.783 7.05514 202.703 7.48273Z" fill="#D3B096"/>
<path d="M213.159 5.55844L214.866 7.48257L216.146 6.19982L216.573 6.6274C215.933 7.26878 215.506 7.69637 215.506 7.91016C215.293 8.33775 215.293 8.76533 215.293 9.40671V15.6067C215.293 16.2481 215.293 16.6757 215.506 16.8895C215.719 17.1032 215.719 17.1032 215.933 17.1032C216.146 17.1032 216.359 16.8894 216.786 16.6757L217 17.1032L214.226 19.455C213.586 18.8136 212.946 18.386 212.946 17.9584C212.732 17.5308 212.732 16.8894 212.732 16.0343V8.97912L211.452 7.48257L209.318 9.19291V16.4619L210.385 17.317L208.038 19.2412L205.691 17.317L206.758 16.4619V9.83429C206.758 8.97912 206.758 8.33775 206.544 7.91016C206.331 7.69637 206.331 7.48257 206.118 7.48257C205.904 7.48257 205.691 7.69637 205.264 7.91016L205.051 7.48257L207.825 5.13086C208.678 5.77224 209.105 6.19982 209.318 6.41361C209.532 6.8412 209.532 7.26878 209.532 7.69636V8.12395L213.159 5.55844Z" fill="#D3B096"/>
</svg>
