<svg width="36" height="36" viewBox="0 0 36 36" fill="none" xmlns="http://www.w3.org/2000/svg">
<path d="M30.1489 18.466C29.8662 18.0892 29.5836 17.7123 29.1125 17.3354C28.6414 17.0528 28.1704 16.7701 27.5108 16.6759C26.8513 16.4875 26.3802 16.4875 25.9092 16.4875L24.4017 16.5817L26.3802 13.2841C26.5687 13.0015 26.5687 12.9073 26.5687 12.8131C26.5687 12.7188 26.5687 12.7188 26.4745 12.7188C26.4745 12.7188 26.3802 12.6246 26.286 12.6246C26.1918 12.6246 26.1918 12.6246 26.0976 12.7188C26.0976 12.7188 26.0034 12.9073 25.9092 13.0957L25.6265 13.661L21.6694 12.2478C20.3504 13.2841 19.5025 14.2263 18.9372 14.8858C18.4661 15.6395 18.1834 16.2048 18.1834 16.7701V16.8644C17.6181 17.0528 17.2413 17.3354 17.0528 17.5239C16.676 17.9007 16.4875 18.3718 16.4875 18.9371C16.4875 19.314 16.5818 19.5966 16.7702 19.8793C16.9586 20.1619 17.1471 20.4446 17.5239 20.633C17.5239 20.633 17.6181 20.633 17.6181 20.7272C17.1471 21.1041 16.7702 21.3867 16.2991 21.5752C15.3569 22.0462 14.4148 22.3289 13.3784 22.3289H12.7189V15.7338H16.5818L17.7124 13.7552H14.9801L18.4661 10.175L18.1834 9.89236C17.8066 9.98657 17.4297 9.98657 17.1471 9.98657C16.5818 9.98657 16.0165 9.89236 15.4512 9.79814C14.8859 9.60971 14.2264 9.32706 13.3784 8.9502L8.95024 12.7188V17.4297C8.95024 18.3718 8.95024 18.9371 8.85603 19.1255C8.76181 19.314 8.57338 19.5966 8.1023 19.9735C7.16014 18.7487 6.68906 17.4297 6.68906 16.0164C6.68906 14.98 6.9717 13.9437 7.537 13.0015C8.1023 12.0593 8.85603 11.2114 9.98662 10.5519L9.79819 10.2692C8.85603 10.7403 8.1023 11.3056 7.537 11.7767C6.68906 12.5304 6.12376 13.3784 5.65268 14.3205C5.1816 15.2627 4.99316 16.2991 4.99316 17.3354C4.99316 19.0313 5.55846 20.5388 6.59484 21.8578C7.91387 23.4595 9.79819 24.3074 12.1536 24.3074C13.6611 24.3074 14.9801 23.9306 16.1107 23.1768C16.8644 22.7058 17.5239 22.0462 18.1834 21.1983C18.3719 21.1983 18.4661 21.2925 18.6545 21.2925C19.2198 21.3867 19.5967 21.3867 19.8793 21.3867L21.1984 21.2925L20.4446 22.6115C19.8793 22.5173 19.4082 22.4231 19.0314 22.4231C18.0892 22.4231 17.3355 22.6115 16.7702 22.9884C16.2991 23.3653 16.0165 23.8364 16.0165 24.3074C16.0165 24.7785 16.2049 25.1554 16.676 25.438C17.0528 25.8149 17.7124 25.9091 18.4661 25.9091C19.5025 25.9091 20.9157 25.5322 22.6116 24.7785C23.5538 25.0612 24.4017 25.3438 25.0612 25.6265C27.0398 24.5901 28.453 23.6479 29.3009 22.8C30.0547 21.8578 30.5258 21.0099 30.5258 20.0677C30.5258 19.4082 30.4315 18.9371 30.1489 18.466ZM12.8131 10.7403C13.4726 11.023 14.0379 11.3056 14.509 11.3998C14.9801 11.5882 15.5454 11.6825 16.2991 11.7767L12.8131 15.2627V10.7403ZM12.342 22.2347C11.4941 22.1405 10.7404 21.952 10.1751 21.5752C9.60976 21.2925 9.04446 20.8214 8.38495 20.1619C9.42133 19.314 10.0808 18.6545 10.5519 18.0892C10.7404 17.8065 10.9288 17.6181 10.9288 17.4297C11.023 17.2412 11.023 16.8644 11.023 16.2991V11.5882L12.2478 10.5519V22.2347H12.342ZM19.8793 14.3205C20.2562 14.0379 20.7273 13.8494 21.1984 13.8494C21.5752 13.8494 22.0463 13.9437 22.6116 14.1321C23.1769 14.3205 23.8364 14.6032 24.7786 15.0742L23.8364 16.7701C22.4232 16.8644 21.5752 16.9586 21.1041 16.9586C20.5388 16.9586 20.0678 16.8644 19.7851 16.5817C19.5025 16.2991 19.314 16.0164 19.314 15.5453C19.4082 14.98 19.5967 14.6032 19.8793 14.3205ZM20.3504 19.6908C19.314 19.6908 18.5603 19.5024 18.0892 19.2198C17.7124 18.9371 17.6181 18.6545 17.6181 18.2776C17.6181 17.9007 17.8066 17.5239 18.2776 17.2412C18.4661 17.6181 18.6545 17.9007 19.0314 18.0892C19.4082 18.2776 19.9735 18.3718 20.7273 18.3718C21.481 18.3718 22.2347 18.2776 22.9885 18.1834L22.3289 19.4082C21.481 19.5966 20.8215 19.6908 20.3504 19.6908ZM18.6545 25.438C18.0892 25.438 17.6181 25.3438 17.3355 25.1554C17.1471 25.0612 17.0528 24.8727 17.0528 24.5901C17.0528 24.4017 17.1471 24.2132 17.3355 24.0248C17.6181 23.8364 17.995 23.7421 18.4661 23.7421C19.4082 23.7421 20.6331 24.0248 22.1405 24.4959C20.7273 25.1554 19.5025 25.438 18.6545 25.438ZM22.3289 22.8942C21.9521 22.8 21.481 22.7058 20.9157 22.5173L21.6694 21.1041C22.0463 21.1041 22.8942 21.0099 24.2133 20.9157C24.6844 20.8214 25.0612 20.8214 25.3439 20.8214C25.6265 20.8214 25.8149 20.9157 26.0034 21.0099C26.1918 21.1983 26.286 21.2925 26.286 21.4809C26.286 22.1405 25.5323 22.7058 24.1191 23.3653C23.3653 23.1768 22.7058 22.9884 22.3289 22.8942ZM28.5472 22.6115C28.1704 23.1768 27.5108 23.6479 26.7571 24.2132L24.967 23.7421C26.286 23.1768 27.0398 22.7058 27.5108 22.2347C27.8877 21.8578 28.0761 21.4809 28.0761 21.0099C28.0761 20.5388 27.8877 20.1619 27.5108 19.7851C27.134 19.4082 26.5687 19.314 25.8149 19.314C25.2496 19.314 24.3075 19.4082 22.8942 19.5024L23.648 18.2776C24.5901 18.1834 25.2496 18.0892 25.9092 18.0892C26.6629 18.0892 27.2282 18.1834 27.7935 18.466C28.3588 18.7487 28.7356 19.0313 29.0183 19.5024C29.3009 19.8793 29.3952 20.3504 29.3952 20.8214C29.2067 21.3867 28.9241 22.0462 28.5472 22.6115Z" fill="#152D49"/>
<path d="M17.7126 35.4253C15.3572 35.4253 13.0018 34.9542 10.8349 34.0121C8.76211 33.1641 6.78357 31.8451 5.18189 30.2434C3.58022 28.6417 2.26119 26.7574 1.41324 24.5904C0.471081 22.4235 0 20.068 0 17.7126C0 15.3572 0.471081 13.0018 1.41324 10.8349C2.26119 8.76211 3.58022 6.78357 5.18189 5.18189C6.78357 3.58022 8.66789 2.26119 10.8349 1.41324C13.0018 0.471081 15.3572 0 17.7126 0C20.0681 0 22.4235 0.471081 24.5904 1.41324C26.6632 2.26119 28.6417 3.58022 30.2434 5.18189C31.8451 6.78357 33.1641 8.66789 34.0121 10.8349C34.9542 13.0018 35.4253 15.3572 35.4253 17.7126C35.4253 20.068 34.9542 22.4235 34.0121 24.5904C33.1641 26.6632 31.8451 28.6417 30.2434 30.2434C28.6417 31.8451 26.7574 33.1641 24.5904 34.0121C22.4235 34.9542 20.1623 35.4253 17.7126 35.4253ZM17.7126 0.942162C15.4515 0.942162 13.2845 1.41324 11.2117 2.26119C9.23319 3.10913 7.44308 4.33395 5.93562 5.8414C4.42816 7.34886 3.20335 9.13897 2.35541 11.1175C1.50746 13.1903 1.03638 15.3572 1.03638 17.6184C1.03638 19.8796 1.50746 22.0466 2.35541 24.1193C3.20335 26.0979 4.42816 27.888 5.93562 29.3955C7.44308 30.9029 9.23319 32.1277 11.2117 32.9757C13.2845 33.8236 15.4515 34.2947 17.7126 34.2947C19.9738 34.2947 22.1408 33.8236 24.2136 32.9757C26.1921 32.1277 27.9822 30.9029 29.4897 29.3955C30.9971 27.888 32.2219 26.0979 33.0699 24.1193C33.9178 22.0466 34.3889 19.8796 34.3889 17.6184C34.3889 15.3572 33.9178 13.1903 33.0699 11.1175C32.2219 9.13897 30.9971 7.34886 29.4897 5.8414C27.9822 4.33395 26.1921 3.10913 24.2136 2.26119C22.235 1.31903 19.9738 0.942162 17.7126 0.942162Z" fill="#152D49"/>
</svg>
