<svg width="36" height="12" viewBox="0 0 36 12" fill="none" xmlns="http://www.w3.org/2000/svg">
<path d="M14.4 0.158242L12.5802 10.9187H15.5077L17.3275 0.158242H14.4ZM10.1275 0.158242L7.27912 7.51648L6.96264 6.40879C6.40879 5.06374 4.82637 3.16484 2.92747 1.97802L5.53846 10.9187H8.62418L13.2132 0.237363L10.1275 0.158242ZM5.85495 0.949451C5.6967 0.316484 5.22198 0.0791209 4.58901 0.0791209H0V0.316484C3.56044 1.18681 5.85495 3.24396 6.8044 5.6967L5.85495 0.949451ZM23.2615 2.21538C24.211 2.21538 24.9231 2.37363 25.4769 2.61099L25.7143 2.76923L26.1099 0.474725C25.556 0.237363 24.6066 0 23.4989 0C20.5714 0 18.5934 1.42418 18.5934 3.56044C18.5934 5.06374 20.0176 5.93407 21.1253 6.48791C22.233 7.04176 22.6286 7.35824 22.6286 7.83297C22.6286 8.54505 21.7582 8.86154 20.8879 8.86154C19.7011 8.86154 19.0681 8.7033 18.1187 8.30769L17.7231 8.14945L17.3275 10.5231C18.0396 10.8396 19.3055 11.0769 20.5714 11.0769C23.6571 11.0769 25.6352 9.65275 25.6352 7.43736C25.6352 6.25055 24.844 5.3011 23.1824 4.50989C22.1538 4.03516 21.5209 3.71868 21.5209 3.16484C21.6 2.69011 22.1538 2.21538 23.2615 2.21538ZM33.6264 0.158242H31.3319C30.6198 0.158242 30.1451 0.316483 29.8286 1.02857L25.4769 10.8396H28.5626C28.5626 10.8396 29.0374 9.49451 29.1956 9.25714C29.5121 9.25714 32.5187 9.25714 32.9143 9.25714C32.9934 9.65275 33.3099 10.8396 33.3099 10.8396H36L33.6264 0.158242ZM29.9868 7.12088C30.2242 6.48791 31.1736 4.11429 31.1736 4.11429C31.1736 4.11429 31.411 3.48132 31.5692 3.08571L31.7275 4.03516C31.7275 4.03516 32.2813 6.56703 32.4396 7.12088H29.9868Z" fill="white" fill-opacity="0.9"/>
</svg>
